<svg width="119" height="237" viewBox="0 0 119 237" fill="none" xmlns="http://www.w3.org/2000/svg">
<path d="M1.17471 236.638C0.522095 236.638 0 236.194 0 235.646V235.281C0 234.733 0.5482 234.289 1.17471 234.289H27.9321C28.5847 234.289 29.1068 234.733 29.1068 235.281V235.646C29.1068 236.194 28.5586 236.638 27.9321 236.638H1.17471ZM72.9628 234.289H117.341C117.994 234.289 118.516 234.811 118.516 235.463C118.516 236.116 117.994 236.638 117.341 236.638H72.9628C72.3102 236.638 71.7881 236.116 71.7881 235.463C71.7881 234.811 72.3102 234.289 72.9628 234.289Z" fill="#1C1916"/>
<path d="M117.472 234.289C117.419 234.289 117.367 234.289 117.341 234.289H72.9629C72.8846 234.289 72.8063 234.289 72.7541 234.315L74.8425 217.588H94.4733C96.3528 218.919 97.9191 220.067 99.146 221.033C99.5115 221.32 99.8509 221.607 100.216 221.868C101.939 223.277 103.845 224.425 105.881 225.338C107.891 226.252 109.927 227.191 111.937 228.157C113.19 228.757 114.391 229.409 115.592 230.166C116.166 230.688 117.184 231.732 117.498 232.984C117.55 233.193 117.55 233.402 117.576 233.585C117.576 233.845 117.55 234.08 117.472 234.289ZM28.3499 234.367C28.2193 234.315 28.0627 234.289 27.9322 234.289H1.51416C2.58446 231.993 4.93389 226.434 8.58855 217.614H29.2896L28.3499 234.367Z" fill="#1C1916"/>
<path d="M57.143 134.578L36.8857 207.228C35.9459 210.62 32.8655 212.943 29.3414 212.943H12.8432C8.50976 212.943 5.01172 209.446 5.01172 205.114C5.01172 204.462 5.09003 203.783 5.27277 203.157L27.018 119.416C30.2028 102.01 32.8655 90.7368 35.0322 85.5438C38.4519 77.3759 45.187 73.2788 48.1107 73.0701C61.894 72.1045 68.9945 72.496 69.4383 74.2966C73.1713 75.3926 82.7256 90.8673 90.8703 128.706C95.9086 152.088 98.6235 177.792 99.015 205.793C99.0672 210.125 95.6214 213.674 91.288 213.726C91.2619 213.726 91.2097 213.726 91.1836 213.726H75.8079C71.6572 213.726 68.2375 210.49 68.0026 206.367L64.5045 148.304L57.143 134.578Z" fill="#26EB67"/>
<path d="M104.132 33.3785L105.411 51.7759C105.49 52.7936 104.733 53.6548 103.715 53.7331L96.9535 54.2028C95.9354 54.2811 95.0739 53.5243 94.9956 52.5066L93.4293 30.1165C93.4293 29.986 93.4293 29.8555 93.4554 29.699L93.2988 29.6468L86.12 28.4464C83.6139 28.0288 81.6822 25.9934 81.4211 23.4621C81.1601 20.9308 82.5958 18.53 84.9453 17.5645L92.2024 14.5896L107.996 3.89033C108.257 3.70766 108.57 3.60327 108.909 3.57718C109.928 3.49889 110.789 4.28176 110.841 5.2734L112.695 33.6394C112.721 33.8743 112.669 34.1352 112.59 34.344C112.251 35.3095 111.233 35.8054 110.267 35.4661L104.132 33.3785Z" fill="#474961"/>
<path opacity="0.177" d="M95.2566 28.2116L102.018 27.7419C103.036 27.6636 103.897 28.4204 103.976 29.4381L105.542 51.8282C105.62 52.846 104.863 53.7071 103.845 53.7854L97.0839 54.2551C96.0658 54.3334 95.2044 53.5766 95.1261 52.5589L93.5598 30.1688C93.4815 29.1511 94.2385 28.2638 95.2566 28.2116Z" fill="#444444"/>
<path d="M109.718 2.27252C110.867 2.19423 111.859 3.05539 111.937 4.2036L114.026 34.1354C114.104 35.2836 113.243 36.2752 112.094 36.3535C110.945 36.4318 109.953 35.5706 109.875 34.4224L107.787 4.49065C107.682 3.34244 108.57 2.35081 109.718 2.27252Z" fill="#26EB67"/>
<path d="M65.9927 32.1779C70.1955 34.0307 73.2498 37.5536 74.3723 41.5463C74.7639 42.9033 74.8422 44.3646 74.6856 45.7738L73.0671 64.1191C73.041 64.4061 73.0149 64.6671 73.0149 64.9541C72.9888 66.3111 72.7277 67.9812 71.6835 69.3643C70.1694 71.3998 67.82 74.2703 58.0568 74.1659C48.9724 74.0615 46.7796 71.191 45.3177 69.2077C44.2735 67.7986 44.0386 65.8675 44.0124 64.5627C44.0124 64.2756 43.9863 64.0147 43.9602 63.7276L43.2554 54.7768C42.6028 55.3248 41.9763 55.7423 41.402 56.0033C39.2614 56.9427 37.7995 55.0639 37.0686 50.3405C34.7191 47.2873 27.7231 42.8772 39.1308 34.2134C43.3859 30.9775 47.3539 30.8732 50.382 32.2301C52.3399 31.4212 54.5588 30.9253 56.9604 30.8471L57.0126 30.1425C57.0648 29.4118 57.6914 28.8899 58.3962 28.9421L64.8963 29.3857C65.6272 29.4379 66.1493 30.0642 66.0971 30.7688L66.0188 31.8126C66.071 31.9431 66.0449 32.0736 65.9927 32.1779Z" fill="#A339FF"/>
<path d="M8.58838 217.588L10.3374 212.551L29.7071 212.943L29.3156 217.588H8.58838ZM89.0433 120.46C81.3163 88.4404 72.8583 75.1838 69.4386 74.2965C69.4386 74.2704 69.4386 74.2704 69.4386 74.2443C71.8663 72.522 74.764 70.069 78.1315 66.9114C86.3023 80.3768 90.6879 93.529 91.2622 106.394C91.6016 113.805 90.8706 118.503 89.0433 120.46ZM91.4449 37.1363C91.6016 37.058 91.7582 37.0058 91.9148 36.9797L103.479 34.9442C104.471 34.7616 105.411 35.44 105.594 36.4317L105.724 37.2145C105.803 37.6843 105.698 38.1279 105.489 38.4932C105.803 38.7542 106.037 39.1456 106.116 39.5893L106.246 40.3721C106.351 41.0245 106.116 41.6769 105.62 42.0944C106.246 42.2771 106.768 42.8251 106.899 43.5297L107.029 44.3126C107.212 45.3042 106.533 46.2437 105.542 46.4263L96.1438 48.0964C81.2902 64.7455 71.0049 74.2965 65.2357 76.8017C60.0148 79.072 52.105 72.0784 41.5065 55.8991C44.7435 54.2811 49.7034 47.4441 54.6372 43.3992C54.6894 43.347 54.7677 43.2948 54.8199 43.2426L64.9486 56.2122C82.6215 43.5297 91.4449 37.1884 91.4449 37.1884V37.1363ZM65.7317 26.8024L65.5751 29.6729C60.9807 29.5424 58.4224 29.3076 57.9264 29.0205L58.083 24.245L57.9264 22.4183L58.0569 20.9569L60.1714 21.1918L60.2758 20.9569C60.2497 20.9308 60.2497 20.9047 60.2497 20.9047C60.1453 20.6438 59.9104 20.4611 59.7015 20.4611C59.2316 20.3567 58.5007 20.148 57.8742 19.6C56.9866 18.791 56.3862 17.4601 56.6995 16.077C56.9866 14.7462 57.091 12.6585 58.3441 12.5802C59.0489 12.5541 60.1714 12.528 60.2497 12.5802C60.328 12.6324 62.051 13.7545 61.9726 13.1282C61.9204 12.7107 61.6855 10.4926 61.2417 6.47383C61.2156 6.0563 61.5028 5.66487 61.9204 5.61267C62.6775 5.53439 63.4084 5.37781 64.1393 5.14295C64.9486 4.98638 65.4968 4.8559 65.6795 4.8298C66.9325 4.56885 69.2298 4.46446 71.3181 5.16905C72.2057 5.53439 73.0933 6.0563 73.8503 6.83917C74.0592 7.02184 74.2419 7.2828 74.4507 7.51766C74.5029 7.59595 74.5551 7.67423 74.6335 7.77862C75.2078 8.63977 75.5732 9.63141 75.6515 10.6752L76.0431 15.3203C76.0431 15.79 76.0953 16.2597 76.0431 16.7294C75.6776 22.601 73.6415 26.8807 71.5009 27.3243C71.2398 27.4026 69.8563 27.6113 68.1595 27.3765C68.0028 27.3243 68.1334 27.3765 65.8361 26.8024C65.81 26.8285 65.7839 26.8285 65.7317 26.8024ZM74.7379 219.075L75.3122 213.726L92.8546 213.517L94.5514 217.797L74.7379 219.075Z" fill="#F2A98A"/>
<path opacity="0.177" d="M57 134.124L69.3214 74.1566C69.3214 74.1044 69.3214 74.0522 69.3214 74C72.9761 74.8351 82.6349 90.2315 90.8579 128.436C95.8961 151.87 98.611 177.574 98.9765 205.548C99.0287 209.75 95.6612 213.194 91.4844 213.247C91.4583 213.247 91.4061 213.247 91.38 213.247C89.0567 213.247 83.8879 213.299 75.8737 213.377C71.697 213.429 68.2251 210.193 67.9901 206.018L64.4921 148.033L57 134.124Z" fill="#444444"/>
<path opacity="0.2" d="M89.0431 120.46C81.3161 88.4406 72.8582 75.184 69.4385 74.2967C69.4385 74.2706 69.4385 74.2706 69.4385 74.2445C71.8662 72.5222 74.7638 70.0692 78.1313 66.9116C86.3021 80.377 90.6877 93.5292 91.262 106.394C91.6014 113.806 90.8704 118.503 89.0431 120.46Z" fill="#8C2A00"/>
<path d="M65.6014 29.36L62.9126 25.9937L65.8364 26.8287L65.6014 29.36Z" fill="#482D1F"/>
<path d="M62.8081 15.5029L62.5209 14.9288C62.5209 14.9288 62.051 14.1198 61.0851 13.5979C61.0068 13.5457 60.4064 13.2587 59.7016 13.2848C58.4486 13.337 57.2739 14.5113 56.9867 15.8421C56.6473 17.2252 57.2216 18.5822 58.1092 19.339C58.9968 20.1479 60.2237 20.2262 60.5631 20.2784C61.0851 21.3744 61.1374 22.5226 60.7197 23.7491C60.3542 24.8191 59.3361 25.8368 58.1092 26.6458L55.812 26.4892L58.0048 23.6187C57.1694 22.9402 55.8903 21.8703 55.1333 20.9569C54.5328 20.2523 52.6272 18.6344 51.8702 15.6856C51.7918 15.3463 51.6352 14.6939 51.5569 13.885C50.095 14.6939 48.3199 15.0071 46.5448 14.6678C42.5769 13.885 39.9664 10.1794 40.7234 6.36941C41.4544 2.55944 45.2918 0.0803527 49.2336 0.837128C52.2878 1.43733 54.5328 3.75985 55.081 6.55208C56.7518 5.71702 58.3703 5.95188 61.8944 5.45607C62.2077 5.40387 62.7297 5.32559 63.4085 5.2212C63.6956 5.16901 63.9306 5.14292 64.1655 5.09073C64.9748 4.93415 65.523 4.80367 65.7057 4.77758C66.9587 4.51662 69.2559 4.41224 71.3443 5.11682C72.2319 5.48216 73.1194 6.00407 73.8765 6.78695C74.0853 6.96961 74.8946 7.88296 75.1034 8.11783C75.3384 8.95289 74.4508 9.29213 73.8504 9.5009C71.9186 10.1011 69.2298 8.79631 68.1856 8.61364C66.4888 10.7796 64.792 12.8933 63.1213 15.0593C62.9647 15.2159 62.8864 15.3463 62.8081 15.5029ZM76.6436 14.2764C76.1215 14.4069 75.3122 14.5635 74.6074 14.3808C73.4066 14.0937 74.5291 13.3892 75.5994 13.337C76.1215 13.3109 76.5131 13.5196 76.7741 13.7284C77.0091 13.8589 76.9046 14.2242 76.6436 14.2764ZM71.6315 14.6678C71.1355 14.8244 70.3262 15.0332 69.5431 14.9027C68.3423 14.7461 69.3865 13.9111 70.4568 13.7806C71.005 13.7023 71.4226 13.9111 71.6837 14.0676C71.9447 14.2242 71.8925 14.5896 71.6315 14.6678Z" fill="#482D1F"/>
<path d="M74.8683 16.3902C74.8683 16.077 75.1032 15.7899 75.4165 15.7639C75.6253 15.7378 75.8081 15.8421 75.9125 16.1553C76.2257 16.9643 75.547 18.269 75.1554 17.8515C74.8944 17.5645 74.8422 16.8338 74.8683 16.3902ZM70.2217 16.8338C70.2217 16.5206 70.4566 16.2336 70.7699 16.2075C70.9787 16.1814 71.1614 16.2858 71.2659 16.5989C71.5791 17.4079 70.9004 18.7127 70.5088 18.2951C70.2217 18.0081 70.1956 17.2774 70.2217 16.8338ZM72.545 21.8702C72.3623 21.818 71.9185 21.7137 71.8141 21.4266C71.8141 21.3744 71.788 21.2961 71.8141 21.2439C71.9185 21.0613 72.2317 21.1396 72.7016 21.1396C73.537 21.1135 74.2157 21.0091 74.2157 21.0091C74.2157 21.0091 74.0591 21.531 73.9285 21.7137C73.6936 22.1312 72.8582 21.9224 72.545 21.8702ZM73.5631 16.7816V16.7555V16.7816ZM74.1374 19.5216C74.1896 19.8087 73.9807 20.1218 73.6936 20.174C73.6675 20.174 73.6414 20.174 73.5892 20.2001C73.4064 20.2262 73.2237 20.2523 72.9104 20.2784C72.8582 20.2784 72.6755 20.3045 72.6755 20.3045C72.5711 20.3045 72.4928 20.3306 72.3884 20.3306C72.2578 20.3567 72.1273 20.2523 72.1012 20.0957C72.0751 19.9653 72.1795 19.8348 72.3361 19.8087C72.4145 19.8087 72.5189 19.7826 72.6233 19.7826C72.6233 19.7826 72.806 19.7565 72.8582 19.7565C73.1715 19.7304 73.3281 19.7043 73.4848 19.6782C73.5109 19.6782 73.537 19.6782 73.5631 19.6521C73.5892 19.6521 73.6153 19.626 73.6153 19.5999L73.0671 16.8599V16.8338L72.9627 15.2941C72.9627 15.1376 73.0671 15.0332 73.1976 15.0071C73.3542 15.0071 73.4586 15.1115 73.4848 15.2419L73.5892 16.7555L74.1374 19.5216Z" fill="#482D1F"/>
<path d="M55.1335 43.3731C54.9507 40.1634 54.1415 37.058 52.6535 34.1353C52.5491 33.9526 52.3142 33.8743 52.1314 33.9526C51.9487 34.057 51.8704 34.2918 51.9487 34.4745C53.3844 37.3189 54.1676 40.2938 54.3503 43.3992C54.3503 43.608 54.5592 43.7907 54.768 43.7646C54.9768 43.7385 55.1335 43.608 55.1335 43.3731Z" fill="#482D1F"/>
</svg>
