<svg width="885" height="781" viewBox="0 0 885 781" fill="none" xmlns="http://www.w3.org/2000/svg">
<path d="M235.809 301.005C201.709 148.696 299.372 149.456 352.466 168.876C410.406 192.705 469.01 109.913 559.284 121.836C649.557 133.758 709.044 318.875 645.537 414.991C582.03 511.107 681.652 556.703 671.867 640.269C662.082 723.835 590.596 768.424 479.646 720.503C368.696 672.581 391.01 729.636 293.542 711.543C188.554 692.054 156.886 556.763 185.038 501.588C212.277 448.2 278.434 491.391 235.809 301.005Z" fill="#26EB67"/>
<path d="M363.971 208.373C427.019 74.498 515.659 125.582 552.099 167.858C590.233 216.006 694.889 183.124 769.886 238.905C844.883 294.686 784.716 466.727 667.348 507.242C549.98 547.757 612.689 634.07 552.099 692.787C491.508 751.504 398.715 748.568 327.108 654.621C255.5 560.674 240.587 615.757 162.84 551.546C79.0944 482.381 133.841 362.753 193.639 335.201C251.499 308.543 285.16 375.716 363.971 208.373Z" fill="#8826EB"/>
</svg>
