<svg width="31" height="31" viewBox="0 0 31 31" fill="none" xmlns="http://www.w3.org/2000/svg">
<path d="M28.7243 7.41321L30.2278 5.90994C30.4775 5.65995 30.5599 5.28768 30.4385 4.95586C30.3172 4.62379 30.0142 4.39249 29.6618 4.36269L26.8726 4.12736L26.6373 1.33818C26.6077 0.986015 26.3762 0.683044 26.0444 0.561714C25.7126 0.440147 25.3403 0.522453 25.0903 0.772446L23.5868 2.27571C21.1555 0.784981 18.3755 0 15.5 0C11.3599 0 7.46737 1.6123 4.53983 4.53983C1.6123 7.46737 0 11.3599 0 15.5C0 19.6401 1.6123 23.5326 4.53983 26.4602C7.46737 29.3877 11.3599 31 15.5 31C19.6401 31 23.5326 29.3877 26.4602 26.4602C29.3877 23.5326 31 19.6401 31 15.5C31 12.6245 30.215 9.84478 28.7243 7.41321ZM25.127 5.04431C25.1643 5.48564 25.5144 5.83568 25.9557 5.87305L27.5604 6.00833L25.3883 8.18045L23.0194 7.9806L22.8195 5.6117L24.9917 3.43958L25.127 5.04431ZM18.5879 15.5C18.5879 17.2026 17.2026 18.5879 15.5 18.5879C13.7974 18.5879 12.4121 17.2026 12.4121 15.5C12.4121 13.7974 13.7974 12.4121 15.5 12.4121C16.0215 12.4121 16.5127 12.5424 16.9439 12.7716L14.8579 14.8579C14.5031 15.2124 14.5031 15.7874 14.8579 16.1421C15.035 16.3195 15.2675 16.4082 15.5 16.4082C15.7325 16.4082 15.965 16.3195 16.1421 16.1421L18.2284 14.0561C18.4576 14.4873 18.5879 14.9785 18.5879 15.5ZM18.2641 11.4514C17.4765 10.9122 16.5246 10.5957 15.5 10.5957C12.7957 10.5957 10.5957 12.7957 10.5957 15.5C10.5957 18.2043 12.7957 20.4043 15.5 20.4043C18.2043 20.4043 20.4043 18.2043 20.4043 15.5C20.4043 14.4754 20.0878 13.5235 19.5486 12.7359L22.1417 10.1428C23.3264 11.6087 24.0371 13.4729 24.0371 15.5C24.0371 20.2073 20.2073 24.0371 15.5 24.0371C10.7927 24.0371 6.96289 20.2073 6.96289 15.5C6.96289 10.7927 10.7927 6.96289 15.5 6.96289C17.5271 6.96289 19.3913 7.67361 20.8572 8.85829L18.2641 11.4514ZM25.1757 25.1757C22.5913 27.7603 19.155 29.1836 15.5 29.1836C11.845 29.1836 8.40868 27.7603 5.82433 25.1757C3.23973 22.5913 1.81641 19.155 1.81641 15.5C1.81641 11.845 3.23973 8.40868 5.82433 5.82433C8.40868 3.23973 11.845 1.81641 15.5 1.81641C17.8911 1.81641 20.2073 2.43063 22.2614 3.60112L21.2371 4.62545C21.0715 4.79101 20.9771 5.01286 20.9712 5.2444C20.9705 5.27751 20.9715 5.31062 20.9741 5.34397L21.0963 6.79308C19.4817 5.75148 17.5602 5.14648 15.5 5.14648C9.79109 5.14648 5.14648 9.79109 5.14648 15.5C5.14648 21.2089 9.79109 25.8535 15.5 25.8535C21.2089 25.8535 25.8535 21.2089 25.8535 15.5C25.8535 13.4398 25.2485 11.5183 24.2069 9.90367L25.656 10.0259C25.6816 10.0278 25.7071 10.029 25.7324 10.029C25.7367 10.029 25.7412 10.0285 25.7454 10.0283C25.7575 10.0283 25.7693 10.0274 25.7814 10.0267C25.801 10.0255 25.8209 10.0243 25.8403 10.0219C25.8523 10.0203 25.8644 10.0184 25.8765 10.0165C25.8956 10.0134 25.9145 10.0099 25.9335 10.0056C25.9455 10.0028 25.9573 9.99969 25.9692 9.99662C25.9876 9.99165 26.0058 9.98598 26.024 9.97983C26.0359 9.97581 26.0475 9.97179 26.059 9.96729C26.0768 9.96043 26.0943 9.95287 26.1118 9.94459C26.1229 9.93962 26.134 9.93465 26.1451 9.92898C26.1626 9.91999 26.1797 9.91006 26.1965 9.90012C26.2066 9.89397 26.2168 9.8883 26.2267 9.88215C26.2447 9.87032 26.262 9.85755 26.2792 9.84454C26.2873 9.83839 26.2956 9.83295 26.3034 9.82657C26.328 9.8067 26.3518 9.78565 26.3745 9.76295L27.3989 8.73862C28.5694 10.7927 29.1836 13.1089 29.1836 15.5C29.1836 19.155 27.7603 22.5913 25.1757 25.1757Z" fill="#D0D0D0"/>
</svg>
