<svg width="33" height="33" viewBox="0 0 33 33" fill="none" xmlns="http://www.w3.org/2000/svg">
<path d="M16.2648 15.8962C18.4486 15.8962 20.3394 15.113 21.8848 13.5676C23.4297 12.0225 24.2132 10.132 24.2132 7.94786C24.2132 5.76452 23.4299 3.87373 21.8845 2.32811C20.3392 0.783255 18.4484 0 16.2648 0C14.0807 0 12.1901 0.783255 10.645 2.32836C9.09991 3.87347 8.31641 5.76426 8.31641 7.94786C8.31641 10.132 9.09991 12.0228 10.645 13.5679C12.1906 15.1127 14.0814 15.8962 16.2648 15.8962ZM12.0126 3.69573C13.1982 2.51014 14.589 1.93384 16.2648 1.93384C17.9403 1.93384 19.3313 2.51014 20.5172 3.69573C21.7028 4.88156 22.2793 6.27259 22.2793 7.94786C22.2793 9.62364 21.7028 11.0144 20.5172 12.2002C19.3313 13.3861 17.9403 13.9624 16.2648 13.9624C14.5895 13.9624 13.1987 13.3858 12.0126 12.2002C10.8268 11.0147 10.2503 9.62364 10.2503 7.94786C10.2503 6.27259 10.8268 4.88156 12.0126 3.69573Z" fill="#D0D0D0"/>
<path d="M30.1724 25.3754C30.1278 24.7324 30.0377 24.0309 29.905 23.2902C29.771 22.544 29.5986 21.8385 29.3921 21.1937C29.1786 20.5273 28.8888 19.8692 28.5301 19.2385C28.1582 18.5839 27.7211 18.0139 27.2307 17.5448C26.7178 17.0541 26.0899 16.6596 25.3638 16.3718C24.6402 16.0856 23.8383 15.9406 22.9806 15.9406C22.6437 15.9406 22.3179 16.0788 21.6887 16.4884C21.3015 16.7409 20.8486 17.033 20.343 17.356C19.9107 17.6314 19.3251 17.8895 18.6018 18.1231C17.8961 18.3515 17.1795 18.4673 16.4721 18.4673C15.7651 18.4673 15.0485 18.3515 14.3423 18.1231C13.6198 17.8898 13.0339 17.6317 12.6023 17.3563C12.1016 17.0363 11.6484 16.7442 11.2554 16.4882C10.6267 16.0785 10.3009 15.9403 9.96405 15.9403C9.10602 15.9403 8.30438 16.0856 7.58105 16.3721C6.85545 16.6594 6.22728 17.0539 5.71392 17.5451C5.22347 18.0144 4.7864 18.5841 4.41479 19.2385C4.05652 19.8692 3.76648 20.527 3.55298 21.194C3.34678 21.8388 3.17432 22.544 3.04037 23.2902C2.90744 24.0299 2.81756 24.7316 2.773 25.3761C2.72919 26.0063 2.70703 26.6622 2.70703 27.3248C2.70703 29.0474 3.25463 30.442 4.33447 31.4705C5.40097 32.4853 6.81189 33 8.52821 33H24.4179C26.1337 33 27.5446 32.4853 28.6114 31.4705C29.6915 30.4427 30.2391 29.0477 30.2391 27.3246C30.2388 26.6596 30.2164 26.0038 30.1724 25.3754ZM27.278 30.0694C26.5733 30.7401 25.6377 31.0661 24.4177 31.0661H8.52821C7.30788 31.0661 6.3723 30.7401 5.66785 30.0696C4.97674 29.4117 4.64088 28.5137 4.64088 27.3248C4.64088 26.7065 4.66127 26.0959 4.70206 25.5098C4.74184 24.9348 4.82316 24.3031 4.94376 23.6319C5.06284 22.969 5.21441 22.3468 5.39468 21.7836C5.56764 21.2436 5.80355 20.7088 6.09611 20.1937C6.37532 19.7028 6.69658 19.2815 7.05107 18.9422C7.38265 18.6247 7.80059 18.3648 8.29305 18.17C8.7485 17.9897 9.26035 17.891 9.81601 17.8762C9.88374 17.9122 10.0043 17.9809 10.1997 18.1083C10.5973 18.3674 11.0555 18.6629 11.562 18.9865C12.133 19.3505 12.8687 19.6793 13.7477 19.9631C14.6462 20.2536 15.5627 20.4012 16.4723 20.4012C17.382 20.4012 18.2986 20.2536 19.1967 19.9633C20.0764 19.6791 20.8118 19.3505 21.3836 18.986C21.902 18.6546 22.3474 18.3676 22.7449 18.1083C22.9403 17.9812 23.0609 17.9122 23.1286 17.8762C23.6845 17.891 24.1964 17.9897 24.6521 18.17C25.1443 18.3648 25.5622 18.6249 25.8938 18.9422C26.2483 19.2813 26.5695 19.7025 26.8488 20.194C27.1416 20.7088 27.3777 21.2438 27.5504 21.7834C27.731 22.3473 27.8828 22.9692 28.0016 23.6316C28.122 24.3041 28.2035 24.936 28.2433 25.5101V25.5106C28.2843 26.0944 28.305 26.7047 28.3052 27.3248C28.305 28.5139 27.9691 29.4117 27.278 30.0694Z" fill="#D0D0D0"/>
</svg>
