<svg width="35" height="27" viewBox="0 0 35 27" fill="none" xmlns="http://www.w3.org/2000/svg">
<path d="M27.4916 4.77614C23.5275 4.80352 20.3032 8.08893 20.3032 12.0953V13.1083L19.0245 14.897C18.787 15.2256 18.7596 15.6454 18.9423 16.0013C19.2802 16.6584 19.9105 16.5763 20.3397 16.5763C20.559 18.6479 21.6824 21.9059 23.4361 21.9059H24.7058C24.7058 21.9881 24.7058 24.9814 24.7058 25.0545C24.7058 25.5838 25.1351 26.0127 25.6648 26.0127H32.8075C33.5931 26.0127 34.0497 25.1092 33.5748 24.4795C32.5975 23.1745 31.7845 22.3531 31.7845 20.7834C31.7845 19.7157 32.8349 17.3702 33.8762 15.5176C36.5616 10.7173 33.045 4.73051 27.4916 4.77614ZM32.908 14.9883C32.5335 15.6545 30.6793 19.0494 30.6793 20.7925C30.6793 22.709 31.6201 23.7312 32.5244 24.9267H25.8018V21.7782C25.8018 21.2488 25.3725 20.8199 24.8428 20.8199H23.4361C22.6872 20.8199 21.4632 18.2463 21.3993 16.0196C21.3901 15.7275 21.1435 15.4902 20.8512 15.4902H19.947C21.3171 13.5738 21.3993 13.5555 21.3993 13.1539C21.3993 13.1357 21.3993 12.1136 21.3993 12.0953C21.3993 8.69126 24.1395 5.89866 27.5007 5.87128C32.2047 5.83477 35.2006 10.9089 32.908 14.9883Z" fill="#D0D0D0"/>
<path d="M15.7728 14.8974L14.494 13.1087V12.0957C14.494 8.08016 11.2515 4.77649 7.25085 4.77649C1.7157 4.77649 -1.76432 10.745 0.93018 15.5271C4.14532 21.2583 3.12232 21.961 1.2316 24.489C0.756636 25.1187 1.21333 26.0222 1.99885 26.0222H9.14157C9.67134 26.0222 10.1006 25.5932 10.1006 25.0639C10.1006 24.9818 10.1006 21.9975 10.1006 21.9154H11.3702C13.124 21.9154 14.2474 18.6574 14.4666 16.5857H14.9142C15.7728 16.5857 16.2843 15.6001 15.7728 14.8974ZM13.946 15.4906C13.6537 15.4906 13.4071 15.7279 13.398 16.0199C13.3249 18.2467 12.101 20.8203 11.3611 20.8203H9.95449C9.42472 20.8203 8.99543 21.2492 8.99543 21.7785V24.927H2.27286C3.12232 23.7954 4.11792 22.7368 4.11792 20.7929C4.11792 19.0498 2.26373 15.6549 1.88924 14.9887C0.811439 13.0722 0.847975 10.7906 1.97145 8.88326C5.16832 3.47145 13.4071 5.80774 13.4071 12.0865C13.4071 12.1139 13.4071 13.1269 13.4071 13.1452C13.4071 13.5467 13.4893 13.565 14.8594 15.4815L13.946 15.4906Z" fill="#D0D0D0"/>
<path d="M21.8925 3.32509C22.1482 3.16082 22.2213 2.82315 22.0477 2.56762L21.2439 1.33559C21.0795 1.08006 20.7416 1.00705 20.4858 1.18044C20.2301 1.34472 20.157 1.68239 20.3306 1.93792L21.1343 3.16995C21.2987 3.41635 21.6367 3.48936 21.8925 3.32509Z" fill="#D0D0D0"/>
<path d="M24.6876 2.44898C24.9342 2.28471 24.8977 2.20257 25.2265 0.660256C25.2904 0.36822 25.0986 0.0761827 24.8063 0.0122997C24.514 -0.0515832 24.2218 0.140066 24.1578 0.432103L23.8564 1.87403C23.7468 2.35772 24.2766 2.71364 24.6876 2.44898Z" fill="#D0D0D0"/>
<path d="M20.2576 5.18675C20.6595 4.9221 20.5499 4.29239 20.0658 4.192L18.6226 3.89084C18.3303 3.82696 18.038 4.01861 17.9741 4.31064C17.9102 4.60268 18.102 4.89472 18.3943 4.9586C19.947 5.28714 20.011 5.35103 20.2576 5.18675Z" fill="#D0D0D0"/>
</svg>
