<svg width="28" height="28" viewBox="0 0 28 28" fill="none" xmlns="http://www.w3.org/2000/svg">
<g clip-path="url(#clip0)">
<path d="M14.9204 9.32956L15.4144 6.84029C16.8132 6.75283 17.8762 5.54797 17.7887 4.14915C17.7013 2.75033 16.4964 1.68735 15.0976 1.77481C13.6988 1.86227 12.6358 3.06713 12.7232 4.46595C12.78 5.37279 13.3171 6.18006 14.1317 6.58262L13.6205 9.15857C12.6448 9.1865 11.7116 9.56407 10.9909 10.2224L6.08559 6.74995C6.78297 5.142 6.04477 3.27319 4.43689 2.57587C2.82901 1.87856 0.960124 2.61669 0.262809 4.22457C-0.434507 5.83245 0.303627 7.70134 1.91151 8.39865C3.06522 8.89901 4.40549 8.67097 5.32875 7.81718L10.1759 11.2484C9.25465 12.8901 9.57695 14.949 10.9558 16.2305L7.46393 20.7269C6.1911 20.1332 4.67807 20.6838 4.08437 21.9565C3.49067 23.2294 4.04127 24.7424 5.31403 25.3361C6.58686 25.9298 8.09989 25.3792 8.69359 24.1064C9.07875 23.2807 8.99267 22.312 8.46798 21.5671L12.0452 16.9607C13.6614 17.7006 15.5707 17.3088 16.7647 15.992L20.667 18.7513C19.7589 20.3802 20.3431 22.437 21.9721 23.3451C23.601 24.2533 25.6578 23.669 26.5659 22.0401C27.4741 20.4111 26.8898 18.3544 25.2609 17.4462C24.0665 16.7804 22.5886 16.9005 21.5174 17.7505L17.479 14.8952C17.9204 13.9003 17.9453 12.7702 17.5481 11.7569L22.5903 8.34357C23.7792 9.38739 25.589 9.26977 26.6328 8.081C27.6766 6.89216 27.559 5.08228 26.3702 4.03853C25.1814 2.99472 23.3715 3.11234 22.3277 4.30111C21.61 5.11852 21.4172 6.27191 21.8301 7.2783L16.8808 10.6288C16.3682 10.0135 15.6867 9.56178 14.9204 9.32956ZM14.0266 4.30876C14.0266 3.63015 14.5767 3.08002 15.2553 3.08002C15.9339 3.08002 16.484 3.63015 16.484 4.30876C16.484 4.98737 15.9339 5.5375 15.2553 5.5375C14.5769 5.53691 14.0271 4.9871 14.0266 4.30876ZM1.3237 5.49583C1.32376 4.47053 2.15498 3.63931 3.18028 3.63938C4.20559 3.63944 5.0368 4.47066 5.03674 5.49596C5.03667 6.52127 4.20552 7.35242 3.18022 7.35242C2.15531 7.35118 1.32481 6.52068 1.3237 5.49583ZM7.62328 23.0269C7.6225 23.7052 7.07282 24.2549 6.39454 24.2556C5.71594 24.2556 5.1658 23.7055 5.1658 23.0269C5.1658 22.3483 5.71594 21.7982 6.39454 21.7982C7.07315 21.7982 7.62328 22.3482 7.62328 23.0269ZM25.6683 20.3872C25.6683 21.5246 24.7462 22.4466 23.6088 22.4466C22.4714 22.4465 21.5494 21.5245 21.5495 20.3871C21.5495 19.2497 22.4715 18.3277 23.6089 18.3277C24.7458 18.3289 25.6671 19.2503 25.6683 20.3872ZM22.9243 6.19158C22.9252 5.32981 23.6235 4.63151 24.4853 4.63053C25.3475 4.63053 26.0464 5.32942 26.0464 6.19158C26.0464 7.05374 25.3475 7.75262 24.4853 7.75262C23.6231 7.75262 22.9243 7.05367 22.9243 6.19158ZM16.5209 13.2434C16.5192 14.7777 15.2758 16.021 13.7415 16.0227C12.2065 16.0227 10.9622 14.7784 10.9622 13.2434C10.9622 11.7084 12.2065 10.464 13.7415 10.464C15.2766 10.464 16.5209 11.7084 16.5209 13.2434Z" fill="#D0D0D0"/>
</g>
<defs>
<clipPath id="clip0">
<rect width="27.3448" height="27.3448" fill="white" transform="translate(0 27.3448) rotate(-90)"/>
</clipPath>
</defs>
</svg>
