<svg width="867" height="571" viewBox="0 0 867 571" fill="none" xmlns="http://www.w3.org/2000/svg">
<path d="M10.5 381.5C-30.7 529.5 74.6667 589.167 132.5 600.5L894.5 588V233C843.333 251.667 714.7 267.5 609.5 181.5C478 74.0001 378.5 198.5 271 233C163.5 267.5 62 196.5 10.5 381.5Z" fill="white" stroke="white"/>
<path d="M780.706 408.408V408.502C780.706 409.624 779.725 410.559 778.603 410.559H743.325L755.754 433.373C764.632 449.642 773.463 465.864 782.295 482.133L796.92 508.967C797.434 509.902 797.013 511.118 796.032 511.679L795.845 511.772C794.864 512.333 793.602 512.006 793.135 511.118L738.419 410.559H701.973L647.257 511.118C646.79 512.006 645.529 512.287 644.547 511.772L644.36 511.679C643.379 511.118 642.959 509.902 643.473 508.967L658.098 482.133C666.976 465.864 675.807 449.642 684.638 433.373L697.067 410.559H650.295C649.126 410.559 648.192 409.624 648.192 408.502V408.268C648.192 407.146 649.173 406.211 650.295 406.211H682.068C702.767 406.211 723.514 406.211 744.26 406.211H776.594L780.519 374.327C783.229 352.635 785.892 330.897 788.603 309.158L793.041 273.254C793.182 271.992 794.256 271.057 795.424 271.197L795.658 271.244C796.78 271.384 797.574 272.553 797.434 273.721L780.753 408.174C780.753 408.268 780.706 408.315 780.706 408.408Z" fill="#D8DEED"/>
<path d="M328.308 330.756C327.841 331.598 326.953 332.159 325.925 332.159H258.78C257.285 332.159 256.117 330.943 256.117 329.447C256.117 327.951 257.332 326.736 258.78 326.736H324.103L346.858 265.447C347.372 264.044 348.914 263.343 350.316 263.857C351.718 264.371 352.418 265.914 351.904 267.317L328.495 330.336C328.448 330.476 328.355 330.616 328.308 330.756Z" fill="#1C1916"/>
<path d="M138.976 407.94V408.034C138.976 409.156 139.957 410.091 141.078 410.091H176.356L163.927 432.905C155.049 449.174 146.218 465.396 137.387 481.665L122.762 508.5C122.248 509.435 122.668 510.65 123.65 511.211L123.836 511.305C124.818 511.866 126.079 511.538 126.547 510.65L181.262 410.091H217.708L272.424 510.65C272.891 511.538 274.153 511.819 275.134 511.305L275.321 511.211C276.302 510.65 276.723 509.435 276.209 508.5L261.584 481.665C252.706 465.396 243.875 449.174 235.044 432.905L222.615 410.091H269.387C270.555 410.091 271.49 409.156 271.49 408.034V407.8C271.49 406.678 270.508 405.743 269.387 405.743H237.613C216.914 405.743 196.168 405.743 175.422 405.743H143.087L139.162 373.86C136.452 352.168 133.789 330.429 131.079 308.69L126.64 272.786C126.5 271.524 125.425 270.589 124.257 270.729L124.023 270.776C122.902 270.916 122.108 272.085 122.248 273.254L138.929 407.707C138.929 407.8 138.976 407.847 138.976 407.94Z" fill="#D8DEED"/>
<path d="M422.18 410.372H385.22C384.098 410.372 383.117 409.437 383.117 408.315V408.081C383.117 406.959 384.098 406.024 385.313 406.024H419.563C440.309 406.024 461.056 406.024 481.755 406.024H513.529C514.65 406.024 515.631 406.959 515.631 408.081V408.315C515.631 409.437 514.697 410.372 513.529 410.372H468.438L480.867 433.186C489.698 449.455 498.53 465.677 507.407 481.946L522.033 508.78C522.547 509.715 522.126 510.931 521.145 511.492L520.958 511.585C519.977 512.1 518.715 511.819 518.248 510.931L463.532 410.372H427.086L372.37 510.931C371.903 511.819 370.641 512.146 369.66 511.585L369.473 511.492C368.492 510.931 368.072 509.715 368.586 508.78L383.211 481.946C392.042 465.677 400.873 449.455 409.751 433.186L422.18 410.372ZM383.257 392.046V364.884C383.257 344.174 383.257 323.463 383.257 302.8V278.069C383.257 274.189 386.388 271.057 390.266 271.057H466.522C470.401 271.057 473.531 274.189 473.531 278.069V392.139C473.531 396.019 470.401 399.152 466.522 399.152L390.266 399.058C386.388 399.058 383.257 395.926 383.257 392.046Z" fill="#D8DEED"/>
<path d="M533.539 511.912H459.292C458.124 511.912 457.189 510.977 457.189 509.809C457.189 508.64 458.124 507.705 459.292 507.705H533.539C534.707 507.705 535.642 508.64 535.642 509.809C535.642 510.977 534.707 511.912 533.539 511.912ZM397.474 511.912C396.306 511.912 395.371 511.118 395.371 510.136V509.481C395.371 508.5 396.353 507.705 397.474 507.705H445.368C446.536 507.705 447.471 508.5 447.471 509.481V510.136C447.471 511.118 446.489 511.912 445.368 511.912H397.474Z" fill="#1C1916"/>
<path d="M534.24 507.845C534.006 507.752 533.773 507.705 533.492 507.705H459.292C458.965 507.705 458.638 507.798 458.358 507.939C458.311 507.752 458.264 507.518 458.264 507.284L459.9 481.431C459.806 480.029 460.881 478.954 462.236 478.907L492 478.72C492.514 478.72 492.981 478.86 493.402 479.187C498.729 484.891 503.822 488.07 507.513 489.94C510.363 491.389 519.895 495.41 524.194 497.373C526.39 498.355 528.493 499.524 530.549 500.786C530.689 500.879 530.782 500.926 530.923 501.066C531.997 502.048 533.633 503.825 534.24 505.928C534.334 506.209 534.334 506.443 534.38 506.723C534.427 506.957 534.38 507.191 534.38 507.424V507.471C534.334 507.611 534.287 507.705 534.24 507.845ZM445.648 507.705C445.555 507.705 445.461 507.705 445.368 507.705H397.474L408.314 478.767L441.77 483.301L445.648 507.705Z" fill="#1C1916"/>
<path d="M457.517 398.076C455.881 399.245 454.479 400.273 453.311 401.162L452.704 411.073C452.423 416.309 452.096 420.937 451.723 425.004C451.442 428.183 447.844 464.414 446.536 477.691C446.256 480.683 444.246 483.255 441.49 484.096C437.331 485.358 406.118 483.909 404.95 483.348C403.455 482.647 402.661 482.367 401.866 481.572C399.063 478.907 399.25 474.746 399.203 473.157C398.923 461.422 398.081 426.126 398.081 401.442C398.081 401.349 398.081 401.302 398.081 401.208C394.998 398.544 392.288 394.57 390.138 389.661C386.914 382.181 384.905 372.457 384.858 361.938C384.858 361.798 384.858 355.487 384.858 342.911C384.858 342.864 384.858 342.864 384.858 342.818C384.905 339.311 388.222 336.6 392.101 336.6H435.228C441.209 336.787 447.143 336.974 453.124 337.208C462.469 337.441 475.693 337.815 492.935 338.283C499.663 338.47 505.737 342.35 508.728 348.381C510.176 351.233 511.017 353.617 511.344 355.44C513.213 358.713 514.195 362.546 514.101 366.613C514.101 366.707 514.101 366.754 514.101 366.847C513.354 404.341 504.616 457.729 504.009 475.775C503.962 476.476 503.775 477.972 502.794 479.561C499.756 484.423 492.654 483.348 476.067 483.769C461.955 484.143 456.255 485.218 453.358 481.198C451.769 479 451.816 476.523 451.863 475.354C453.218 449.408 455.18 423.181 457.517 398.076Z" fill="#EB920E"/>
<path opacity="0.177" d="M457.517 398.263C455.881 399.432 454.479 400.46 453.311 401.302L455.087 371.662C455.134 369.605 455.367 357.17 446.069 349.316C439.294 343.612 431.07 343.238 425.603 343.005C417.192 342.631 410.651 345.015 409.389 345.482C407.8 346.09 407.006 346.417 406.212 346.791C397.147 351.56 397.848 374.374 397.941 378.535C398.035 383.724 398.081 391.718 398.081 401.021C395.091 398.357 392.428 394.476 390.372 389.661C387.101 382.181 385.138 372.457 385.092 361.938C385.092 361.798 385.092 355.487 385.092 342.911C385.092 342.864 385.092 342.864 385.092 342.818C385.138 339.311 388.409 336.6 392.334 336.6H435.462C441.443 336.787 447.377 336.974 453.358 337.208C462.703 337.441 475.926 337.815 493.168 338.283C499.897 338.47 505.971 342.35 508.961 348.381C510.55 351.56 511.438 354.084 511.625 356.001C508.074 349.269 501.065 344.688 492.981 344.875C489.056 344.968 485.178 345.062 481.253 345.155C470.74 345.436 462.002 353.57 460.881 364.276C459.713 375.215 458.591 386.622 457.517 398.263Z" fill="#444444"/>
<path d="M445.67 239.828C449.314 239.875 455.062 240.576 460.762 243.896C461.743 244.457 463.192 245.392 464.781 246.747C466.136 247.916 470.107 251.796 473.892 262.689C475.247 266.523 479.219 273.956 481.508 278.07C482.256 279.426 481.368 281.109 479.78 281.249C474.78 281.623 468.612 283.68 462.771 283.68C463.239 292.422 463.612 302.801 463.706 314.395C463.706 314.395 464.453 328.186 460.155 332.674C459.407 333.469 445.483 332.627 430.671 333.095C414.784 333.609 397.869 335.245 393.944 331.131C387.59 324.446 391.234 322.669 397.075 284.615C396.141 284.708 395.3 284.802 394.552 284.849C388.664 285.41 376.282 285.036 370.348 284.802C368.759 284.755 367.731 282.979 368.386 281.483C370.348 276.948 373.759 268.767 374.787 264.606C377.731 252.731 381.375 248.384 382.637 247.075C384.085 245.579 385.534 244.55 386.422 243.849C389.365 241.465 398.617 239.735 414.223 238.706C420.952 236.416 428.615 237.07 433.615 237.538C437.072 237.865 441.464 238.239 445.67 239.828Z" fill="#A339FF"/>
<path opacity="0.177" d="M445.81 239.828C449.501 239.969 455.015 240.717 460.435 243.896C461.416 244.457 462.865 245.392 464.454 246.747C465.809 247.916 469.78 251.796 473.565 262.736C474.92 266.569 479.172 273.956 481.462 278.07C482.209 279.426 481.321 281.109 479.733 281.249C478.284 281.342 476.649 281.67 475.06 281.903C474.453 281.997 472.724 282.184 471.976 282.371C468.285 283.166 466.136 283.68 462.725 283.68H462.678C461.93 270.216 460.856 260.772 459.687 257.079C458.893 254.555 457.725 251.656 457.725 251.656C457.164 250.02 456.277 248.337 454.454 246.046C452.024 242.961 448.987 241.044 445.81 239.828ZM434.829 244.831C433.988 249.786 432.446 251.235 432.446 251.235C428.895 249.178 416.233 242.774 417.401 239.267C417.494 239.034 417.681 238.566 418.896 237.818C423.475 235.013 429.082 236.369 431.045 236.93C431.045 236.93 440.063 235.901 441.792 241.184C443.52 246.467 441.464 250.207 441.464 250.207C439.969 249.272 437.773 247.495 434.829 244.831Z" fill="#444444"/>
<path d="M463.659 321.361L462.725 283.68L475.107 281.904L478.892 328.093C479.219 328.28 479.546 328.42 479.826 328.607C482.49 330.056 484.732 332.674 486.461 336.461C486.555 336.648 486.601 336.882 486.601 337.069C486.601 337.863 485.947 338.471 485.2 338.471L386.795 337.069C363.292 332.394 369.694 300.51 374.273 285.036C380.721 285.223 389.833 285.41 394.692 284.942C399.271 284.522 407.168 283.633 411.84 282.932L403.476 307.943C425.905 309.019 447.913 315.236 463.659 321.361ZM437.446 233.891L437.212 242.493C428.288 245.813 421.933 240.717 421.933 240.717C421.933 240.717 422.26 234.312 422.961 221.456C422.868 221.222 422.727 220.988 422.634 220.708C421.793 218.604 418.756 211.685 419.41 209.301C419.55 208.787 417.027 201.307 420.672 197.52C424.129 193.92 433.755 194.014 434.175 194.06C435.811 194.107 437.446 194.06 439.222 193.686C439.409 193.686 439.595 193.64 439.782 193.64C441.371 193.499 450.296 193.079 454.875 199.717C455.295 200.278 455.669 200.886 455.996 201.634C456.697 203.364 457.024 205.234 456.884 207.104L456.23 215.425C456.136 216.267 455.996 217.108 455.809 217.903C454.454 223.793 452.258 228.609 449.922 231.647C448.193 233.938 446.324 235.247 444.689 235.294C444.221 235.341 441.698 235.294 438.754 234.406C438.567 234.359 438.614 234.406 437.446 233.891Z" fill="#F2A98A"/>
<path d="M413.009 282.792C412.868 283.166 412.448 283.306 412.074 283.166C411.7 283.026 411.56 282.605 411.7 282.231C412.588 280.127 412.962 279.005 413.663 275.966C413.756 275.592 414.13 275.359 414.504 275.452C414.878 275.546 415.111 275.92 415.018 276.294C414.364 279.379 413.943 280.641 413.009 282.792ZM403.99 306.915C404.364 306.868 404.738 307.149 404.738 307.569C404.785 307.943 404.504 308.317 404.084 308.317C403.99 308.317 403.804 308.364 403.57 308.364C403.149 308.411 402.682 308.504 402.168 308.598C400.72 308.878 399.224 309.252 397.869 309.767C397.075 310.047 396.327 310.374 395.673 310.748C395.346 310.935 394.926 310.795 394.739 310.468C394.552 310.141 394.692 309.72 395.019 309.533C395.767 309.112 396.561 308.785 397.402 308.458C398.851 307.943 400.393 307.523 401.888 307.242C402.402 307.149 402.916 307.055 403.383 307.008C403.523 307.008 403.663 306.962 403.804 306.962C403.897 306.915 403.944 306.915 403.99 306.915Z" fill="#482D1F"/>
<path opacity="0.2" d="M478.798 328.139C474.92 326.129 469.733 323.745 463.566 321.36L462.631 283.633L475.013 281.857L478.798 328.139Z" fill="#8C2A00"/>
<path d="M437.446 233.891L437.306 238.66L430.858 230.899C430.951 230.946 431.045 230.993 431.138 231.039C432.073 231.507 433.241 232.021 434.736 232.676C436.044 233.283 436.885 233.657 437.446 233.891Z" fill="#482D1F"/>
<path d="M432.26 211.638L432.213 210.75C432.213 210.75 432.026 209.067 430.858 207.384C430.764 207.29 429.97 206.262 428.755 205.748C426.559 204.906 423.662 205.888 422.073 207.898C420.391 209.955 420.391 212.713 421.279 214.817C422.167 216.921 423.896 217.903 424.503 218.183L427.213 219.025C424.83 222.484 422.774 225.523 422.774 225.523C422.774 225.523 418.896 221.923 417.167 219.071C416.326 217.669 413.336 214.256 412.822 208.88C412.681 207.103 412.121 201.073 416.139 196.631C417.541 195.089 419.13 194.341 419.784 194.013C423.475 192.377 426.185 193.359 433.287 193.499C433.848 193.499 434.783 193.546 435.998 193.499C438.194 193.452 439.736 193.359 440.156 193.359C443.661 193.219 451.277 194.294 454.641 199.483C454.828 199.857 455.062 200.184 455.249 200.465C454.267 200.792 453.193 201.4 451.884 201.634C448.333 202.195 445.296 201.493 443.474 200.839C439.923 204.205 436.325 207.524 432.773 210.89C432.633 211.124 432.446 211.358 432.26 211.638Z" fill="#DE6903"/>
<path d="M453.566 216.874C453.707 216.313 454.267 215.892 454.828 215.986C455.202 216.033 455.482 216.313 455.622 216.968C455.762 218.604 453.987 220.661 453.473 219.679C453.146 219.025 453.426 217.669 453.566 216.874ZM443.661 215.612C443.801 215.051 444.361 214.63 444.922 214.724C445.296 214.77 445.576 215.051 445.717 215.705C445.857 217.342 444.081 219.399 443.567 218.417C443.193 217.762 443.474 216.407 443.661 215.612Z" fill="#482D1F"/>
<path d="M450.342 217.202L450.389 221.877L450.296 221.97C450.062 221.97 449.782 221.97 449.361 221.923C449.268 221.923 449.221 221.923 449.081 221.877C448.941 221.877 448.847 221.83 448.754 221.83C448.473 221.783 448.24 221.783 448.006 221.783C447.726 221.783 447.539 221.97 447.492 222.204C447.492 222.484 447.679 222.671 447.913 222.718C448.146 222.718 448.38 222.765 448.613 222.765C448.707 222.765 448.754 222.765 448.941 222.811C449.081 222.811 449.127 222.811 449.221 222.858C449.641 222.905 449.922 222.905 450.249 222.905C450.81 222.905 451.277 222.437 451.277 221.877L451.23 217.202C451.23 216.921 450.996 216.734 450.763 216.734C450.576 216.734 450.342 216.968 450.342 217.202Z" fill="#482D1F"/>
<path d="M447.072 225.383C446.744 225.243 445.95 224.869 445.903 224.401C445.903 224.308 445.857 224.167 445.95 224.121C446.184 223.887 446.744 224.121 447.586 224.354C449.081 224.728 450.296 224.822 450.296 224.822C450.296 224.822 449.828 225.57 449.548 225.757C448.987 226.271 447.539 225.617 447.072 225.383Z" fill="#482D1F"/>
<path d="M449.174 217.716C448.427 220.568 445.857 222.671 442.773 222.671C439.128 222.671 436.138 219.679 436.138 216.033C436.138 215.238 436.278 214.443 436.558 213.742L432.867 212.153C432.493 212.059 432.306 211.638 432.4 211.264C432.493 210.89 432.914 210.703 433.288 210.797L437.212 212.48C438.381 210.61 440.437 209.394 442.82 209.394C446.464 209.394 449.455 212.386 449.455 216.033C449.455 216.126 449.455 216.22 449.455 216.313L450.903 216.454C451.557 213.462 454.221 211.171 457.398 211.171C461.042 211.171 464.033 214.163 464.033 217.809C464.033 221.456 461.042 224.448 457.398 224.448C453.753 224.448 450.763 221.503 450.763 217.809L449.174 217.716ZM438.007 213.836C437.68 214.49 437.54 215.238 437.54 216.033C437.54 218.931 439.876 221.269 442.773 221.269C445.67 221.269 448.006 218.931 448.006 216.033C448.006 213.134 445.67 210.797 442.773 210.797C440.81 210.797 439.081 211.919 438.194 213.508V213.555C438.1 213.649 438.054 213.742 438.007 213.836ZM452.118 217.435C452.118 217.576 452.118 217.716 452.118 217.856C452.118 220.755 454.454 223.092 457.351 223.092C460.248 223.092 462.584 220.755 462.584 217.856C462.584 214.958 460.248 212.62 457.351 212.62C454.688 212.62 452.492 214.584 452.165 217.202C452.165 217.248 452.165 217.295 452.165 217.342C452.118 217.389 452.118 217.435 452.118 217.435Z" fill="#482D1F"/>
<path d="M214.975 511.498C214.929 511.451 214.882 511.451 214.835 511.404L167.923 476.435C166.988 475.734 166.801 474.378 167.502 473.443C168.203 472.508 169.558 472.321 170.492 473.022L216.891 507.617H242.17C243.338 507.617 244.319 508.599 244.319 509.768C244.319 510.937 243.338 511.918 242.17 511.918H216.237C215.77 511.918 215.349 511.778 214.975 511.498ZM364.357 511.918H290.11C288.942 511.918 288.008 510.983 288.008 509.815C288.008 508.646 288.942 507.711 290.11 507.711H364.357C365.525 507.711 366.46 508.646 366.46 509.815C366.46 510.983 365.525 511.918 364.357 511.918Z" fill="#1C1916"/>
<path d="M364.871 507.851C364.638 507.758 364.404 507.711 364.17 507.711H289.923C289.736 507.711 289.549 507.758 289.363 507.804C289.222 507.477 289.129 507.15 289.129 506.776L288.428 480.923C288.335 479.521 289.409 478.445 290.764 478.399L322.865 478.212C323.379 478.212 323.846 478.352 324.267 478.679C329.593 484.383 334.686 487.562 338.378 489.432C341.228 490.881 350.76 494.901 355.059 496.865C357.255 497.847 359.358 499.015 361.414 500.278C361.554 500.371 361.647 500.418 361.787 500.558C362.862 501.54 364.497 503.316 365.105 505.42C365.198 505.701 365.198 505.934 365.245 506.215C365.292 506.449 365.245 506.682 365.245 506.916V506.963C365.152 507.337 365.011 507.617 364.871 507.851ZM242.917 507.898C242.637 507.758 242.31 507.664 241.983 507.664H216.704L170.446 473.209L187.874 448.479L216.003 468.908C217.545 474.144 219.134 479.38 220.723 484.663C221.564 487.421 222.405 490.133 223.246 492.844C225.862 493.873 228.105 494.808 229.694 495.509C232.731 496.818 235.301 498.034 238.104 499.857C238.104 499.857 240.534 501.353 241.889 503.503C242.31 504.205 242.684 504.999 242.917 505.841C243.011 506.215 243.011 506.589 243.057 506.916C243.057 507.197 243.011 507.571 242.917 507.898Z" fill="#1C1916"/>
<path d="M302.072 338.195L314.828 338.008C318.66 337.775 323.472 340.159 327.07 342.87C327.818 343.431 328.472 344.039 329.079 344.694C329.64 345.301 330.201 345.956 330.668 346.657C332.724 349.602 333.799 353.109 333.752 356.708C333.658 364.516 332.724 370.593 332.117 372.603C328.145 384.899 317.959 431.041 328.192 451.003C328.192 451.003 333.378 461.054 332.257 468.581C331.836 471.62 330.154 475.126 329.64 476.201L329.687 476.248C325.762 481.905 277.261 490.18 240.02 477.931C234.927 476.248 227.498 474.331 218.994 470.545C218.62 470.404 218.246 470.217 217.919 469.984C212.172 466.29 206.424 462.644 200.677 458.951L186.239 449.694C183.482 447.918 182.688 444.365 184.463 441.793L196.145 424.683L203.154 414.445C205.116 411.546 207.172 408.554 209.275 405.515C210.256 405.562 208.48 405.469 203.855 405.282C187.781 404.627 166.801 401.542 158.858 388.779C154.839 382.281 154.138 375.455 153.811 372.323C151.989 354.044 161.101 344.647 164.091 341.655C166.1 339.691 171.1 336.512 179.137 332.118L231.469 335.203L281.933 337.073C282.027 337.027 292.54 336.232 302.072 338.195Z" fill="#8826EB"/>
<path opacity="0.2" d="M301.885 338.195L314.828 338.008C318.66 337.775 323.472 340.159 327.07 342.87C327.818 343.431 328.472 344.039 329.079 344.694C329.64 345.301 330.201 345.956 330.668 346.657C332.724 349.602 333.799 353.109 333.752 356.708C333.658 364.516 332.724 370.593 332.117 372.603C328.145 384.899 317.959 431.041 328.192 451.003C328.192 451.003 333.378 461.054 332.257 468.581C331.836 471.667 330.107 475.266 329.64 476.248C325.435 470.591 308.754 444.879 315.389 400.934C315.576 399.812 319.687 375.595 319.687 368.91C319.687 344.787 313.847 341.328 303.707 338.616C303.1 338.476 302.492 338.336 301.885 338.195Z" fill="#8C2A00"/>
<path d="M230.769 374.286C228.479 377.793 226.049 381.159 220.162 389.246C214.228 397.334 211.798 400.747 209.462 404.253C209.181 404.674 209.275 405.282 209.742 405.562C210.163 405.843 210.77 405.749 211.05 405.282C213.34 401.775 215.77 398.409 221.657 390.322C227.591 382.234 230.021 378.821 232.357 375.315C232.638 374.894 232.544 374.286 232.077 374.006C231.61 373.725 231.049 373.866 230.769 374.286Z" fill="#1C1916"/>
<path d="M207.148 246.887C210.793 246.653 215.465 247.307 219.484 251.188C223.409 254.928 221.54 258.2 227.427 268.205C230.371 273.16 233.174 276.433 232.147 279.518C231.773 280.687 230.651 281.762 228.829 282.744C224.764 283.258 222.241 283.585 221.306 283.679C221.073 283.679 220.745 283.726 220.465 283.772L219.718 296.956L219.671 297.423L218.362 320.658L218.082 325.193C218.082 325.567 218.035 325.894 217.989 326.268C217.942 326.689 217.895 327.063 217.848 327.484C217.708 328.559 217.475 329.587 217.194 330.616C217.054 331.037 216.961 331.457 216.774 331.878L169.02 331.504L163.927 283.772C160.142 283.632 156.124 283.492 151.825 283.352C149.536 282.51 148.181 281.528 147.713 280.406C146.452 277.368 150.003 273.815 153.694 268.485C161.124 257.826 158.834 254.694 163.693 250.533C170.142 245.017 176.683 244.175 181.169 244.502C181.262 244.456 181.356 244.456 181.449 244.409C183.785 243.754 186.309 243.474 188.879 243.614L199.158 244.269C202.008 244.409 204.672 245.344 207.148 246.887Z" fill="#26EB67"/>
<path opacity="0.177" d="M206.961 246.887C210.653 246.606 215.372 247.261 219.484 251.188C223.409 254.928 221.54 258.2 227.427 268.205C230.371 273.16 233.174 276.433 232.147 279.518C231.773 280.687 230.651 281.762 228.829 282.744C224.764 283.258 222.241 283.585 221.306 283.679C220.979 283.726 220.652 283.726 220.278 283.772L220.979 271.524C220.185 262.688 215.465 253.198 208.644 248.009C208.083 247.635 207.522 247.261 206.961 246.887Z" fill="#444444"/>
<path d="M218.69 310.981L219.437 297.423L219.484 296.956L220.231 283.726L227.988 282.791L230.418 312.009C235.557 312.43 240.744 312.851 245.977 313.225C251.631 313.646 257.285 314.02 262.845 314.347C263.593 313.879 269.994 313.318 277.377 314.347C279.667 314.674 282.984 315.609 287.376 317.152C295.693 319.583 301.254 321.313 304.104 322.341C308.356 323.884 304.104 326.736 298.17 326.736C296.955 326.736 279.9 327.343 274.947 328.045C275.041 328.045 275.134 327.998 275.228 327.998L278.125 328.793C279.62 329.167 281.068 329.728 282.47 330.522C283.732 331.224 284.993 331.925 286.255 332.626C286.582 332.86 286.909 333.234 287.096 333.655C287.61 335.057 287.47 337.535 286.255 337.535L213.83 335.291C215.045 335.197 216.26 335.104 217.475 335.01C206.354 335.852 195.187 336.319 182.524 336.273C175.141 336.226 173.272 335.992 171.029 334.823C161.404 329.821 159.535 315.329 157.993 302.659C157.339 297.751 156.871 291.299 157.199 283.585C172.057 284.1 183.692 284.474 192.056 284.754C192.056 285.128 192.056 285.502 192.056 285.829C192.009 290.691 191.869 295.179 192.29 301.818C192.476 304.576 192.523 306.867 192.617 308.363C201.214 309.345 209.905 310.186 218.69 310.981ZM203.317 241.697L202.663 244.175C204.859 245.017 206.728 246.513 208.83 248.102C208.55 249.318 208.036 250.159 207.429 250.767C203.737 254.46 191.916 251.328 180.468 244.315C181.402 244.035 183.972 243.006 188.505 242.913C188.879 242.913 189.299 242.913 189.766 242.913C190.841 240.669 191.916 238.612 193.037 236.087H192.99L194.159 227.579C194.112 227.065 194.252 227.485 193.785 227.298C192.617 226.878 191.589 226.083 190.794 225.054C189.439 223.184 189.159 220.566 190.093 218.229C191.168 216.032 193.738 214.442 195.981 214.816C196.822 214.956 197.57 215.33 198.27 215.891L198.317 215.938C198.551 216.172 198.878 216.265 199.158 216.312C199.953 216.359 200.653 215.845 200.747 215.05L202.055 202.895C202.102 202.1 201.635 201.773 202.429 201.82C203.597 201.913 205.466 201.913 208.13 201.82C208.363 201.82 210.185 201.82 210.372 201.82C211.494 202.007 220.045 201.539 224.39 208.552C224.764 209.253 225.138 209.907 225.418 210.609C226.119 212.338 226.353 214.255 226.119 216.172L224.997 224.634C224.857 225.475 224.67 226.317 224.437 227.158C221.446 237.49 216.166 244.409 212.148 244.362C210.092 244.269 208.036 243.895 206.12 243.147C205.933 242.96 206.074 243.053 203.317 241.697Z" fill="#DB9E75"/>
<path opacity="0.2" d="M218.456 311.215L219.25 297.47L219.297 297.003L220.045 283.726L228.035 282.697L230.278 312.15C226.306 311.916 222.381 311.589 218.456 311.215ZM275.228 328.045L277.891 328.746C279.386 329.12 280.881 329.588 282.283 330.382C283.545 331.084 285.04 331.878 286.302 332.58C286.629 332.813 286.956 333.187 287.143 333.608C287.657 335.011 287.516 337.488 286.302 337.488L213.69 335.338C223.456 334.636 233.034 333.655 243.501 332.626C246.725 332.346 273.265 328.653 274.76 328.045C274.854 328.092 275.041 328.045 275.228 328.045Z" fill="#8C2A00"/>
<path d="M186.729 309.578C186.355 309.625 185.982 309.345 185.982 308.971C185.935 308.597 186.215 308.223 186.589 308.223L192.57 307.615C192.944 307.568 193.318 307.849 193.318 308.223C193.364 308.597 193.084 308.971 192.71 308.971L186.729 309.578ZM191.869 285.082C191.495 285.035 191.215 284.661 191.308 284.287C191.355 283.913 191.729 283.632 192.103 283.726C192.103 283.726 192.149 283.726 192.243 283.726C192.85 283.772 193.551 283.726 194.205 283.445C195.373 282.978 196.121 281.903 196.215 279.939C196.355 277.415 196.261 275.451 195.981 273.908C195.934 273.534 195.841 273.254 195.794 273.02C195.747 272.88 195.747 272.786 195.701 272.786C195.56 272.412 195.747 272.038 196.121 271.898C196.495 271.758 196.869 271.945 197.009 272.319C197.102 272.553 197.196 273.02 197.336 273.721C197.616 275.358 197.71 277.415 197.57 280.033C197.429 282.51 196.355 284.053 194.673 284.754C193.785 285.128 192.85 285.222 192.056 285.128C192.009 285.081 191.916 285.082 191.869 285.082Z" fill="#482D1F"/>
<path d="M203.504 241.511L198.691 239.407L202.102 246.373L203.504 241.511Z" fill="#482D1F"/>
<path d="M201.728 223.465L200.42 218.883C199.999 217.761 199.298 216.78 198.411 215.985C197.71 215.424 196.962 215.05 196.121 214.91C193.878 214.536 191.308 216.125 190.234 218.322C189.206 220.52 189.439 223.138 190.935 225.008C191.869 226.27 193.131 227.111 194.626 227.532C193.972 231.132 193.037 236.134 193.037 236.134C193.037 236.134 191.869 235.62 189.579 234.545C184.019 231.412 181.029 225.615 180.515 217.107C171.45 220.613 162.806 218.182 159.441 212.993C156.872 209.019 157.432 203.736 157.619 202.988C159.441 195.649 165.703 194.527 165.703 194.527C165.703 194.527 174.721 189.898 184.346 204.017C184.393 204.064 184.44 204.11 184.44 204.157C185.468 203.082 186.776 202.287 188.178 201.726C192.056 200.137 194.813 201.259 202.195 201.586C203.691 201.679 205.933 201.726 208.737 201.633C208.971 201.633 209.158 201.633 209.344 201.633C211.027 201.586 220.138 201.539 224.484 208.552C224.437 208.692 224.39 208.832 224.25 209.019C224.25 209.019 215.232 224.587 201.728 223.465ZM219.577 222.062C218.643 222.156 217.101 222.203 215.886 221.688C213.783 220.894 216.026 219.912 217.989 220.099C218.923 220.146 219.577 220.66 219.998 221.081C220.278 221.455 220.045 222.016 219.577 222.062ZM227.474 223.044C226.493 223.231 225.044 223.418 223.736 222.997C221.54 222.39 223.642 221.174 225.652 221.221C226.68 221.268 227.334 221.642 227.801 222.062C228.128 222.39 227.941 222.951 227.474 223.044Z" fill="#482D1F"/>
<path d="M223.269 227.906C222.942 227.298 223.269 226.036 223.502 225.241C223.642 224.68 224.25 224.353 224.764 224.447C225.091 224.54 225.465 224.774 225.465 225.428C225.558 227.018 223.689 228.935 223.269 227.906ZM215.606 226.831C215.232 226.223 215.606 224.961 215.839 224.166C215.979 223.605 216.587 223.278 217.101 223.371C217.428 223.465 217.802 223.699 217.802 224.353C217.895 225.943 216.073 227.859 215.606 226.831Z" fill="#482D1F"/>
<path d="M223.315 224.307C223.409 224.073 223.269 223.792 222.988 223.746C222.755 223.652 222.474 223.792 222.428 224.073L221.633 226.738V226.784L220.839 231.74C220.839 231.74 220.792 231.787 220.699 231.787C220.232 231.693 219.671 231.553 219.063 231.366C218.83 231.319 218.549 231.459 218.503 231.693C218.456 231.927 218.596 232.207 218.83 232.254C219.437 232.394 219.998 232.535 220.559 232.675C221.166 232.768 221.68 232.441 221.773 231.88L222.568 226.971L223.315 224.307Z" fill="#482D1F"/>
<path d="M203.504 241.744L199.859 239.921L201.448 248.523L203.504 241.744Z" fill="#482D1F"/>
<path d="M217.428 235.9C217.101 235.807 216.307 235.526 216.213 234.965C216.213 234.872 216.166 234.732 216.213 234.638C216.353 234.404 217.848 234.638 217.848 234.638C219.717 234.965 220.231 234.919 220.325 235.199C220.372 235.339 220.325 235.526 219.904 235.9C219.39 236.602 217.895 236.087 217.428 235.9Z" fill="#482D1F"/>
<path d="M631.978 508.172H696.413C697.581 508.172 698.515 509.107 698.515 510.276C698.515 511.445 697.581 512.38 696.413 512.38H622.212H567.543C566.375 512.38 565.441 511.445 565.441 510.276C565.441 509.107 566.375 508.172 567.543 508.172H631.978Z" fill="#1C1916"/>
<path d="M568.011 508.172H567.543C567.403 508.172 567.263 508.173 567.17 508.219C567.029 507.986 566.936 507.752 566.889 507.471V507.424C566.889 507.191 566.842 506.957 566.889 506.723C566.936 506.443 566.936 506.209 567.029 505.929C567.356 504.853 568.151 503.591 569.459 502.095C570.207 501.253 571.048 500.552 572.029 500.038C574.178 498.822 575.861 497.934 577.075 497.373C581.374 495.41 590.906 491.389 593.756 489.94C597.448 488.07 602.541 484.891 607.868 479.187C608.288 478.86 608.755 478.72 609.269 478.72L636.09 478.907C637.445 478.907 638.52 480.029 638.426 481.431L640.669 494.101C643.052 493.072 645.155 492.09 647.818 490.548C650.014 489.285 653.098 487.228 656.556 484.143C658.472 482.46 660.434 480.777 662.35 479.094L691.273 478.72L697.207 508.219C697.301 508.219 697.394 508.266 697.488 508.313L697.534 508.453C697.254 508.266 696.88 508.172 696.506 508.172H696.46H631.978H621.278H568.011Z" fill="#1C1916"/>
<path opacity="0.177" d="M632.165 508.172H632.025H567.543C567.403 508.172 567.263 508.173 567.17 508.219C567.029 507.986 566.936 507.752 566.889 507.471V507.424C566.889 507.191 566.842 506.957 566.889 506.723C566.936 506.443 566.936 506.209 567.029 505.929C567.356 504.853 568.151 503.591 569.459 502.095C570.207 501.253 571.048 500.552 572.029 500.038C574.178 498.822 575.861 497.934 577.075 497.373C581.374 495.41 590.906 491.389 593.756 489.94C597.448 488.07 602.541 484.891 607.868 479.187C608.288 478.86 608.755 478.72 609.269 478.72L636.09 478.907C637.445 478.907 638.52 480.029 638.426 481.431L640.716 494.194C638.239 495.269 635.436 496.391 631.557 498.261C629.315 499.337 627.165 500.552 625.063 501.908C624.035 502.843 622.259 504.76 621.698 507.004C621.605 507.378 621.605 507.752 621.558 508.079C621.558 508.126 621.558 508.126 621.605 508.172H632.305H632.165ZM697.487 508.453C697.207 508.266 696.833 508.172 696.459 508.172H696.693C696.973 508.172 697.207 508.219 697.441 508.313L697.487 508.453Z" fill="#444444"/>
<path d="M630.202 338.563C630.997 338.423 631.791 338.376 632.492 338.423L717.953 338.096L757.109 338.002C758.698 338.096 765.38 340.153 766.922 341.883C768.417 342.677 777.996 352.588 776.407 370.961C776.127 374.047 775.519 380.919 771.594 387.464C767.482 394.289 760.567 399.292 752.11 402.143C744.634 404.668 735.896 405.556 726.831 404.574C707.674 401.115 688.563 397.702 669.405 394.243V394.944L669.499 395.271C669.499 395.271 671.835 399.666 673.844 404.2C675.853 408.688 678.657 429.913 678.657 430.053C683.236 437.346 687.862 447.21 691.413 459.646C692.815 464.648 693.562 468.575 693.843 470.071C694.404 473.297 694.871 477.177 695.198 481.712C695.198 481.759 695.198 481.852 695.198 481.899C695.198 483.442 693.936 484.704 692.394 484.704C691.927 484.704 691.6 484.704 691.32 484.704L649.781 484.657L637.024 484.61C636.604 484.704 636.137 484.797 635.669 484.797L601.56 484.657H598.803C596.093 484.657 593.803 482.507 593.663 479.795C593.336 474.325 592.915 467.126 592.401 458.804C591 437.814 590.252 431.128 589.411 414.953C589.271 412.241 589.131 409.81 589.037 407.52C588.663 396.627 587.682 386.435 585.766 373.112C584.692 365.725 584.178 361.144 584.131 357.263C584.084 353.664 585.159 350.111 587.215 347.165C588.243 345.716 589.411 344.454 590.813 343.379C594.411 340.574 596.981 338.704 605.999 338.563C613.148 338.47 621.418 338.517 630.202 338.563Z" fill="#26EB67"/>
<path opacity="0.177" d="M630.436 338.517C630.343 338.517 630.202 338.563 630.109 338.563C626.838 339.124 623.147 341.041 620.297 343.238C618.895 344.314 617.68 345.576 616.699 347.025C614.643 349.924 613.568 353.383 613.568 356.936V357.17C613.615 361.05 614.129 365.632 615.157 373.018C617.073 386.342 618.054 396.487 618.428 407.426C618.521 409.67 618.661 412.148 618.801 414.859C619.596 430.988 620.39 437.673 621.792 458.711C622.353 467.032 622.773 474.185 623.053 479.702C623.194 482.413 625.483 484.564 628.193 484.564H630.95L636.837 484.61C636.464 484.704 636.043 484.751 635.669 484.751L601.56 484.61H598.803C596.093 484.61 593.803 482.46 593.663 479.748C593.336 474.279 592.915 467.079 592.401 458.758C591 437.767 590.252 431.082 589.411 414.906C589.271 412.195 589.131 409.764 589.037 407.473C588.663 396.58 587.682 386.389 585.766 373.065C584.692 365.678 584.178 361.097 584.131 357.217C584.084 353.617 585.159 350.064 587.215 347.119C588.243 345.669 589.411 344.407 590.813 343.332C594.411 340.574 596.981 338.657 605.999 338.563C613.241 338.423 621.558 338.47 630.436 338.517Z" fill="#444444"/>
<path d="M669.172 393.214C668.611 392.653 668.003 392.045 667.349 391.438C667.162 391.251 667.162 391.251 667.022 391.11C665.247 389.334 663.798 387.885 660.948 385.08C660.574 384.706 660.013 384.706 659.64 385.08C659.266 385.454 659.266 386.015 659.64 386.389C662.443 389.194 663.938 390.69 665.714 392.419C665.901 392.606 665.901 392.606 666.041 392.747C666.695 393.354 667.256 393.962 667.863 394.523C668.237 394.897 668.844 394.897 669.172 394.523C669.545 394.149 669.545 393.541 669.172 393.214Z" fill="#1C1916"/>
<path d="M730.516 241.533C733.273 240.598 736.264 240.177 739.394 240.318C751.777 240.925 761.309 250.79 760.701 262.337C760.421 267.994 757.711 272.996 753.599 276.549L763.925 314.37C765.514 320.354 764.953 326.431 762.617 331.667C762.29 332.415 761.916 333.163 761.542 333.864C761.122 334.612 760.654 335.36 760.187 336.062C759.673 336.81 759.112 337.558 758.505 338.259H707.621C707.2 337.558 706.78 336.856 706.406 336.062C706.032 335.36 705.705 334.612 705.425 333.864C705.144 333.163 704.911 332.415 704.677 331.667C704.63 331.527 704.584 331.387 704.537 331.246L691.313 285.151L681.641 286.226C680.8 286.32 680.006 285.759 679.912 284.964L679.492 281.691C679.492 281.551 679.492 281.411 679.492 281.271C677.903 280.289 676.455 279.167 675.24 277.811C673.464 275.894 672.109 273.65 671.315 271.079C668.138 260.888 675.193 249.995 687.061 246.816C691.827 245.554 696.687 245.694 700.939 247.003C702.761 245.741 704.724 244.759 706.873 244.151L717.106 241.112C721.872 240.411 726.404 240.551 730.516 241.533Z" fill="#EB920E"/>
<path opacity="0.177" d="M691.267 285.151L681.688 286.226C680.847 286.32 680.053 285.759 679.959 284.964L679.539 281.692C679.539 281.551 679.539 281.411 679.539 281.271C677.95 280.289 676.501 279.167 675.287 277.811C673.511 275.894 672.156 273.65 671.362 271.079C668.184 260.888 675.24 249.995 687.108 246.816C691.921 245.507 696.78 245.694 701.079 247.003C691.407 253.641 686.594 268.508 689.818 280.055L691.267 285.151Z" fill="#444444"/>
<path d="M683.136 248.873C683.136 248.873 682.249 252.426 686.968 251.444C691.687 250.463 693.042 249.995 693.042 249.995L691.827 246.769L683.136 248.873Z" fill="#482D1F"/>
<path d="M699.397 239.57C699.257 239.616 699.07 239.663 698.93 239.663L699.397 239.616V239.57ZM711.919 232.043L713.088 231.575L718.741 241.346L709.443 244.245L718.554 287.675C718.554 287.675 719.349 284.543 720.33 278.886C720.377 278.886 720.424 278.933 720.47 278.933L746.31 284.683C746.403 284.73 746.543 284.73 746.637 284.73C745.749 288.33 744.768 292.678 743.74 297.166C741.076 308.76 740.656 314.136 736.404 321.803C731.544 330.545 727.059 330.779 725.283 331.433C721.311 332.976 717.34 332.742 714.863 332.135C711.873 331.433 706.453 330.265 701.827 321.85L704.537 331.293C704.584 331.433 704.63 331.574 704.677 331.714C704.911 332.462 705.144 333.21 705.425 333.911C705.705 334.659 706.032 335.407 706.406 336.108C706.78 336.903 707.2 337.604 707.621 338.306H713.602L636.037 338.399C635.803 338.399 635.616 338.306 635.476 338.212C622.627 330.405 616.272 324.468 616.366 320.354C620.244 319.746 625.804 318.951 633 317.923C637.486 317.268 642.018 317.315 646.504 317.969L660.568 320.073C671.128 316.707 685.146 312.266 688.697 311.471L682.716 286.086L691.313 285.151L695.379 299.269C692.996 282.58 693.603 265.142 691.5 248.405L686.594 248.499C683.697 249.668 677.623 251.631 676.969 247.47C676.969 247.47 685.005 244.151 690.659 241.72L691.08 241.346C691.454 241.019 691.781 240.832 692.248 240.692C692.341 240.645 692.435 240.645 692.528 240.645L694.771 240.318L695.098 240.271C694.351 240.318 693.837 240.271 693.65 240.271C689.725 239.99 685.192 232.838 683.136 222.506C682.95 221.664 682.903 220.823 682.809 219.981L682.436 211.613C682.342 209.743 682.716 207.873 683.604 206.237C683.978 205.536 684.351 204.881 684.772 204.367C689.491 197.915 698.322 198.617 699.911 198.804C700.098 198.804 700.285 198.85 700.472 198.85C702.247 199.271 703.836 199.411 705.471 199.365C706.219 199.365 706.826 199.972 706.873 200.72L707.107 212.688C707.153 213.81 712.807 211.66 712.807 211.613C715.517 209.556 718.928 220.636 717.527 222.272C716.499 223.394 713.602 224.984 712.807 225.264C712.293 225.451 711.919 225.872 711.826 226.339C712.153 228.677 712.2 230.594 711.919 232.043Z" fill="#DB9E75"/>
<path opacity="0.2" d="M682.716 286.133L691.313 285.198L704.537 331.34C704.584 331.48 704.63 331.62 704.677 331.761C704.911 332.509 705.144 333.257 705.425 333.958C705.705 334.706 706.032 335.454 706.406 336.155C706.78 336.95 707.2 337.651 707.621 338.352H713.602L636.037 338.446C635.803 338.446 635.617 338.352 635.476 338.259C622.627 330.452 616.272 324.514 616.366 320.4C620.244 319.793 625.804 318.998 633 317.969C637.486 317.315 642.018 317.362 646.504 318.016L660.568 320.12C671.128 316.754 685.146 312.313 688.697 311.518L682.716 286.133Z" fill="#8C2A00"/>
<path d="M614.263 326.758C619.262 320.587 629.589 315.585 646.877 327.086C649.494 328.769 648.606 334.332 645.709 334.425L615.851 334.94C613.609 334.986 612.581 328.862 614.263 326.758Z" fill="#1C1916"/>
<path d="M726.264 210.024C732.245 213.951 737.992 219.748 736.964 223.581C736.17 226.667 733.18 228.303 730.142 229.986C727.713 231.342 723.18 233.399 716.639 233.866C715.097 234.1 713.602 234.334 712.06 234.567C711.265 234.661 710.518 234.1 710.471 233.305C710.705 231.622 710.938 229.939 711.172 228.256C711.359 227.415 711.592 226.34 711.733 225.218C712.48 225.031 714.162 224.563 715.424 223.067C716.826 221.431 717.573 218.953 716.639 216.569C715.798 214.278 713.461 212.502 711.219 212.689C709.957 212.782 708.976 213.483 708.836 213.577C707.808 214.325 706.967 215.4 706.499 216.008C704.303 215.166 700.892 213.343 698.089 209.743C697.435 208.949 696.687 207.733 695.799 206.144C691.127 207.219 687.248 206.938 684.071 205.349C684.772 204.04 685.847 202.824 687.295 201.796C689.491 200.206 689.725 200.019 692.482 199.225C694.21 198.757 697.481 198.57 699.864 198.804H699.958C702.621 199.084 704.817 199.178 706.266 199.178C713.368 199.318 716.125 198.383 719.723 200.16C720.377 200.487 721.919 201.328 723.274 202.918C725.19 205.162 725.984 207.733 726.264 210.024ZM683.931 226.106C685.706 232.417 687.575 234.754 687.342 234.754C687.108 234.754 686.501 235.082 681.688 233.726C679.305 233.071 677.062 232.417 676.034 230.5C674.586 227.789 678.884 222.179 682.716 218.439C682.716 221.197 683.183 223.301 683.931 226.106ZM681.127 216.849C680.66 216.756 680.473 216.195 680.8 215.868C681.221 215.494 681.922 215.026 682.856 214.979C684.772 214.886 686.875 216.008 684.819 216.662C683.51 217.13 682.015 216.99 681.127 216.849ZM690.192 216.849C689.725 216.756 689.538 216.195 689.912 215.868C690.332 215.494 691.033 215.026 692.014 214.979C693.93 214.886 696.033 216.055 693.977 216.662C692.575 217.13 691.127 216.99 690.192 216.849Z" fill="#482D1F"/>
<path d="M684.632 220.449C684.725 221.244 684.819 222.553 684.398 223.114C683.791 223.955 682.342 221.805 682.669 220.309C682.809 219.654 683.136 219.467 683.51 219.467C684.071 219.467 684.538 219.888 684.632 220.449ZM692.949 220.169C693.089 220.963 693.183 222.272 692.715 222.833C692.108 223.675 690.659 221.524 690.986 220.028C691.127 219.374 691.454 219.187 691.827 219.187C692.388 219.187 692.855 219.608 692.949 220.169Z" fill="#482D1F"/>
<path d="M718.041 287.909C717.947 287.535 718.134 287.161 718.508 287.021C718.882 286.881 719.255 287.114 719.396 287.488L724.021 303.15C724.115 303.524 723.928 303.898 723.554 304.038C723.18 304.131 722.807 303.944 722.666 303.57L718.041 287.909ZM749.674 279.821C749.674 279.915 749.674 280.008 749.674 280.055L748.879 283.561C748.599 284.777 747.384 285.525 746.169 285.244C745.795 285.151 745.562 284.777 745.655 284.403C745.749 284.029 746.123 283.795 746.496 283.889C746.964 283.982 747.431 283.702 747.524 283.234L748.225 280.242C748.085 280.195 747.992 280.055 747.945 279.915C747.758 279.588 747.898 279.167 748.272 278.98C750.281 277.998 752.103 276.689 753.692 275.146C753.972 274.866 754.393 274.866 754.673 275.146C754.954 275.427 754.954 275.848 754.673 276.128C753.131 277.624 751.496 278.84 749.674 279.821ZM720.797 273.604C720.797 273.65 720.797 273.65 720.797 273.697L720.003 277.203C719.91 277.671 720.19 278.138 720.657 278.232C721.031 278.325 721.265 278.699 721.171 279.073C721.078 279.447 720.704 279.681 720.33 279.588C719.115 279.307 718.368 278.092 718.648 276.876L719.442 273.37C719.489 273.23 719.536 273.136 719.629 273.043C719.068 272.388 718.648 271.78 718.321 271.219C717.994 270.705 717.76 270.144 717.48 269.443C717.293 268.975 717.153 268.648 716.779 267.526C716.639 267.152 716.826 266.778 717.199 266.638C717.573 266.498 717.947 266.685 718.087 267.059C718.508 268.181 718.601 268.508 718.788 268.929C719.022 269.536 719.255 270.051 719.536 270.518C719.91 271.126 720.377 271.78 721.031 272.528C721.265 272.809 721.265 273.276 720.938 273.51C720.891 273.557 720.844 273.557 720.797 273.604ZM702.668 238.775C700.939 239.57 699.771 240.972 697.061 241.253C694.911 241.767 693.089 241.159 692.155 240.692C692.248 240.645 692.341 240.645 692.435 240.645L694.678 240.318C695.752 240.318 697.481 240.131 699.49 239.57L702.668 238.775Z" fill="#482D1F"/>
<path d="M690.566 229.612C690.893 229.518 691.687 229.238 691.827 228.724C691.827 228.63 691.874 228.49 691.827 228.396C691.64 228.116 691.033 228.256 690.192 228.35C688.697 228.49 687.482 228.35 687.482 228.35C687.482 228.35 687.856 229.285 688.089 229.518C688.603 230.266 690.099 229.799 690.566 229.612Z" fill="#482D1F"/>
<path d="M687.061 220.823V220.776V220.823ZM686.501 225.732V225.779C686.501 226.293 686.828 226.76 687.342 226.854C687.435 226.854 687.482 226.854 687.529 226.854C688.043 226.901 688.37 226.901 689.631 226.901C689.912 226.901 690.099 226.714 690.099 226.433C690.099 226.153 689.912 225.966 689.631 225.966C688.37 225.966 688.043 225.966 687.575 225.919C687.529 225.919 687.482 225.919 687.435 225.919C687.435 225.919 687.389 225.872 687.389 225.779L687.949 220.823V220.776L687.856 218.018C687.856 217.738 687.622 217.551 687.389 217.551C687.155 217.551 686.921 217.784 686.921 218.018L687.015 220.73L686.501 225.732Z" fill="#482D1F"/>
<path d="M166.871 331.925H763.558C765.38 331.925 766.828 333.374 766.828 335.198C766.828 337.021 765.38 338.47 763.558 338.47H166.871C165.049 338.47 163.6 337.021 163.6 335.198C163.6 333.374 165.049 331.925 166.871 331.925Z" fill="#D8DEED"/>
<path d="M538.013 324.912L542.498 306.773H508.763C505.258 306.773 502.361 304.109 502.361 300.883V249.505C502.314 246.232 505.165 243.568 508.716 243.568H611.372C614.876 243.568 617.773 246.232 617.773 249.458V300.883C617.773 304.109 614.876 306.773 611.372 306.773H570.253L568.384 324.912H580.533C582.402 324.912 583.851 326.409 583.851 328.232C583.851 330.102 582.355 331.551 580.533 331.551H528.481C526.612 331.551 525.163 330.055 525.163 328.232C525.07 326.409 526.612 324.912 528.481 324.912H538.013Z" fill="#1C1916"/>
<path fill-rule="evenodd" clip-rule="evenodd" d="M571.655 293.543L571.795 324.959H568.431L571.655 293.543Z" fill="white"/>
</svg>
