<?xml version="1.0" encoding="utf-8"?>
<!-- Generator: Adobe Illustrator 24.0.1, SVG Export Plug-In . SVG Version: 6.00 Build 0)  -->
<svg version="1.1" id="Camada_1" xmlns="http://www.w3.org/2000/svg" xmlns:xlink="http://www.w3.org/1999/xlink" x="0px" y="0px"
	 viewBox="0 0 2171.5 1474.1" style="enable-background:new 0 0 2171.5 1474.1;" xml:space="preserve">
<style type="text/css">
	.st0{fill:#FFFFFF;}
	.st1{fill:#D8DEED;}
	.st2{fill:#1C1916;}
	.st3{fill:#EB920E;}
	.st4{opacity:0.177;fill:#444444;enable-background:new    ;}
	.st5{fill:#A339FF;}
	.st6{fill:#F2A98A;}
	.st7{fill:#482D1F;}
	.st8{opacity:0.2;fill:#8C2A00;enable-background:new    ;}
	.st9{fill:#DE6903;}
	.st10{fill:#8826EB;}
	.st11{fill:#26EB67;}
	.st12{fill:#DB9E75;}
	.st13{fill-rule:evenodd;clip-rule:evenodd;fill:#FFFFFF;}
</style>
<title>Data analyse</title>
<desc>Created with Sketch.</desc>
<path class="st0" d="M990.3,1144.3c0,0-106.2-16.3-419.4-40c-313.2-23.7-344.5-242.9-255.8-368.1s-41.7-266.2,57.4-394
	s257.2,75.7,534.3,52.2c277.2-23.5,506.5-184.8,754.8-4.7s-3.2,352.7,198.2,524.4c56.2,47.9,71.5,373.5-286.5,328.8
	S990.3,1144.3,990.3,1144.3z"/>
<g id="Data-analyse">
	<g id="Group" transform="translate(137.000000, 339.000000)">
		<g id="Interior-_x2F_-Chair-_x2F_-Chair-1" transform="translate(1115.000000, 241.000000)">
			<g id="Chair-">
				<path id="Combined-Shape" class="st1" d="M519.3,293.6v0.2c0,2.4-2.1,4.4-4.5,4.4h-75.5l26.6,48.8c19,34.8,37.9,69.5,56.8,104.3
					l31.3,57.4c1.1,2,0.2,4.6-1.9,5.8l-0.4,0.2c-2.1,1.2-4.8,0.5-5.8-1.4L428.8,298.2h-78L233.7,513.3c-1,1.9-3.7,2.5-5.8,1.4
					l-0.4-0.2c-2.1-1.2-3-3.8-1.9-5.8l31.3-57.4c19-34.8,37.9-69.5,56.8-104.3l26.6-48.8H240.2c-2.5,0-4.5-2-4.5-4.4v-0.5
					c0-2.4,2.1-4.4,4.5-4.4h68c44.3,0,88.7,0,133.1,0h69.2l8.4-68.2c5.8-46.4,11.5-92.9,17.3-139.4l9.5-76.8
					c0.3-2.7,2.6-4.7,5.1-4.4l0.5,0.1c2.4,0.3,4.1,2.8,3.8,5.3l-35.7,287.6C519.4,293.3,519.3,293.4,519.3,293.6z"/>
			</g>
		</g>
		
			<g id="Active-objects-_x2F_-Devices-_x2F_-Laptop" transform="translate(390.000000, 239.000000) scale(-1, 1) translate(-390.000000, -239.000000) translate(213.000000, 106.000000)">
			
				<g id="Laptop-2" transform="translate(177.000000, 192.500000) scale(-1, 1) translate(-177.000000, -192.500000) translate(74.000000, 119.000000)">
				<path id="Laptop" class="st2" d="M379.1,143.5c-1,1.8-2.9,3-5.1,3H230.3c-3.2,0-5.7-2.6-5.7-5.8s2.6-5.8,5.7-5.8h139.8
					L418.8,3.8c1.1-3,4.4-4.5,7.4-3.4s4.5,4.4,3.4,7.4l-50.1,134.8C379.4,142.9,379.2,143.2,379.1,143.5z"/>
			</g>
		</g>
		
			<g id="Interior-_x2F_-Chair-_x2F_-Chair-1_1_" transform="translate(165.500000, 498.000000) scale(-1, 1) translate(-165.500000, -498.000000) translate(0.000000, 240.000000)">
			<g id="Chair-_1_">
				<path id="Combined-Shape_1_" class="st1" d="M70.1,293.6v0.2c0,2.4-2.1,4.4-4.5,4.4H-9.9L16.7,347c19,34.8,37.9,69.5,56.8,104.3
					l31.3,57.4c1.1,2,0.2,4.6-1.9,5.8l-0.4,0.2c-2.1,1.2-4.8,0.5-5.8-1.4L-20.4,298.2h-78l-117.1,215.1c-1,1.9-3.7,2.5-5.8,1.4
					l-0.4-0.2c-2.1-1.2-3-3.8-1.9-5.8l31.3-57.4c19-34.8,37.9-69.5,56.8-104.3l26.6-48.8H-209c-2.5,0-4.5-2-4.5-4.4v-0.5
					c0-2.4,2.1-4.4,4.5-4.4h68c44.3,0,88.7,0,133.1,0h69.2l8.4-68.2c5.8-46.4,11.5-92.9,17.3-139.4l9.5-76.8
					c0.3-2.7,2.6-4.7,5.1-4.4l0.5,0.1c2.4,0.3,4.1,2.8,3.8,5.3L70.2,293.1C70.2,293.3,70.1,293.4,70.1,293.6z"/>
			</g>
		</g>
		<g id="Interior-_x2F_-Chair-_x2F_--Chair-2" transform="translate(527.000000, 236.000000)">
			<g id="Chair-_2_" transform="translate(0.000000, 4.000000)">
				<path id="Combined-Shape_2_" class="st1" d="M340,298.8h-79.1c-2.4,0-4.5-2-4.5-4.4v-0.5c0-2.4,2.1-4.4,4.7-4.4h73.3
					c44.4,0,88.8,0,133.1,0h68c2.4,0,4.5,2,4.5,4.4v0.5c0,2.4-2,4.4-4.5,4.4H439l26.6,48.8c18.9,34.8,37.8,69.5,56.8,104.3
					l31.3,57.4c1.1,2,0.2,4.6-1.9,5.8l-0.4,0.2c-2.1,1.1-4.8,0.5-5.8-1.4L428.5,298.8h-78L233.4,513.9c-1,1.9-3.7,2.6-5.8,1.4
					l-0.4-0.2c-2.1-1.2-3-3.8-1.9-5.8l31.3-57.4c18.9-34.8,37.8-69.5,56.8-104.3L340,298.8z M256.7,259.6v-58.1
					c0-44.3,0-88.6,0-132.8V15.8c0-8.3,6.7-15,15-15h163.2c8.3,0,15,6.7,15,15v244c0,8.3-6.7,15-15,15l0,0l-163.2-0.2
					C263.4,274.6,256.7,267.9,256.7,259.6z"/>
			</g>
		</g>
		<g id="Characters-sitting-_x2F_-Man-sitting-_x2F_-1" transform="translate(446.000000, 0.000000)">
			<g id="Man-" transform="translate(80.000000, 74.000000)">
				<g id="Legs" transform="translate(36.525879, 307.000000)">
					<path id="Base" class="st2" d="M542.8,375H383.9c-2.5,0-4.5-2-4.5-4.5s2-4.5,4.5-4.5h158.9c2.5,0,4.5,2,4.5,4.5
						S545.3,375,542.8,375z M251.6,375c-2.5,0-4.5-1.7-4.5-3.8v-1.4c0-2.1,2.1-3.8,4.5-3.8h102.5c2.5,0,4.5,1.7,4.5,3.8v1.4
						c0,2.1-2.1,3.8-4.5,3.8H251.6z"/>
					<path id="Shoes" class="st2" d="M544.3,366.3c-0.5-0.2-1-0.3-1.6-0.3H383.9c-0.7,0-1.4,0.2-2,0.5c-0.1-0.4-0.2-0.9-0.2-1.4
						l3.5-55.3c-0.2-3,2.1-5.3,5-5.4l63.7-0.4c1.1,0,2.1,0.3,3,1c11.4,12.2,22.3,19,30.2,23c6.1,3.1,26.5,11.7,35.7,15.9
						c4.7,2.1,9.2,4.6,13.6,7.3c0.3,0.2,0.5,0.3,0.8,0.6c2.3,2.1,5.8,5.9,7.1,10.4c0.2,0.6,0.2,1.1,0.3,1.7c0.1,0.5,0,1,0,1.5v0.1
						C544.5,365.8,544.4,366,544.3,366.3z M354.7,366c-0.2,0-0.4,0-0.6,0H251.6l0,0l23.2-61.9l71.6,9.7L354.7,366z"/>
					<path class="st3" d="M380.1,131.5c-3.5,2.5-6.5,4.7-9,6.6l-1.3,21.2c-0.6,11.2-1.3,21.1-2.1,29.8c-0.6,6.8-8.3,84.3-11.1,112.7
						c-0.6,6.4-4.9,11.9-10.8,13.7c-8.9,2.7-75.7-0.4-78.2-1.6c-3.2-1.5-4.9-2.1-6.6-3.8c-6-5.7-5.6-14.6-5.7-18
						c-0.6-25.1-2.4-100.6-2.4-153.4c0-0.2,0-0.3,0-0.5c-6.6-5.7-12.4-14.2-17-24.7c-6.9-16-11.2-36.8-11.3-59.3
						c0-0.3,0-13.8,0-40.7c0-0.1,0-0.1,0-0.2C224.7,5.8,231.8,0,240.1,0h92.3c12.8,0.4,25.5,0.8,38.3,1.3c20,0.5,48.3,1.3,85.2,2.3
						c14.4,0.4,27.4,8.7,33.8,21.6c3.1,6.1,4.9,11.2,5.6,15.1c4,7,6.1,15.2,5.9,23.9c0,0.2,0,0.3,0,0.5
						c-1.6,80.2-20.3,194.4-21.6,233c-0.1,1.5-0.5,4.7-2.6,8.1c-6.5,10.4-21.7,8.1-57.2,9c-30.2,0.8-42.4,3.1-48.6-5.5
						c-3.4-4.7-3.3-10-3.2-12.5C370.9,241.3,375.1,185.2,380.1,131.5z"/>
					<path id="Shadow-Legs" class="st4" d="M380.1,131.9c-3.5,2.5-6.5,4.7-9,6.5l3.8-63.4c0.1-4.4,0.6-31-19.3-47.8
						c-14.5-12.2-32.1-13-43.8-13.5c-18-0.8-32,4.3-34.7,5.3c-3.4,1.3-5.1,2-6.8,2.8c-19.4,10.2-17.9,59-17.7,67.9
						c0.2,11.1,0.3,28.2,0.3,48.1c-6.4-5.7-12.1-14-16.5-24.3c-7-16-11.2-36.8-11.3-59.3c0-0.3,0-13.8,0-40.7c0-0.1,0-0.1,0-0.2
						C225.2,5.8,232.2,0,240.6,0h92.3c12.8,0.4,25.5,0.8,38.3,1.3c20,0.5,48.3,1.3,85.2,2.3c14.4,0.4,27.4,8.7,33.8,21.6
						c3.4,6.8,5.3,12.2,5.7,16.3c-7.6-14.4-22.6-24.2-39.9-23.8c-8.4,0.2-16.7,0.4-25.1,0.6c-22.5,0.6-41.2,18-43.6,40.9
						C384.8,82.6,382.4,107,380.1,131.9z"/>
				</g>
				<g id="Body" transform="translate(0.872044, 0.002112)">
					<path id="T-shirt" class="st5" d="M390.4,100c7.8,0.1,20.1,1.6,32.3,8.7c2.1,1.2,5.2,3.2,8.6,6.1c2.9,2.5,11.4,10.8,19.5,34.1
						c2.9,8.2,11.4,24.1,16.3,32.9c1.6,2.9-0.3,6.5-3.7,6.8c-10.7,0.8-23.9,5.2-36.4,5.2c1,18.7,1.8,40.9,2,65.7
						c0,0,1.6,29.5-7.6,39.1c-1.6,1.7-31.4-0.1-63.1,0.9c-34,1.1-70.2,4.6-78.6-4.2c-13.6-14.3-5.8-18.1,6.7-99.5
						c-2,0.2-3.8,0.4-5.4,0.5c-12.6,1.2-39.1,0.4-51.8-0.1c-3.4-0.1-5.6-3.9-4.2-7.1c4.2-9.7,11.5-27.2,13.7-36.1
						c6.3-25.4,14.1-34.7,16.8-37.5c3.1-3.2,6.2-5.4,8.1-6.9c6.3-5.1,26.1-8.8,59.5-11c14.4-4.9,30.8-3.5,41.5-2.5
						C372,95.8,381.4,96.6,390.4,100z"/>
					<path id="T-shirt-shadow" class="st4" d="M390.7,100c7.9,0.3,19.7,1.9,31.3,8.7c2.1,1.2,5.2,3.2,8.6,6.1
						c2.9,2.5,11.4,10.8,19.5,34.2c2.9,8.2,12,24,16.9,32.8c1.6,2.9-0.3,6.5-3.7,6.8c-3.1,0.2-6.6,0.9-10,1.4c-1.3,0.2-5,0.6-6.6,1
						c-7.9,1.7-12.5,2.8-19.8,2.8h-0.1c-1.6-28.8-3.9-49-6.4-56.9c-1.7-5.4-4.2-11.6-4.2-11.6c-1.2-3.5-3.1-7.1-7-12
						C404,106.7,397.5,102.6,390.7,100z M367.2,110.7c-1.8,10.6-5.1,13.7-5.1,13.7c-7.6-4.4-34.7-18.1-32.2-25.6
						c0.2-0.5,0.6-1.5,3.2-3.1c9.8-6,21.8-3.1,26-1.9c0,0,19.3-2.2,23,9.1c3.7,11.3-0.7,19.3-0.7,19.3
						C378.2,120.2,373.5,116.4,367.2,110.7z"/>
					<path id="Skin" class="st6" d="M428.9,274.4l-2-80.6l26.5-3.8l8.1,98.8c0.7,0.4,1.4,0.7,2,1.1c5.7,3.1,10.5,8.7,14.2,16.8
						c0.2,0.4,0.3,0.9,0.3,1.3c0,1.7-1.4,3-3,3l-210.6-3c-50.3-10-36.6-78.2-26.8-111.3c13.8,0.4,33.3,0.8,43.7-0.2
						c9.8-0.9,26.7-2.8,36.7-4.3l-17.9,53.5C348.1,248,395.2,261.3,428.9,274.4z M372.8,87.3l-0.5,18.4c-19.1,7.1-32.7-3.8-32.7-3.8
						s0.7-13.7,2.2-41.2c-0.2-0.5-0.5-1-0.7-1.6c-1.8-4.5-8.3-19.3-6.9-24.4c0.3-1.1-5.1-17.1,2.7-25.2c7.4-7.7,28-7.5,28.9-7.4
						c3.5,0.1,7,0,10.8-0.8c0.4,0,0.8-0.1,1.2-0.1c3.4-0.3,22.5-1.2,32.3,13c0.9,1.2,1.7,2.5,2.4,4.1c1.5,3.7,2.2,7.7,1.9,11.7
						L413,47.8c-0.2,1.8-0.5,3.6-0.9,5.3c-2.9,12.6-7.6,22.9-12.6,29.4c-3.7,4.9-7.7,7.7-11.2,7.8c-1,0.1-6.4,0-12.7-1.9
						C375.2,88.3,375.3,88.4,372.8,87.3z"/>
					<path id="Combined-Shape_3_" class="st7" d="M320.5,191.9c-0.3,0.8-1.2,1.1-2,0.8c-0.8-0.3-1.1-1.2-0.8-2
						c1.9-4.5,2.7-6.9,4.2-13.4c0.2-0.8,1-1.3,1.8-1.1c0.8,0.2,1.3,1,1.1,1.8C323.4,184.6,322.5,187.3,320.5,191.9z M301.2,243.5
						c0.8-0.1,1.6,0.5,1.6,1.4c0.1,0.8-0.5,1.6-1.4,1.6c-0.2,0-0.6,0.1-1.1,0.1c-0.9,0.1-1.9,0.3-3,0.5c-3.1,0.6-6.3,1.4-9.2,2.5
						c-1.7,0.6-3.3,1.3-4.7,2.1c-0.7,0.4-1.6,0.1-2-0.6c-0.4-0.7-0.1-1.6,0.6-2c1.6-0.9,3.3-1.6,5.1-2.3c3.1-1.1,6.4-2,9.6-2.6
						c1.1-0.2,2.2-0.4,3.2-0.5c0.3,0,0.6-0.1,0.9-0.1C301,243.5,301.1,243.5,301.2,243.5z"/>
					<path id="Arm-Shadow" class="st8" d="M461.3,288.9c-8.3-4.3-19.4-9.4-32.6-14.5l-2-80.7l26.5-3.8L461.3,288.9z"/>
					<path id="Shadow" class="st7" d="M372.8,87.3l-0.3,10.2l-13.8-16.6c0.2,0.1,0.4,0.2,0.6,0.3c2,1,4.5,2.1,7.7,3.5
						C369.8,86,371.6,86.8,372.8,87.3z"/>
					<path id="Hair" class="st9" d="M361.7,39.7l-0.1-1.9c0,0-0.4-3.6-2.9-7.2c-0.2-0.2-1.9-2.4-4.5-3.5c-4.7-1.8-10.9,0.3-14.3,4.6
						c-3.6,4.4-3.6,10.3-1.7,14.8c1.9,4.5,5.6,6.6,6.9,7.2l5.8,1.8l0,0c-5.1,7.4-9.5,13.9-9.5,13.9s-8.3-7.7-12-13.8
						c-1.8-3-8.2-10.3-9.3-21.8c-0.3-3.8-1.5-16.7,7.1-26.2c3-3.3,6.4-4.9,7.8-5.6c7.9-3.5,13.7-1.4,28.9-1.1c1.2,0,3.2,0.1,5.8,0
						c4.7-0.1,8-0.3,8.9-0.3c7.5-0.3,23.8,2,31,13.1c0.4,0.8,0.9,1.5,1.3,2.1c-2.1,0.7-4.4,2-7.2,2.5c-7.6,1.2-14.1-0.3-18-1.7
						c-7.6,7.2-15.3,14.3-22.9,21.5C362.5,38.6,362.1,39.1,361.7,39.7z"/>
					<path id="Eyes" class="st7" d="M407.3,50.9c0.3-1.2,1.5-2.1,2.7-1.9c0.8,0.1,1.4,0.7,1.7,2.1c0.3,3.5-3.5,7.9-4.6,5.8
						C406.4,55.5,407,52.6,407.3,50.9z M386.1,48.2c0.3-1.2,1.5-2.1,2.7-1.9c0.8,0.1,1.4,0.7,1.7,2.1c0.3,3.5-3.5,7.9-4.6,5.8
						C385.1,52.8,385.7,49.9,386.1,48.2z"/>
					<path id="Nose" class="st7" d="M400.4,51.6l0.1,10l-0.2,0.2c-0.5,0-1.1,0-2-0.1c-0.2,0-0.3,0-0.6-0.1c-0.3,0-0.5-0.1-0.7-0.1
						c-0.6-0.1-1.1-0.1-1.6-0.1c-0.6,0-1,0.4-1.1,0.9c0,0.6,0.4,1,0.9,1.1c0.5,0,1,0.1,1.5,0.1c0.2,0,0.3,0,0.7,0.1
						c0.3,0,0.4,0,0.6,0.1c0.9,0.1,1.5,0.1,2.2,0.1c1.2,0,2.2-1,2.2-2.2l-0.1-10c0-0.6-0.5-1-1-1C400.9,50.6,400.4,51.1,400.4,51.6z
						"/>
					<path id="Mouth" class="st7" d="M393.4,69.1c-0.7-0.3-2.4-1.1-2.5-2.1c0-0.2-0.1-0.5,0.1-0.6c0.5-0.5,1.7,0,3.5,0.5
						c3.2,0.8,5.8,1,5.8,1s-1,1.6-1.6,2C397.5,71,394.4,69.6,393.4,69.1z"/>
					<path id="Glasses" class="st7" d="M397.9,52.7c-1.6,6.1-7.1,10.6-13.7,10.6c-7.8,0-14.2-6.4-14.2-14.2c0-1.7,0.3-3.4,0.9-4.9
						l-7.9-3.4c-0.8-0.2-1.2-1.1-1-1.9c0.2-0.8,1.1-1.2,1.9-1l8.4,3.6c2.5-4,6.9-6.6,12-6.6c7.8,0,14.2,6.4,14.2,14.2
						c0,0.2,0,0.4,0,0.6l3.1,0.3c1.4-6.4,7.1-11.3,13.9-11.3c7.8,0,14.2,6.4,14.2,14.2s-6.4,14.2-14.2,14.2
						c-7.8,0-14.2-6.3-14.2-14.2L397.9,52.7z M374,44.4c-0.7,1.4-1,3-1,4.7c0,6.2,5,11.2,11.2,11.2c6.2,0,11.2-5,11.2-11.2
						s-5-11.2-11.2-11.2c-4.2,0-7.9,2.4-9.8,5.8v0.1C374.2,44,374.1,44.2,374,44.4z M404.2,52.1c0,0.3,0,0.6,0,0.9
						c0,6.2,5,11.2,11.2,11.2c6.2,0,11.2-5,11.2-11.2s-5-11.2-11.2-11.2c-5.7,0-10.4,4.2-11.1,9.8c0,0.1,0,0.2,0,0.3
						C404.2,52,404.2,52.1,404.2,52.1z"/>
				</g>
			</g>
		</g>
		<g id="Characters-sitting-_x2F_-Woman-sitting_x2F_-3" transform="translate(28.000000, 0.000000)">
			<g id="Woman" transform="translate(26.000000, 75.000000)">
				<g id="Legs_1_" transform="translate(12.650995, 296.212736)">
					<path id="Base_1_" class="st2" d="M356.9,383.9c-0.1-0.1-0.2-0.1-0.3-0.2l-100.4-74.8c-2-1.5-2.4-4.4-0.9-6.4s4.4-2.4,6.4-0.9
						l99.3,74h54.1c2.5,0,4.6,2.1,4.6,4.6s-2.1,4.6-4.6,4.6h-55.5C358.6,384.8,357.7,384.5,356.9,383.9z M676.6,384.8H517.7
						c-2.5,0-4.5-2-4.5-4.5s2-4.5,4.5-4.5h158.9c2.5,0,4.5,2,4.5,4.5S679.1,384.8,676.6,384.8z"/>
					<path id="Shoes_1_" class="st2" d="M677.7,376.1c-0.5-0.2-1-0.3-1.5-0.3H517.3c-0.4,0-0.8,0.1-1.2,0.2
						c-0.3-0.7-0.5-1.4-0.5-2.2l-1.5-55.3c-0.2-3,2.1-5.3,5-5.4l68.7-0.4c1.1,0,2.1,0.3,3,1c11.4,12.2,22.3,19,30.2,23
						c6.1,3.1,26.5,11.7,35.7,15.9c4.7,2.1,9.2,4.6,13.6,7.3c0.3,0.2,0.5,0.3,0.8,0.6c2.3,2.1,5.8,5.9,7.1,10.4
						c0.2,0.6,0.2,1.1,0.3,1.7c0.1,0.5,0,1,0,1.5v0.1C678.3,375,678,375.6,677.7,376.1z M416.7,376.2c-0.6-0.3-1.3-0.5-2-0.5h-54.1
						l-99-73.7l37.3-52.9l60.2,43.7c3.3,11.2,6.7,22.4,10.1,33.7c1.8,5.9,3.6,11.7,5.4,17.5c5.6,2.2,10.4,4.2,13.8,5.7
						c6.5,2.8,12,5.4,18,9.3c0,0,5.2,3.2,8.1,7.8c0.9,1.5,1.7,3.2,2.2,5c0.2,0.8,0.2,1.6,0.3,2.3C417,374.7,416.9,375.5,416.7,376.2
						z"/>
					<path id="Skirt" class="st10" d="M543.3,13.2l27.3-0.4c8.2-0.5,18.5,4.6,26.2,10.4c1.6,1.2,3,2.5,4.3,3.9
						c1.2,1.3,2.4,2.7,3.4,4.2c4.4,6.3,6.7,13.8,6.6,21.5c-0.2,16.7-2.2,29.7-3.5,34c-8.5,26.3-30.3,125-8.4,167.7
						c0,0,11.1,21.5,8.7,37.6c-0.9,6.5-4.5,14-5.6,16.3l0.1,0.1c-8.4,12.1-112.2,29.8-191.9,3.6c-10.9-3.6-26.8-7.7-45-15.8
						c-0.8-0.3-1.6-0.7-2.3-1.2c-12.3-7.9-24.6-15.7-36.9-23.6l-30.9-19.8c-5.9-3.8-7.6-11.4-3.8-16.9l25-36.6l15-21.9
						c4.2-6.2,8.6-12.6,13.1-19.1c2.1,0.1-1.7-0.1-11.6-0.5c-34.4-1.4-79.3-8-96.3-35.3c-8.6-13.9-10.1-28.5-10.8-35.2
						c-3.9-39.1,15.6-59.2,22-65.6c4.3-4.2,15-11,32.2-20.4l112,6.6l108,4C500.4,10.7,522.9,9,543.3,13.2z"/>
					<path id="Shadow-Skirt" class="st8" d="M542.9,13.2l27.7-0.4c8.2-0.5,18.5,4.6,26.2,10.4c1.6,1.2,3,2.5,4.3,3.9
						c1.2,1.3,2.4,2.7,3.4,4.2c4.4,6.3,6.7,13.8,6.6,21.5c-0.2,16.7-2.2,29.7-3.5,34c-8.5,26.3-30.3,125-8.4,167.7
						c0,0,11.1,21.5,8.7,37.6c-0.9,6.6-4.6,14.3-5.6,16.4c-9-12.1-44.7-67.1-30.5-161.1c0.4-2.4,9.2-54.2,9.2-68.5
						c0-51.6-12.5-59-34.2-64.8C545.5,13.8,544.2,13.5,542.9,13.2z"/>
					<path id="Shadow_1_" class="st2" d="M390.7,90.4c-4.9,7.5-10.1,14.7-22.7,32c-12.7,17.3-17.9,24.6-22.9,32.1
						c-0.6,0.9-0.4,2.2,0.6,2.8c0.9,0.6,2.2,0.4,2.8-0.6c4.9-7.5,10.1-14.7,22.7-32c12.7-17.3,17.9-24.6,22.9-32.1
						c0.6-0.9,0.4-2.2-0.6-2.8C392.5,89.2,391.3,89.5,390.7,90.4z"/>
				</g>
				<g id="Body_1_">
					<path id="T-shirt_1_" class="st11" d="M352.8,114.1c7.8-0.5,17.8,0.9,26.4,9.2c8.4,8,4.4,15,17,36.4
						c6.3,10.6,12.3,17.6,10.1,24.2c-0.8,2.5-3.2,4.8-7.1,6.9c-8.7,1.1-14.1,1.8-16.1,2c-0.5,0-1.2,0.1-1.8,0.2l-1.6,28.2l-0.1,1
						l-2.8,49.7l-0.6,9.7c0,0.8-0.1,1.5-0.2,2.3c-0.1,0.9-0.2,1.7-0.3,2.6c-0.3,2.3-0.8,4.5-1.4,6.7c-0.3,0.9-0.5,1.8-0.9,2.7
						l-102.2-0.8L260.3,193c-8.1-0.3-16.7-0.6-25.9-0.9c-4.9-1.8-7.8-3.9-8.8-6.3c-2.7-6.5,4.9-14.1,12.8-25.5
						c15.9-22.8,11-29.5,21.4-38.4c13.8-11.8,27.8-13.6,37.4-12.9c0.2-0.1,0.4-0.1,0.6-0.2c5-1.4,10.4-2,15.9-1.7l22,1.4
						C341.8,108.8,347.5,110.8,352.8,114.1z"/>
					<path id="Shadow-T-shirt" class="st4" d="M352.4,114.1c7.9-0.6,18,0.8,26.8,9.2c8.4,8,4.4,15,17,36.4
						c6.3,10.6,12.3,17.6,10.1,24.2c-0.8,2.5-3.2,4.8-7.1,6.9c-8.7,1.1-14.1,1.8-16.1,2c-0.7,0.1-1.4,0.1-2.2,0.2l1.5-26.2
						c-1.7-18.9-11.8-39.2-26.4-50.3C354.8,115.7,353.6,114.9,352.4,114.1z"/>
					<path id="Skin_1_" class="st12" d="M377.5,251.2l1.6-29l0.1-1l1.6-28.3l16.6-2l5.2,62.5c11,0.9,22.1,1.8,33.3,2.6
						c12.1,0.9,24.2,1.7,36.1,2.4c1.6-1,15.3-2.2,31.1,0c4.9,0.7,12,2.7,21.4,6c17.8,5.2,29.7,8.9,35.8,11.1c9.1,3.3,0,9.4-12.7,9.4
						c-2.6,0-39.1,1.3-49.7,2.8c0.2,0,0.4-0.1,0.6-0.1l6.2,1.7c3.2,0.8,6.3,2,9.3,3.7c2.7,1.5,5.4,3,8.1,4.5
						c0.7,0.5,1.4,1.3,1.8,2.2c1.1,3,0.8,8.3-1.8,8.3l-155-4.8c2.6-0.2,5.2-0.4,7.8-0.6c-23.8,1.8-47.7,2.8-74.8,2.7
						c-15.8-0.1-19.8-0.6-24.6-3.1c-20.6-10.7-24.6-41.7-27.9-68.8c-1.4-10.5-2.4-24.3-1.7-40.8c31.8,1.1,56.7,1.9,74.6,2.5
						c0,0.8,0,1.6,0,2.3c-0.1,10.4-0.4,20,0.5,34.2c0.4,5.9,0.5,10.8,0.7,14C340.1,247.7,358.7,249.5,377.5,251.2z M344.6,103
						l-1.4,5.3c4.7,1.8,8.7,5,13.2,8.4c-0.6,2.6-1.7,4.4-3,5.7c-7.9,7.9-33.2,1.2-57.7-13.8c2-0.6,7.5-2.8,17.2-3c0.8,0,1.7,0,2.7,0
						c2.3-4.8,4.6-9.2,7-14.6h-0.1l2.5-18.2c-0.1-1.1,0.2-0.2-0.8-0.6c-2.5-0.9-4.7-2.6-6.4-4.8c-2.9-4-3.5-9.6-1.5-14.6
						c2.3-4.7,7.8-8.1,12.6-7.3c1.8,0.3,3.4,1.1,4.9,2.3l0.1,0.1c0.5,0.5,1.2,0.7,1.8,0.8c1.7,0.1,3.2-1,3.4-2.7l2.8-26
						c0.1-1.7-0.9-2.4,0.8-2.3c2.5,0.2,6.5,0.2,12.2,0c0.5,0,4.4,0,4.8,0c2.4,0.4,20.7-0.6,30,14.4c0.8,1.5,1.6,2.9,2.2,4.4
						c1.5,3.7,2,7.8,1.5,11.9L391,66.5c-0.3,1.8-0.7,3.6-1.2,5.4c-6.4,22.1-17.7,36.9-26.3,36.8c-4.4-0.2-8.8-1-12.9-2.6
						C350.2,105.7,350.5,105.9,344.6,103z"/>
					<path id="Combined-Shape_4_" class="st8" d="M377,251.7l1.7-29.4l0.1-1l1.6-28.4l17.1-2.2l4.8,63
						C393.8,253.2,385.4,252.5,377,251.7z M498.5,287.7l5.7,1.5c3.2,0.8,6.4,1.8,9.4,3.5c2.7,1.5,5.9,3.2,8.6,4.7
						c0.7,0.5,1.4,1.3,1.8,2.2c1.1,3,0.8,8.3-1.8,8.3l-155.4-4.6c20.9-1.5,41.4-3.6,63.8-5.8c6.9-0.6,63.7-8.5,66.9-9.8
						C497.7,287.8,498.1,287.7,498.5,287.7z"/>
					<path id="Shadow_2_" class="st7" d="M309.1,248.2c-0.8,0.1-1.6-0.5-1.6-1.3c-0.1-0.8,0.5-1.6,1.3-1.6l12.8-1.3
						c0.8-0.1,1.6,0.5,1.6,1.3c0.1,0.8-0.5,1.6-1.3,1.6L309.1,248.2z M320.1,195.8c-0.8-0.1-1.4-0.9-1.2-1.7
						c0.1-0.8,0.9-1.4,1.7-1.2c0,0,0.1,0,0.3,0c1.3,0.1,2.8,0,4.2-0.6c2.5-1,4.1-3.3,4.3-7.5c0.3-5.4,0.1-9.6-0.5-12.9
						c-0.1-0.8-0.3-1.4-0.4-1.9c-0.1-0.3-0.1-0.5-0.2-0.5c-0.3-0.8,0.1-1.6,0.9-1.9c0.8-0.3,1.6,0.1,1.9,0.9c0.2,0.5,0.4,1.5,0.7,3
						c0.6,3.5,0.8,7.9,0.5,13.5c-0.3,5.3-2.6,8.6-6.2,10.1c-1.9,0.8-3.9,1-5.6,0.8C320.4,195.8,320.2,195.8,320.1,195.8z"/>
					<polygon id="Shadow_3_" class="st7" points="345,102.6 334.7,98.1 342,113 					"/>
					<path id="Hair_1_" class="st7" d="M341.2,64l-2.8-9.8c-0.9-2.4-2.4-4.5-4.3-6.2c-1.5-1.2-3.1-2-4.9-2.3
						c-4.8-0.8-10.3,2.6-12.6,7.3c-2.2,4.7-1.7,10.3,1.5,14.3c2,2.7,4.7,4.5,7.9,5.4c-1.4,7.7-3.4,18.4-3.4,18.4s-2.5-1.1-7.4-3.4
						c-11.9-6.7-18.3-19.1-19.4-37.3c-19.4,7.5-37.9,2.3-45.1-8.8c-5.5-8.5-4.3-19.8-3.9-21.4c3.9-15.7,17.3-18.1,17.3-18.1
						s19.3-9.9,39.9,20.3c0.1,0.1,0.2,0.2,0.2,0.3c2.2-2.3,5-4,8-5.2c8.3-3.4,14.2-1,30-0.3c3.2,0.2,8,0.3,14,0.1c0.5,0,0.9,0,1.3,0
						c3.6-0.1,23.1-0.2,32.4,14.8c-0.1,0.3-0.2,0.6-0.5,1C389.4,33.1,370.1,66.4,341.2,64z M379.4,61c-2,0.2-5.3,0.3-7.9-0.8
						c-4.5-1.7,0.3-3.8,4.5-3.4c2,0.1,3.4,1.2,4.3,2.1C380.9,59.7,380.4,60.9,379.4,61z M396.3,63.1c-2.1,0.4-5.2,0.8-8-0.1
						c-4.7-1.3-0.2-3.9,4.1-3.8c2.2,0.1,3.6,0.9,4.6,1.8C397.7,61.7,397.3,62.9,396.3,63.1z"/>
					<path id="Eyes_1_" class="st7" d="M387.3,73.5c-0.7-1.3,0-4,0.5-5.7c0.3-1.2,1.6-1.9,2.7-1.7c0.7,0.2,1.5,0.7,1.5,2.1
						C392.2,71.6,388.2,75.7,387.3,73.5z M370.9,71.2c-0.8-1.3,0-4,0.5-5.7c0.3-1.2,1.6-1.9,2.7-1.7c0.7,0.2,1.5,0.7,1.5,2.1
						C375.8,69.3,371.9,73.4,370.9,71.2z"/>
					<path id="Nose_1_" class="st7" d="M387.4,65.8c0.2-0.5-0.1-1.1-0.7-1.2c-0.5-0.2-1.1,0.1-1.2,0.7l-1.7,5.7v0.1l-1.7,10.6
						c0,0-0.1,0.1-0.3,0.1c-1-0.2-2.2-0.5-3.5-0.9c-0.5-0.1-1.1,0.2-1.2,0.7s0.2,1.1,0.7,1.2c1.3,0.3,2.5,0.6,3.7,0.9
						c1.3,0.2,2.4-0.5,2.6-1.7l1.7-10.5L387.4,65.8z"/>
					<polygon id="Shadow_4_" class="st7" points="345,103.1 337.2,99.2 340.6,117.6 					"/>
					<path id="Mouth_1_" class="st7" d="M374.8,90.6c-0.7-0.2-2.4-0.8-2.6-2c0-0.2-0.1-0.5,0-0.7c0.3-0.5,3.5,0,3.5,0
						c4,0.7,5.1,0.6,5.3,1.2c0.1,0.3,0,0.7-0.9,1.5C379,92.1,375.8,91,374.8,90.6z"/>
				</g>
			</g>
		</g>
		<path id="Path-2" class="st7" d="M224.6,0"/>
		<g id="Characters-sitting-_x2F_-Woman-sitting_x2F_-2" transform="translate(913.000000, 1.000000)">
			<g id="Woman_1_" transform="translate(36.000000, 84.948560)">
				<g id="Legs_2_" transform="translate(0.000000, 297.551440)">
					<path id="Base_2_" class="st2" d="M367,364.5h137.9c2.5,0,4.5,2,4.5,4.5s-2,4.5-4.5,4.5H346.1h-117c-2.5,0-4.5-2-4.5-4.5
						s2-4.5,4.5-4.5H367z"/>
					<path id="Shoes_2_" class="st2" d="M230.1,364.5h-1c-0.3,0-0.6,0-0.8,0.1c-0.3-0.5-0.5-1-0.6-1.6v-0.1c0-0.5-0.1-1,0-1.5
						c0.1-0.6,0.1-1.1,0.3-1.7c0.7-2.3,2.4-5,5.2-8.2c1.6-1.8,3.4-3.3,5.5-4.4c4.6-2.6,8.2-4.5,10.8-5.7
						c9.2-4.2,29.6-12.8,35.7-15.9c7.9-4,18.8-10.8,30.2-23c0.9-0.7,1.9-1,3-1l57.4,0.4c2.9,0,5.2,2.4,5,5.4l4.8,27.1
						c5.1-2.2,9.6-4.3,15.3-7.6c4.7-2.7,11.3-7.1,18.7-13.7c4.1-3.6,8.3-7.2,12.4-10.8l61.9-0.8l12.7,63.1c0.2,0,0.4,0.1,0.6,0.2
						l0.1,0.3c-0.6-0.4-1.4-0.6-2.2-0.6H505H367h-22.9L230.1,364.5L230.1,364.5z"/>
					<path id="Shadow-Shoes" class="st4" d="M367.4,364.5h-0.3h-138c-0.3,0-0.6,0-0.8,0.1c-0.3-0.5-0.5-1-0.6-1.6v-0.1
						c0-0.5-0.1-1,0-1.5c0.1-0.6,0.1-1.1,0.3-1.7c0.7-2.3,2.4-5,5.2-8.2c1.6-1.8,3.4-3.3,5.5-4.4c4.6-2.6,8.2-4.5,10.8-5.7
						c9.2-4.2,29.6-12.8,35.7-15.9c7.9-4,18.8-10.8,30.2-23c0.9-0.7,1.9-1,3-1l57.4,0.4c2.9,0,5.2,2.4,5,5.4l4.9,27.3
						c-5.3,2.3-11.3,4.7-19.6,8.7c-4.8,2.3-9.4,4.9-13.9,7.8c-2.2,2-6,6.1-7.2,10.9c-0.2,0.8-0.2,1.6-0.3,2.3c0,0.1,0,0.1,0.1,0.2
						h22.9L367.4,364.5L367.4,364.5z M507.2,365.1c-0.6-0.4-1.4-0.6-2.2-0.6h0.5c0.6,0,1.1,0.1,1.6,0.3L507.2,365.1z"/>
					<path class="st11" d="M363.2,1.7c1.7-0.3,3.4-0.4,4.9-0.3L551,0.7l83.8-0.2c3.4,0.2,17.7,4.6,21,8.3
						c3.2,1.7,23.7,22.9,20.3,62.2c-0.6,6.6-1.9,21.3-10.3,35.3c-8.8,14.6-23.6,25.3-41.7,31.4c-16,5.4-34.7,7.3-54.1,5.2
						c-41-7.4-81.9-14.7-122.9-22.1v1.5l0.2,0.7c0,0,5,9.4,9.3,19.1c4.3,9.6,10.3,55,10.3,55.3c9.8,15.6,19.7,36.7,27.3,63.3
						c3,10.7,4.6,19.1,5.2,22.3c1.2,6.9,2.2,15.2,2.9,24.9c0,0.1,0,0.3,0,0.4c0,3.3-2.7,6-6,6c-1,0-1.7,0-2.3,0l-88.9-0.1l-27.3-0.1
						c-0.9,0.2-1.9,0.4-2.9,0.4l-73-0.3H296c-5.8,0-10.7-4.6-11-10.4c-0.7-11.7-1.6-27.1-2.7-44.9c-3-44.9-4.6-59.2-6.4-93.8
						c-0.3-5.8-0.6-11-0.8-15.9c-0.8-23.3-2.9-45.1-7-73.6c-2.3-15.8-3.4-25.6-3.5-33.9c-0.1-7.7,2.2-15.3,6.6-21.6
						c2.2-3.1,4.7-5.8,7.7-8.1c7.7-6,13.2-10,32.5-10.3C326.7,1.5,344.4,1.6,363.2,1.7z"/>
					<path id="Shadow-Leg" class="st4" d="M363.7,1.6c-0.2,0-0.5,0.1-0.7,0.1c-7,1.2-14.9,5.3-21,10c-3,2.3-5.6,5-7.7,8.1
						c-4.4,6.2-6.7,13.6-6.7,21.2v0.5c0.1,8.3,1.2,18.1,3.4,33.9c4.1,28.5,6.2,50.2,7,73.6c0.2,4.8,0.5,10.1,0.8,15.9
						c1.7,34.5,3.4,48.8,6.4,93.8c1.2,17.8,2.1,33.1,2.7,44.9c0.3,5.8,5.2,10.4,11,10.4h5.9l12.6,0.1c-0.8,0.2-1.7,0.3-2.5,0.3
						l-73-0.3H296c-5.8,0-10.7-4.6-11-10.4c-0.7-11.7-1.6-27.1-2.7-44.9c-3-44.9-4.6-59.2-6.4-93.8c-0.3-5.8-0.6-11-0.8-15.9
						c-0.8-23.3-2.9-45.1-7-73.6c-2.3-15.8-3.4-25.6-3.5-33.9c-0.1-7.7,2.2-15.3,6.6-21.6c2.2-3.1,4.7-5.8,7.7-8.1
						c7.7-5.9,13.2-10,32.5-10.2C326.9,1.4,344.7,1.5,363.7,1.6L363.7,1.6z"/>
					<path id="Shadow_5_" class="st2" d="M446.6,118.6c-1.2-1.2-2.5-2.5-3.9-3.8c-0.4-0.4-0.4-0.4-0.7-0.7c-3.8-3.8-6.9-6.9-13-12.9
						c-0.8-0.8-2-0.8-2.8,0c-0.8,0.8-0.8,2,0,2.8c6,6,9.2,9.2,13,12.9c0.4,0.4,0.4,0.4,0.7,0.7c1.4,1.3,2.6,2.6,3.9,3.8
						c0.8,0.8,2.1,0.8,2.8,0C447.4,120.6,447.4,119.3,446.6,118.6z"/>
				</g>
				<g id="Body_2_" transform="translate(101.786806, 0.000000)">
					<path id="T-shirt_2_" class="st3" d="M476.1,91.7c5.9-2,12.3-2.9,19-2.6c26.5,1.3,46.9,22.4,45.6,47.1
						c-0.6,12.1-6.4,22.8-15.2,30.4l22.1,80.9c3.4,12.8,2.2,25.8-2.8,37c-0.7,1.6-1.5,3.2-2.3,4.7c-0.9,1.6-1.9,3.2-2.9,4.7
						c-1.1,1.6-2.3,3.2-3.6,4.7H427.1c-0.9-1.5-1.8-3-2.6-4.7c-0.8-1.5-1.5-3.1-2.1-4.7c-0.6-1.5-1.1-3.1-1.6-4.7
						c-0.1-0.3-0.2-0.6-0.3-0.9L392.2,185l-20.7,2.3c-1.8,0.2-3.5-1-3.7-2.7l-0.9-7c0-0.3,0-0.6,0-0.9c-3.4-2.1-6.5-4.5-9.1-7.4
						c-3.8-4.1-6.7-8.9-8.4-14.4c-6.8-21.8,8.3-45.1,33.7-51.9c10.2-2.7,20.6-2.4,29.7,0.4c3.9-2.7,8.1-4.8,12.7-6.1l21.9-6.5
						C457.6,89.3,467.3,89.6,476.1,91.7z"/>
					<path id="Shadow-T-shirt_1_" class="st4" d="M392.1,185l-20.5,2.3c-1.8,0.2-3.5-1-3.7-2.7l-0.9-7c0-0.3,0-0.6,0-0.9
						c-3.4-2.1-6.5-4.5-9.1-7.4c-3.8-4.1-6.7-8.9-8.4-14.4c-6.8-21.8,8.3-45.1,33.7-51.9c10.3-2.8,20.7-2.4,29.9,0.4
						c-20.7,14.2-31,46-24.1,70.7L392.1,185z"/>
					<path id="Finger" class="st7" d="M374.7,107.4c0,0-1.9,7.6,8.2,5.5c10.1-2.1,13-3.1,13-3.1l-2.6-6.9L374.7,107.4z"/>
					<path id="Skin_2_" class="st12" d="M409.5,87.5c-0.3,0.1-0.7,0.2-1,0.2L409.5,87.5L409.5,87.5z M436.3,71.4l2.5-1l12.1,20.9
						L431,97.5l19.5,92.9c0,0,1.7-6.7,3.8-18.8c0.1,0,0.2,0.1,0.3,0.1l55.3,12.3c0.2,0.1,0.5,0.1,0.7,0.1c-1.9,7.7-4,17-6.2,26.6
						c-5.7,24.8-6.6,36.3-15.7,52.7c-10.4,18.7-20,19.2-23.8,20.6c-8.5,3.3-17,2.8-22.3,1.5c-6.4-1.5-18-4-27.9-22l5.8,20.2
						c0.1,0.3,0.2,0.6,0.3,0.9c0.5,1.6,1,3.2,1.6,4.7c0.6,1.6,1.3,3.2,2.1,4.7c0.8,1.7,1.7,3.2,2.6,4.7h12.8l-166,0.2
						c-0.5,0-0.9-0.2-1.2-0.4c-27.5-16.7-41.1-29.4-40.9-38.2c8.3-1.3,20.2-3,35.6-5.2c9.6-1.4,19.3-1.3,28.9,0.1l30.1,4.5
						c22.6-7.2,52.6-16.7,60.2-18.4L373.8,187l18.4-2l8.7,30.2c-5.1-35.7-3.8-73-8.3-108.8l-10.5,0.2c-6.2,2.5-19.2,6.7-20.6-2.2
						c0,0,17.2-7.1,29.3-12.3l0.9-0.8c0.8-0.7,1.5-1.1,2.5-1.4c0.2-0.1,0.4-0.1,0.6-0.1l4.8-0.7l0.7-0.1c-1.6,0.1-2.7,0-3.1,0
						c-8.4-0.6-18.1-15.9-22.5-38c-0.4-1.8-0.5-3.6-0.7-5.4l-0.8-17.9c-0.2-4,0.6-8,2.5-11.5c0.8-1.5,1.6-2.9,2.5-4
						c10.1-13.8,29-12.3,32.4-11.9c0.4,0,0.8,0.1,1.2,0.1c3.8,0.9,7.2,1.2,10.7,1.1c1.6,0,2.9,1.3,3,2.9L426,30
						c0.1,2.4,12.2-2.2,12.2-2.3c5.8-4.4,13.1,19.3,10.1,22.8c-2.2,2.4-8.4,5.8-10.1,6.4c-1.1,0.4-1.9,1.3-2.1,2.3
						C436.8,64.2,436.9,68.3,436.3,71.4z"/>
					<path id="Shadow-Arm" class="st8" d="M373.8,187.1l18.4-2l28.3,98.7c0.1,0.3,0.2,0.6,0.3,0.9c0.5,1.6,1,3.2,1.6,4.7
						c0.6,1.6,1.3,3.2,2.1,4.7c0.8,1.7,1.7,3.2,2.6,4.7h12.8l-166,0.2c-0.5,0-0.9-0.2-1.2-0.4c-27.5-16.7-41.1-29.4-40.9-38.2
						c8.3-1.3,20.2-3,35.6-5.2c9.6-1.4,19.3-1.3,28.9,0.1l30.1,4.5c22.6-7.2,52.6-16.7,60.2-18.4L373.8,187.1z"/>
					<path id="Mouse" class="st2" d="M227.3,274c10.7-13.2,32.8-23.9,69.8,0.7c5.6,3.6,3.7,15.5-2.5,15.7l-63.9,1.1
						C225.9,291.6,223.7,278.5,227.3,274z"/>
					<path id="Hair_2_" class="st7" d="M467,24.3c12.8,8.4,25.1,20.8,22.9,29c-1.7,6.6-8.1,10.1-14.6,13.7
						c-5.2,2.9-14.9,7.3-28.9,8.3l0,0c-3.3,0.5-6.5,1-9.8,1.5c-1.7,0.2-3.3-1-3.4-2.7c0.5-3.6,1-7.2,1.5-10.8
						c0.4-1.8,0.9-4.1,1.2-6.5c1.6-0.4,5.2-1.4,7.9-4.6c3-3.5,4.6-8.8,2.6-13.9c-1.8-4.9-6.8-8.7-11.6-8.3c-2.7,0.2-4.8,1.7-5.1,1.9
						c-2.2,1.6-4,3.9-5,5.2c-4.7-1.8-12-5.7-18-13.4c-1.4-1.7-3-4.3-4.9-7.7c-10,2.3-18.3,1.7-25.1-1.7c1.5-2.8,3.8-5.4,6.9-7.6
						c4.7-3.4,5.2-3.8,11.1-5.5c3.7-1,10.7-1.4,15.8-0.9h0.2c5.7,0.6,10.4,0.8,13.5,0.8c15.2,0.3,21.1-1.7,28.8,2.1
						c1.4,0.7,4.7,2.5,7.6,5.9C464.7,13.9,466.4,19.4,467,24.3z M376.4,58.7c3.8,13.5,7.8,18.5,7.3,18.5s-1.8,0.7-12.1-2.2
						c-5.1-1.4-9.9-2.8-12.1-6.9c-3.1-5.8,6.1-17.8,14.3-25.8C373.8,48.2,374.8,52.7,376.4,58.7z M370.4,38.9
						c-1-0.2-1.4-1.4-0.7-2.1c0.9-0.8,2.4-1.8,4.4-1.9c4.1-0.2,8.6,2.2,4.2,3.6C375.5,39.5,372.3,39.2,370.4,38.9z M389.8,38.9
						c-1-0.2-1.4-1.4-0.6-2.1c0.9-0.8,2.4-1.8,4.5-1.9c4.1-0.2,8.6,2.3,4.2,3.6C394.9,39.5,391.8,39.2,389.8,38.9z"/>
					<path id="Eyes_2_" class="st7" d="M377.9,46.6c0.2,1.7,0.4,4.5-0.5,5.7c-1.3,1.8-4.4-2.8-3.7-6c0.3-1.4,1-1.8,1.8-1.8
						C376.7,44.5,377.7,45.4,377.9,46.6z M395.7,46c0.3,1.7,0.5,4.5-0.5,5.7c-1.3,1.8-4.4-2.8-3.7-6c0.3-1.4,1-1.8,1.8-1.8
						C394.5,43.9,395.5,44.8,395.7,46z"/>
					<path id="Shadow_6_" class="st7" d="M449.4,190.9c-0.2-0.8,0.2-1.6,1-1.9c0.8-0.3,1.6,0.2,1.9,1l9.9,33.5
						c0.2,0.8-0.2,1.6-1,1.9c-0.8,0.2-1.6-0.2-1.9-1L449.4,190.9z M517.1,173.6c0,0.2,0,0.4,0,0.5l-1.7,7.5
						c-0.6,2.6-3.2,4.2-5.8,3.6c-0.8-0.2-1.3-1-1.1-1.8s1-1.3,1.8-1.1c1,0.2,2-0.4,2.2-1.4l1.5-6.4c-0.3-0.1-0.5-0.4-0.6-0.7
						c-0.4-0.7-0.1-1.6,0.7-2c4.3-2.1,8.2-4.9,11.6-8.2c0.6-0.6,1.5-0.6,2.1,0c0.6,0.6,0.6,1.5,0,2.1
						C524.5,168.9,521,171.5,517.1,173.6z M455.3,160.3c0,0.1,0,0.1,0,0.2l-1.7,7.5c-0.2,1,0.4,2,1.4,2.2c0.8,0.2,1.3,1,1.1,1.8
						c-0.2,0.8-1,1.3-1.8,1.1c-2.6-0.6-4.2-3.2-3.6-5.8l1.7-7.5c0.1-0.3,0.2-0.5,0.4-0.7c-1.2-1.4-2.1-2.7-2.8-3.9
						c-0.7-1.1-1.2-2.3-1.8-3.8c-0.4-1-0.7-1.7-1.5-4.1c-0.3-0.8,0.1-1.6,0.9-1.9s1.6,0.1,1.9,0.9c0.9,2.4,1.1,3.1,1.5,4
						c0.5,1.3,1,2.4,1.6,3.4c0.8,1.3,1.8,2.7,3.2,4.3c0.5,0.6,0.5,1.6-0.2,2.1C455.5,160.2,455.4,160.2,455.3,160.3z M416.5,85.8
						c-3.7,1.7-6.2,4.7-12,5.3c-4.6,1.1-8.5-0.2-10.5-1.2c0.2-0.1,0.4-0.1,0.6-0.1l4.8-0.7c2.3,0,6-0.4,10.3-1.6L416.5,85.8z"/>
					<path id="Mouth_2_" class="st7" d="M390.6,66.2c0.7-0.2,2.4-0.8,2.7-1.9c0-0.2,0.1-0.5,0-0.7c-0.4-0.6-1.7-0.3-3.5-0.1
						c-3.2,0.3-5.8,0-5.8,0s0.8,2,1.3,2.5C386.4,67.6,389.6,66.6,390.6,66.2z"/>
					<path id="Nose_2_" class="st7" d="M383.1,47.4L383.1,47.4L383.1,47.4L383.1,47.4z M381.9,57.9L381.9,57.9
						c0,1.2,0.7,2.2,1.8,2.4c0.2,0,0.3,0,0.4,0c1.1,0.1,1.8,0.1,4.5,0.1c0.6,0,1-0.4,1-1s-0.4-1-1-1c-2.7,0-3.4,0-4.4-0.1
						c-0.1,0-0.2,0-0.3,0c0,0-0.1-0.1-0.1-0.3l1.2-10.6v-0.1l-0.2-5.9c0-0.6-0.5-1-1-1s-1,0.5-1,1l0.2,5.8L381.9,57.9z"/>
				</g>
			</g>
		</g>
		<g id="Interior-_x2F_-Table-_x2F_-Table-1" transform="translate(89.000000, 371.000000)">
			<g id="Table">
				<path id="Rectangle_7_" class="st1" d="M231.6,0h1277c3.9,0,7,3.1,7,7l0,0c0,3.9-3.1,7-7,7h-1277c-3.9,0-7-3.1-7-7l0,0
					C224.6,3.1,227.7,0,231.6,0z"/>
			</g>
		</g>
		<g id="Active-objects-_x2F_-Devices-_x2F_-Imac" transform="translate(761.000000, 105.000000)">
			<g id="IMac" transform="translate(52.000000, 77.000000)">
				<path class="st2" d="M301.9,174l9.6-38.8h-72.2c-7.5,0-13.7-5.7-13.7-12.6V12.7c-0.1-7,6-12.7,13.6-12.7h219.7
					c7.5,0,13.7,5.7,13.7,12.6v110c0,6.9-6.2,12.6-13.7,12.6h-88l-4,38.8h26c4,0,7.1,3.2,7.1,7.1c0,4-3.2,7.1-7.1,7.1H281.5
					c-4,0-7.1-3.2-7.1-7.1c-0.2-3.9,3.1-7.1,7.1-7.1H301.9z"/>
				<path id="Shadow_7_" class="st13" d="M373.9,106.9l0.3,67.2H367L373.9,106.9z"/>
			</g>
		</g>
	</g>
</g>
</svg>
