<svg width="32" height="32" viewBox="0 0 32 32" fill="none" xmlns="http://www.w3.org/2000/svg">
<circle cx="16" cy="16" r="16" fill="#F321AC"/>
<path d="M18.8418 19.3379C18.8418 18.7129 18.6204 18.2311 18.1777 17.8926C17.7415 17.554 16.9505 17.2122 15.8047 16.8672C14.6589 16.5221 13.7474 16.138 13.0703 15.7148C11.7747 14.901 11.127 13.8398 11.127 12.5312C11.127 11.3854 11.5924 10.4414 12.5234 9.69922C13.4609 8.95703 14.6751 8.58594 16.166 8.58594C17.1556 8.58594 18.0378 8.76823 18.8125 9.13281C19.5872 9.4974 20.196 10.0182 20.6387 10.6953C21.0814 11.3659 21.3027 12.1113 21.3027 12.9316H18.8418C18.8418 12.1895 18.6074 11.61 18.1387 11.1934C17.6764 10.7702 17.0124 10.5586 16.1465 10.5586C15.3392 10.5586 14.7109 10.7311 14.2617 11.0762C13.819 11.4212 13.5977 11.903 13.5977 12.5215C13.5977 13.0423 13.8385 13.4785 14.3203 13.8301C14.8021 14.1751 15.5964 14.5137 16.7031 14.8457C17.8099 15.1712 18.6986 15.5456 19.3691 15.9688C20.0397 16.3854 20.5312 16.8672 20.8438 17.4141C21.1562 17.9544 21.3125 18.5892 21.3125 19.3184C21.3125 20.5033 20.8568 21.4473 19.9453 22.1504C19.0404 22.847 17.8099 23.1953 16.2539 23.1953C15.2253 23.1953 14.278 23.0065 13.4121 22.6289C12.5527 22.2448 11.8822 21.7174 11.4004 21.0469C10.9251 20.3763 10.6875 19.5951 10.6875 18.7031H13.1582C13.1582 19.5104 13.4251 20.1354 13.959 20.5781C14.4928 21.0208 15.2578 21.2422 16.2539 21.2422C17.1133 21.2422 17.7578 21.0697 18.1875 20.7246C18.6237 20.373 18.8418 19.9108 18.8418 19.3379Z" fill="white"/>
</svg>
