<svg width="138" height="32" viewBox="0 0 138 32" fill="none" xmlns="http://www.w3.org/2000/svg">
<path d="M39.0317 7.16249C38.2425 7.16178 37.457 7.2707 36.6978 7.48611L39.0277 3.6836C39.2219 3.36687 39.3282 3.00421 39.3356 2.63288C39.343 2.26156 39.2512 1.89497 39.0697 1.5708C38.8881 1.24662 38.6234 0.97656 38.3027 0.788368C37.982 0.600176 37.6169 0.500643 37.2448 0.5H23.2537C22.9195 0.499898 22.5902 0.57977 22.2933 0.732917C21.9964 0.886065 21.7407 1.10803 21.5474 1.3802C21.3541 1.65238 21.2291 1.96684 21.1826 2.29722C21.1362 2.62761 21.1697 2.9643 21.2805 3.27907C18.3739 1.88971 15.0937 1.48116 11.9343 2.115C8.77484 2.74884 5.90737 4.39073 3.76399 6.79322C1.62061 9.19571 0.317463 12.2286 0.0509338 15.4349C-0.215596 18.6412 0.568936 21.8471 2.2863 24.5694C4.00366 27.2918 6.56079 29.3832 9.57233 30.5283C12.5839 31.6734 15.8866 31.8103 18.9829 30.9183C22.0791 30.0263 24.8011 28.1538 26.7385 25.5829C28.676 23.012 29.724 19.882 29.7246 16.6647C29.7246 16.4463 29.7246 16.2319 29.7246 16.0215C29.2046 15.887 28.758 15.5545 28.4806 15.0952L21.4668 3.6836C21.3891 3.55649 21.3265 3.42072 21.2805 3.27907C23.7099 4.44136 25.7773 6.24086 27.2617 8.48524C28.7462 10.7296 29.5918 13.3345 29.7084 16.0215C29.9725 16.0916 30.2478 16.1094 30.5187 16.0741C30.598 17.7348 31.1637 19.3357 32.1455 20.6784C33.1274 22.0212 34.4823 23.0468 36.0424 23.6282C37.6025 24.2096 39.2992 24.3212 40.9222 23.9491C42.5452 23.5771 44.0232 22.7378 45.173 21.5352C46.3228 20.3326 47.0939 18.8196 47.3907 17.1837C47.6875 15.5478 47.497 13.861 46.8428 12.3321C46.1885 10.8033 45.0993 9.49972 43.7102 8.58295C42.321 7.66618 40.6929 7.17651 39.0277 7.17463L39.0317 7.16249ZM32.0341 15.1114C31.8713 15.3776 31.6505 15.6038 31.3882 15.7733C31.1259 15.9427 30.8287 16.0511 30.5187 16.0903C30.5187 15.9568 30.5187 15.8193 30.5187 15.6858C30.5164 13.8351 31.1194 12.0342 32.2363 10.557C33.3531 9.0799 34.9225 8.00727 36.7059 7.50229L32.0341 15.1114Z" fill="white"/>
<path d="M59.9232 10.1964C60.4377 10.4216 60.9062 10.7397 61.3049 11.1349C61.5053 11.3263 61.6821 11.5409 61.8316 11.7741C61.9816 12.011 62.1169 12.2569 62.2368 12.5103C62.6739 13.596 62.6855 14.8063 62.2692 15.9002C62.0725 16.4068 61.7684 16.8649 61.3778 17.2432C60.9628 17.6439 60.4669 17.9515 59.9232 18.1453C59.2543 18.3794 58.5492 18.493 57.8405 18.481H55.6241C55.5554 18.4796 55.487 18.4926 55.4235 18.519C55.36 18.5455 55.3028 18.5849 55.2554 18.6348C55.2059 18.6823 55.1667 18.7396 55.1402 18.8029C55.1137 18.8662 55.1005 18.9343 55.1015 19.0029V21.6201C55.1037 21.6879 55.0923 21.7553 55.068 21.8186C55.0436 21.8818 55.0068 21.9395 54.9596 21.9883C54.9138 22.0376 54.8579 22.0764 54.7956 22.1023C54.7334 22.1281 54.6664 22.1402 54.599 22.1379H53.27C53.2016 22.139 53.1337 22.1264 53.0702 22.1007C53.0068 22.0751 52.9492 22.037 52.9008 21.9887C52.8525 21.9404 52.8143 21.8829 52.7886 21.8196C52.7629 21.7563 52.7503 21.6884 52.7514 21.6201V10.3825C52.7496 10.3135 52.762 10.2449 52.7878 10.1809C52.8136 10.1169 52.8522 10.0589 52.9013 10.0103C52.9491 9.96143 53.0066 9.9229 53.07 9.89715C53.1335 9.8714 53.2015 9.85898 53.27 9.86066H58.2214C58.8051 9.86127 59.3831 9.9753 59.9232 10.1964ZM59.1128 16.1834C59.3619 16.0824 59.5819 15.9211 59.753 15.7141C59.8325 15.6111 59.903 15.5015 59.9637 15.3864C60.0245 15.2722 60.0721 15.1514 60.1055 15.0264C60.1876 14.7647 60.2272 14.4916 60.223 14.2174C60.2205 13.9318 60.1698 13.6488 60.0731 13.38C59.9785 13.1113 59.8295 12.8648 59.6355 12.6559C59.4417 12.4334 59.2009 12.2566 58.9305 12.1381C58.6251 11.996 58.2908 11.9267 57.954 11.9359H55.6039C55.4656 11.9369 55.3333 11.9922 55.2355 12.0899C55.1377 12.1875 55.0823 12.3196 55.0812 12.4577V15.8436C55.0807 15.9122 55.0938 15.9803 55.1199 16.0439C55.146 16.1074 55.1844 16.1652 55.2331 16.2137C55.2817 16.2623 55.3396 16.3007 55.4032 16.3268C55.4669 16.3528 55.5351 16.3659 55.6039 16.3654H58.2092C58.5202 16.372 58.8288 16.3099 59.1128 16.1834Z" fill="white"/>
<path d="M72.9864 20.5805V21.6201C72.9875 21.6884 72.9749 21.7563 72.9492 21.8196C72.9235 21.8829 72.8853 21.9404 72.837 21.9887C72.7886 22.037 72.731 22.0751 72.6676 22.1007C72.6041 22.1264 72.5362 22.139 72.4678 22.1379H64.6558C64.5867 22.1397 64.518 22.1273 64.4539 22.1016C64.3898 22.0758 64.3316 22.0373 64.283 21.9883C64.2348 21.9399 64.1967 21.8825 64.171 21.8193C64.1452 21.7561 64.1323 21.6884 64.1331 21.6201V10.3825C64.1322 10.3137 64.1451 10.2453 64.1708 10.1815C64.1965 10.1176 64.2347 10.0594 64.283 10.0103C64.3316 9.96132 64.3898 9.92276 64.4539 9.89702C64.518 9.87128 64.5867 9.8589 64.6558 9.86066H65.9645C66.033 9.85898 66.1011 9.8714 66.1645 9.89715C66.2279 9.9229 66.2854 9.96143 66.3333 10.0103C66.3829 10.0587 66.4221 10.1166 66.4486 10.1806C66.4751 10.2446 66.4882 10.3133 66.4872 10.3825V19.5611C66.4861 19.6294 66.4988 19.6972 66.5245 19.7606C66.5501 19.8239 66.5883 19.8814 66.6367 19.9297C66.6851 19.978 66.7427 20.0161 66.8061 20.0417C66.8695 20.0674 66.9375 20.08 67.0059 20.0789H72.484C72.5523 20.0782 72.6201 20.091 72.6834 20.1167C72.7467 20.1424 72.8043 20.1804 72.8527 20.2286C72.941 20.3243 72.9889 20.4504 72.9864 20.5805Z" fill="white"/>
<path d="M73.4564 21.6849L79.2871 10.0629C79.3163 9.99937 79.364 9.94608 79.424 9.91001C79.484 9.87393 79.5535 9.85673 79.6234 9.86066C79.6934 9.85616 79.7631 9.87312 79.8232 9.90927C79.8833 9.94541 79.931 9.99902 79.9597 10.0629L85.7904 21.6849C85.8234 21.7307 85.8432 21.7849 85.8475 21.8412C85.8518 21.8976 85.8404 21.9541 85.8147 22.0044C85.7837 22.052 85.7398 22.0898 85.6882 22.1134C85.6365 22.1371 85.5792 22.1456 85.5229 22.1379H83.9913C83.837 22.1355 83.6866 22.0892 83.5578 22.0044C83.4233 21.9276 83.3169 21.81 83.2539 21.6687L82.7474 20.6614C82.6733 20.5318 82.5673 20.4232 82.4395 20.3459C82.3133 20.2583 82.1637 20.2104 82.0099 20.2084H77.2368C77.0821 20.2119 76.9317 20.2597 76.8033 20.3459C76.6691 20.4213 76.5627 20.5375 76.4994 20.6776L76.0132 21.6687C75.9419 21.807 75.834 21.9231 75.7012 22.0044C75.5735 22.0885 75.4246 22.1348 75.2717 22.1379H73.7441C73.6873 22.1449 73.6296 22.1362 73.5775 22.1126C73.5253 22.0891 73.4806 22.0516 73.4483 22.0044C73.4246 21.9542 73.413 21.8992 73.4144 21.8437C73.4159 21.7882 73.4302 21.7338 73.4564 21.6849ZM78.3795 18.1655H80.8673C80.9254 18.1722 80.9843 18.1621 81.0367 18.1362C81.0892 18.1104 81.1331 18.07 81.1631 18.0199C81.1882 17.9689 81.2012 17.9129 81.2012 17.8561C81.2012 17.7993 81.1882 17.7432 81.1631 17.6922L79.8503 14.9253C79.7936 14.7918 79.7206 14.7271 79.6315 14.7271C79.5424 14.7271 79.4694 14.7918 79.4127 14.9253L78.0877 17.6922C78.0594 17.7436 78.0445 17.8014 78.0445 17.8601C78.0445 17.9188 78.0594 17.9766 78.0877 18.028C78.1198 18.0746 78.1637 18.112 78.215 18.1361C78.2662 18.1603 78.323 18.1704 78.3795 18.1655Z" fill="white"/>
<path d="M89.6356 22.1379H88.3106C88.2433 22.1402 88.1762 22.1281 88.114 22.1023C88.0518 22.0764 87.9958 22.0376 87.95 21.9883C87.9029 21.9395 87.866 21.8818 87.8417 21.8186C87.8173 21.7553 87.8059 21.6879 87.8082 21.6201V10.3987C87.8061 10.3304 87.8175 10.2623 87.8418 10.1984C87.8662 10.1346 87.9029 10.0761 87.95 10.0265C87.9963 9.97784 88.0523 9.93937 88.1144 9.9136C88.1766 9.88782 88.2434 9.8753 88.3106 9.87684H89.6356C89.7045 9.87601 89.773 9.8888 89.8369 9.91449C89.9009 9.94018 89.9592 9.97825 90.0083 10.0265C90.0574 10.0751 90.0961 10.1331 90.1218 10.1971C90.1476 10.2611 90.16 10.3297 90.1583 10.3987V21.6201C90.16 21.6885 90.1475 21.7565 90.1217 21.8198C90.0959 21.8831 90.0573 21.9405 90.0083 21.9883C89.9597 22.0373 89.9016 22.0758 89.8375 22.1016C89.7734 22.1273 89.7046 22.1397 89.6356 22.1379Z" fill="white"/>
<path d="M95.5351 15.3622V21.6201C95.5359 21.6884 95.523 21.7561 95.4972 21.8193C95.4715 21.8825 95.4334 21.9399 95.3852 21.9883C95.3366 22.0373 95.2784 22.0758 95.2143 22.1016C95.1502 22.1273 95.0815 22.1397 95.0124 22.1379H93.6874C93.6216 22.1383 93.5563 22.1253 93.4957 22.0995C93.435 22.0738 93.3803 22.0359 93.3349 21.9883C93.2854 21.9407 93.2462 21.8835 93.2197 21.8201C93.1932 21.7568 93.18 21.6887 93.181 21.6201V10.1438C93.1763 10.082 93.1955 10.0207 93.2347 9.97252C93.2739 9.92437 93.3301 9.89303 93.3917 9.88493C93.4548 9.87052 93.5206 9.87144 93.5833 9.88763C93.6461 9.90382 93.704 9.9348 93.7523 9.97797L101.131 16.9398C101.24 17.0409 101.333 17.0733 101.406 17.0409C101.479 17.0086 101.516 16.9155 101.516 16.7699V10.3987C101.514 10.3297 101.526 10.2611 101.552 10.197C101.578 10.133 101.616 10.0748 101.665 10.026C101.714 9.97719 101.772 9.93881 101.836 9.91318C101.901 9.88754 101.969 9.87518 102.038 9.87684H103.347C103.416 9.8763 103.484 9.88943 103.548 9.91547C103.611 9.9415 103.669 9.97992 103.718 10.0285C103.767 10.077 103.805 10.1348 103.831 10.1983C103.857 10.2619 103.87 10.33 103.87 10.3987V21.8548C103.876 21.9168 103.857 21.9787 103.817 22.0271C103.778 22.0754 103.721 22.1065 103.659 22.1137C103.593 22.1285 103.525 22.1277 103.46 22.1116C103.394 22.0954 103.334 22.0643 103.282 22.0206L95.92 15.1761C95.8106 15.0871 95.7174 15.0588 95.6445 15.0952C95.5716 15.1316 95.5351 15.2165 95.5351 15.3622Z" fill="white"/>
<path d="M114.352 11.9399H111.884C111.815 11.9389 111.746 11.952 111.682 11.9785C111.618 12.0049 111.56 12.0441 111.512 12.0936C111.462 12.1411 111.423 12.1984 111.398 12.2618C111.372 12.3252 111.36 12.3933 111.362 12.4617V21.6201C111.363 21.6885 111.351 21.7565 111.325 21.8198C111.299 21.8831 111.261 21.9405 111.212 21.9883C111.163 22.0373 111.105 22.0758 111.041 22.1016C110.977 22.1273 110.908 22.1397 110.839 22.1379H109.53C109.462 22.139 109.394 22.1264 109.331 22.1007C109.267 22.0751 109.209 22.037 109.161 21.9887C109.113 21.9404 109.075 21.8829 109.049 21.8196C109.023 21.7563 109.011 21.6884 109.012 21.6201V12.4617C109.013 12.3931 109 12.3248 108.974 12.2615C108.947 12.1981 108.908 12.1409 108.858 12.0936C108.81 12.0442 108.753 12.005 108.689 11.9786C108.626 11.9522 108.558 11.939 108.489 11.9399H106.001C105.933 11.941 105.865 11.9284 105.801 11.9027C105.738 11.8771 105.68 11.839 105.632 11.7907C105.584 11.7424 105.545 11.6849 105.52 11.6216C105.494 11.5582 105.481 11.4904 105.482 11.4221V10.3825C105.481 10.3135 105.493 10.2449 105.519 10.1809C105.545 10.1169 105.583 10.0589 105.632 10.0103C105.68 9.96143 105.738 9.9229 105.801 9.89715C105.865 9.8714 105.933 9.85898 106.001 9.86066H114.352C114.42 9.85898 114.489 9.8714 114.552 9.89715C114.615 9.9229 114.673 9.96143 114.721 10.0103C114.77 10.0587 114.81 10.1166 114.836 10.1806C114.863 10.2446 114.876 10.3133 114.875 10.3825V11.4221C114.875 11.4905 114.861 11.5581 114.835 11.6212C114.809 11.6843 114.77 11.7416 114.721 11.7897C114.673 11.8378 114.615 11.8759 114.552 11.9017C114.488 11.9274 114.42 11.9404 114.352 11.9399Z" fill="white"/>
<path d="M118.837 12.4617V14.4844C118.836 14.5536 118.85 14.6223 118.876 14.6863C118.903 14.7502 118.942 14.8082 118.991 14.8565C119.039 14.9058 119.096 14.9446 119.16 14.9704C119.223 14.9962 119.292 15.0084 119.36 15.0062H124.267C124.336 15.0051 124.404 15.0179 124.468 15.0437C124.531 15.0696 124.589 15.1081 124.638 15.1568C124.686 15.2056 124.724 15.2636 124.75 15.3273C124.775 15.3911 124.787 15.4594 124.786 15.528V16.6162C124.787 16.6845 124.775 16.7525 124.749 16.8158C124.723 16.8792 124.685 16.9365 124.636 16.9843C124.588 17.0336 124.531 17.0726 124.467 17.099C124.404 17.1254 124.336 17.1387 124.267 17.138H119.36C119.292 17.1358 119.223 17.148 119.16 17.1738C119.096 17.1996 119.039 17.2384 118.991 17.2877C118.942 17.3353 118.903 17.3925 118.876 17.4558C118.85 17.5191 118.837 17.5872 118.837 17.6558V19.5004C118.838 19.6385 118.894 19.7706 118.992 19.8683C119.09 19.9659 119.222 20.0212 119.36 20.0223H125.033C125.101 20.0201 125.17 20.0323 125.233 20.0581C125.297 20.0839 125.354 20.1226 125.401 20.1719C125.451 20.2195 125.49 20.2767 125.517 20.3401C125.543 20.4034 125.556 20.4715 125.555 20.5401V21.6161C125.556 21.6847 125.543 21.7528 125.517 21.8161C125.49 21.8794 125.451 21.9366 125.401 21.9842C125.354 22.0335 125.297 22.0723 125.233 22.0981C125.17 22.1239 125.101 22.1361 125.033 22.1339H117.006C116.938 22.135 116.87 22.1223 116.806 22.0967C116.743 22.0711 116.685 22.033 116.637 21.9847C116.588 21.9364 116.55 21.8788 116.525 21.8155C116.499 21.7522 116.486 21.6844 116.487 21.6161V10.3825C116.486 10.3135 116.498 10.2449 116.524 10.1809C116.55 10.1169 116.588 10.0589 116.637 10.0103C116.685 9.96143 116.743 9.9229 116.806 9.89715C116.869 9.8714 116.938 9.85898 117.006 9.86066H125.021C125.089 9.85848 125.157 9.87068 125.221 9.89646C125.284 9.92224 125.342 9.96103 125.389 10.0103C125.439 10.0587 125.478 10.1166 125.505 10.1806C125.531 10.2446 125.544 10.3133 125.543 10.3825V11.4221C125.544 11.4907 125.531 11.5588 125.505 11.6221C125.478 11.6854 125.439 11.7427 125.389 11.7902C125.342 11.8395 125.284 11.8783 125.221 11.9041C125.157 11.9299 125.089 11.9421 125.021 11.9399H119.348C119.21 11.941 119.077 11.9963 118.98 12.0939C118.882 12.1916 118.826 12.3237 118.825 12.4617H118.837Z" fill="white"/>
<path d="M129.81 22.1379H128.481C128.412 22.139 128.345 22.1264 128.281 22.1007C128.218 22.0751 128.16 22.037 128.112 21.9887C128.063 21.9404 128.025 21.8829 128 21.8196C127.974 21.7563 127.961 21.6884 127.962 21.6201V10.3825C127.961 10.3135 127.973 10.2449 127.999 10.1809C128.024 10.1169 128.063 10.0589 128.112 10.0103C128.16 9.96143 128.217 9.9229 128.281 9.89715C128.344 9.8714 128.412 9.85898 128.481 9.86066H133.558C134.148 9.85452 134.735 9.95738 135.288 10.1641C135.779 10.3715 136.228 10.6662 136.613 11.0338C136.804 11.2227 136.974 11.4316 137.119 11.6567C137.267 11.8833 137.391 12.1246 137.488 12.3768C137.695 12.9235 137.798 13.5037 137.792 14.0879C137.816 14.9482 137.576 15.7952 137.103 16.5151C136.749 17.0476 136.269 17.4851 135.705 17.7893C135.593 17.8476 135.509 17.948 135.47 18.0684C135.455 18.1283 135.454 18.1911 135.469 18.2511C135.484 18.3111 135.514 18.3665 135.555 18.4123C135.961 18.9705 136.366 19.5004 136.739 19.998C137.111 20.4956 137.504 21.0214 137.91 21.5797C137.951 21.6311 137.98 21.6918 137.992 21.7567C138.005 21.8216 138.002 21.8886 137.983 21.9519C137.966 22.0099 137.929 22.06 137.878 22.0934C137.828 22.1267 137.767 22.1411 137.707 22.1339H136.009C135.851 22.1318 135.695 22.0916 135.555 22.0166C135.413 21.9502 135.287 21.8536 135.187 21.7334L134.624 20.9689L134.072 20.2084L132.962 18.6509C132.866 18.5211 132.74 18.4169 132.594 18.3475C132.453 18.2744 132.298 18.2343 132.14 18.2302H130.831C130.762 18.2297 130.694 18.2428 130.63 18.2689C130.567 18.2949 130.509 18.3333 130.46 18.3819C130.412 18.4304 130.373 18.4882 130.347 18.5517C130.321 18.6153 130.308 18.6834 130.308 18.7521V21.6201C130.311 21.6879 130.299 21.7553 130.275 21.8186C130.25 21.8818 130.214 21.9395 130.166 21.9883C130.121 22.037 130.066 22.0756 130.004 22.1014C129.943 22.1272 129.877 22.1397 129.81 22.1379ZM133.558 16.151C133.782 16.1461 134.003 16.1009 134.21 16.0175C134.446 15.9314 134.659 15.7931 134.834 15.613C135.014 15.4265 135.162 15.212 135.272 14.9779C135.392 14.6913 135.448 14.3822 135.438 14.0717C135.436 13.857 135.413 13.6429 135.369 13.4326C135.353 13.3157 135.326 13.2006 135.288 13.0888C135.243 12.9716 135.191 12.8568 135.134 12.7449C134.991 12.5128 134.795 12.3175 134.563 12.1745C134.261 12.0082 133.919 11.9271 133.574 11.9399H130.831C130.762 11.939 130.694 11.9522 130.631 11.9786C130.567 12.005 130.51 12.0442 130.462 12.0936C130.412 12.1409 130.373 12.1981 130.346 12.2615C130.32 12.3248 130.307 12.3931 130.308 12.4617V15.6292C130.307 15.6984 130.32 15.7671 130.347 15.8311C130.373 15.895 130.413 15.953 130.462 16.0013C130.51 16.0502 130.568 16.0887 130.631 16.1145C130.694 16.1402 130.763 16.1527 130.831 16.151H133.558Z" fill="white"/>
</svg>
