<svg width="24" height="24" viewBox="0 0 24 24" fill="none" xmlns="http://www.w3.org/2000/svg">
<path fill-rule="evenodd" clip-rule="evenodd" d="M12 24C18.6274 24 24 18.6274 24 12C24 5.37258 18.6274 0 12 0C5.37258 0 0 5.37258 0 12C0 18.6274 5.37258 24 12 24Z" fill="#77736C"/>
<path d="M11.4276 11.207H12.242C12.7537 11.1992 13.1561 11.0645 13.449 10.8027C13.742 10.541 13.8885 10.1875 13.8885 9.74219C13.8885 8.74219 13.3904 8.24219 12.3944 8.24219C11.9256 8.24219 11.5506 8.37695 11.2694 8.64648C10.992 8.91211 10.8533 9.26562 10.8533 9.70703H9.76935C9.76935 9.03125 10.0154 8.4707 10.5076 8.02539C11.0037 7.57617 11.6326 7.35156 12.3944 7.35156C13.199 7.35156 13.8299 7.56445 14.2869 7.99023C14.744 8.41602 14.9725 9.00781 14.9725 9.76562C14.9725 10.1367 14.8514 10.4961 14.6092 10.8438C14.3709 11.1914 14.0447 11.4512 13.6307 11.623C14.0994 11.7715 14.4608 12.0176 14.7147 12.3613C14.9725 12.7051 15.1014 13.125 15.1014 13.6211C15.1014 14.3867 14.8514 14.9941 14.3514 15.4434C13.8514 15.8926 13.201 16.1172 12.4002 16.1172C11.5994 16.1172 10.9471 15.9004 10.4432 15.4668C9.94318 15.0332 9.69318 14.4609 9.69318 13.75H10.783C10.783 14.1992 10.9295 14.5586 11.2225 14.8281C11.5154 15.0977 11.908 15.2324 12.4002 15.2324C12.9236 15.2324 13.324 15.0957 13.6014 14.8223C13.8787 14.5488 14.0174 14.1562 14.0174 13.6445C14.0174 13.1484 13.8651 12.7676 13.5604 12.502C13.2557 12.2363 12.8162 12.0996 12.242 12.0918H11.4276V11.207Z" fill="white" fill-opacity="0.87"/>
</svg>
