<svg width="20" height="15" viewBox="0 0 20 15" fill="none" xmlns="http://www.w3.org/2000/svg">
<path d="M10.3402 14.3232C11.1124 15.9199 14.5731 12.2566 15.138 11.8032C16.3248 10.8497 17.5111 9.89662 18.6975 8.94311C19.1431 8.58512 20.0494 8.09092 19.9979 7.38983C19.9472 6.70365 19.3219 6.34438 18.8507 5.96638C17.5937 4.95626 16.3363 3.94614 15.0797 2.93559C14.2198 2.24473 13.3604 1.55386 12.5001 0.862993C12.2387 0.653137 11.7424 0.0542154 11.3763 0.0120735C9.64596 -0.187993 10.1453 2.14299 10.1912 3.39702C9.65447 3.98999 3.15913 2.58016 2.29799 2.45927C1.88509 2.40137 0.638295 2.01827 0.302013 2.50226C-0.160267 3.16759 0.0457584 4.23262 0.0457584 4.98095C0.0457584 6.53934 0.0457584 8.09815 0.0457584 9.65654C0.0457584 10.4325 -0.160693 11.4869 0.35054 12.1633C0.719173 12.6507 1.67949 12.3511 2.14901 12.2851C3.7887 12.0552 5.42754 11.8245 7.06723 11.5946C8.09991 11.4499 9.13217 11.3047 10.1644 11.16C10.1457 11.1621 10.1265 13.8813 10.3402 14.3232ZM12.197 13.1219C12.1259 13.1794 12.0544 13.2369 11.9829 13.2939C10.6199 14.3892 10.7195 13.3961 10.8008 12.2723C10.8221 12.2898 10.8412 12.3115 10.863 12.3251C11.2861 12.5852 11.7096 12.8436 12.1357 13.0985C12.154 13.1092 12.1766 13.1134 12.197 13.1219ZM16.5542 9.53991C16.5729 9.55395 16.5955 9.56034 16.6159 9.57141C16.5367 9.63526 16.4576 9.69911 16.378 9.76253C16.3635 9.75232 16.3554 9.7387 16.3384 9.72976C15.9131 9.50032 15.4887 9.26833 15.0669 9.03208C12.532 7.35578 9.9916 5.68799 7.458 4.00786C7.58698 4.02574 7.71511 4.04447 7.84494 4.06235C8.08246 4.17515 8.32254 4.28285 8.55709 4.40076C11.1669 5.94255 13.7452 7.53541 16.2183 9.29046C16.3303 9.37304 16.4418 9.45648 16.5542 9.53991ZM11.8616 2.27069C12.3009 2.42479 12.7393 2.58101 13.1773 2.73723C13.3991 2.81598 13.7405 2.98072 13.9389 3.10672C14.3948 3.3966 14.8515 3.69797 15.3057 4.00488C15.5564 4.20665 15.8076 4.408 16.0583 4.60934C14.975 4.0449 13.8946 3.47364 12.8215 2.88366C12.492 2.7019 12.1613 2.51929 11.8314 2.33667C11.6262 2.22387 11.6398 2.19365 11.8616 2.27069ZM10.7787 2.75213C10.808 2.77852 10.8366 2.80747 10.8685 2.82577C13.5966 4.41651 16.346 5.97149 19.1125 7.49795C19.1172 7.50051 19.1223 7.50136 19.127 7.50391C19.0767 7.57585 19.0035 7.65247 18.9005 7.73548C18.3284 8.19521 17.7563 8.65493 17.1842 9.11423C17.1676 9.09721 17.157 9.07805 17.1361 9.06273C16.833 8.84053 16.5291 8.62045 16.223 8.40294C14.2551 6.9548 12.2464 5.55902 10.1393 4.35436C10.4028 4.32116 10.6254 4.18665 10.7795 3.83249C10.8059 3.77204 10.8114 3.70436 10.8042 3.6354C10.8042 3.6337 10.8046 3.63285 10.8046 3.63114C10.8046 3.50812 10.7846 3.16078 10.7787 2.75213ZM3.11869 3.39915C5.54928 4.64339 7.96966 5.90636 10.3556 7.22808C11.135 7.66439 11.9101 8.10028 12.6653 8.55022C13.325 8.94184 13.9887 9.32579 14.6557 9.70507C14.9418 9.87619 15.2282 10.0477 15.513 10.2214C15.5666 10.2567 15.6203 10.2929 15.6739 10.3287C15.4096 10.5411 15.1452 10.7535 14.8809 10.9659C14.8651 10.9527 14.8562 10.9365 14.837 10.9246C10.7016 8.36931 6.54408 5.84805 2.40399 3.29954C2.64236 3.33232 2.88074 3.36595 3.11869 3.39915ZM13.1629 10.8016C11.6207 9.91407 10.087 9.0142 8.57454 8.08538C6.85737 7.03142 5.17597 5.91786 3.46902 4.85155C3.2698 4.72682 3.26938 4.72597 3.46987 4.84899C6.70073 6.83305 9.93925 8.80434 13.1697 10.7905C13.3697 10.9144 13.3668 10.9191 13.1629 10.8016ZM0.788983 3.25187C0.797922 3.2374 0.80601 3.22037 0.815375 3.2076C1.25126 3.47875 1.68673 3.75033 2.12304 4.02063C2.32311 4.1445 2.32268 4.14536 2.12091 4.02446C1.68034 3.76055 1.23637 3.50302 0.788983 3.25187ZM2.25245 6.63384C1.74802 6.37673 1.24147 6.12431 0.73322 5.87614C0.699166 5.85954 0.668943 5.85656 0.637018 5.8506C0.627653 5.69651 0.614883 5.50623 0.604241 5.2934C0.63191 5.32319 0.659153 5.35554 0.68895 5.37896C1.21976 5.78036 1.75143 6.1822 2.28778 6.57595C2.47678 6.71642 2.46188 6.74068 2.25245 6.63384ZM0.70768 8.63918C0.688524 8.62684 0.671923 8.62599 0.653619 8.61747C0.653619 7.98705 0.653619 7.35663 0.653619 6.72536C0.680011 6.74494 0.7047 6.76835 0.73322 6.78197C3.18254 7.9696 5.57652 9.27344 7.95178 10.6164C6.88675 10.7663 5.82214 10.9157 4.75753 11.0651C3.38942 10.2806 2.03365 9.48116 0.70768 8.63918ZM2.48316 11.3843C2.39462 11.3967 2.30651 11.409 2.21839 11.4214C2.00087 11.452 1.79017 11.5006 1.59691 11.5372C1.30022 11.3503 1.0031 11.163 0.708105 10.974C0.689801 10.9625 0.674052 10.9591 0.656599 10.9502C0.656173 10.931 0.654045 10.9148 0.654045 10.8952C0.654045 10.7114 0.654045 10.527 0.654045 10.3432C0.677031 10.361 0.698315 10.3832 0.721727 10.3964C1.30916 10.7241 1.89658 11.0536 2.48316 11.3843ZM10.8323 11.3788C10.8106 10.7369 10.6352 10.2401 9.96862 10.3338C9.73109 10.367 9.49399 10.4006 9.25604 10.4338C6.3206 8.57278 3.46391 6.58659 0.689376 4.49483C0.652768 4.46716 0.619565 4.45439 0.586363 4.4429C0.588917 4.29477 0.595302 4.15132 0.606795 4.01467C0.643829 4.04745 0.682139 4.07938 0.723004 4.10279C3.91896 5.86848 6.92037 8.00408 10.0538 9.87363C11.2235 10.5717 12.403 11.2571 13.5868 11.9347C13.6051 11.945 13.6277 11.9484 13.6473 11.9565C13.3944 12.1595 13.1416 12.363 12.8887 12.566C12.8738 12.5545 12.8653 12.54 12.8474 12.5298C12.1881 12.1506 11.5279 11.7717 10.8689 11.392C10.8557 11.3839 10.8451 11.3843 10.8323 11.3788Z" fill="#EB920E"/>
</svg>
