<?xml version="1.0"?>
<svg xmlns="http://www.w3.org/2000/svg" xmlns:xlink="http://www.w3.org/1999/xlink" xmlns:svgjs="http://svgjs.com/svgjs" version="1.1" width="512" height="512" x="0" y="0" viewBox="0 0 512 512" style="enable-background:new 0 0 512 512" xml:space="preserve" class=""><g><link type="text/css" id="dark-mode" rel="stylesheet"/><path xmlns="http://www.w3.org/2000/svg" d="m216.38 27-9.11 52.07c-14.22 3.98-27.74 9.07-40.35 16.16l-44.1-31.48-57.46 57.28 31.21 44c-7.09 12.6-13.55 26.08-17.53 40.3l-54.04 9.06v81.21l20 3.368v-69.72l54.04-9.06c3.98-14.22 10.44-27.7 17.53-40.3l-31.21-44 57.46-57.28 44.1 31.48c12.61-7.088 26.13-12.109 40.35-16.088l9.11-52h63.851l-2.591-15z" fill="#dfc4fb" data-original="#d4e1f4" style="" class=""/><g xmlns="http://www.w3.org/2000/svg" fill="#0635c9"><path d="m486.034 208.482-48.334-8.455a182.18 182.18 0 0 0 -15.629-38.007l-10.457 5.888c6.228 11.058 11.324 23.816 15.581 39a6 6 0 0 0 4.743 4.291l47.062 8.235v71.13l-47.063 8.258a6 6 0 0 0 -4.741 4.29c-3.605 12.864-7.915 26.5-14.974 39.03a6 6 0 0 0 .33 6.41l28.3 40-50.323 50.385-39.974-28.08a6 6 0 0 0 -6.391-.32 178.706 178.706 0 0 1 -39.029 16.611 6 6 0 0 0 -4.3 4.781l-8.266 49.071h-71.117l-8.281-49.072a6 6 0 0 0 -4.3-4.779c-11.873-3.324-24.281-8.741-39.048-17.045l-4.074 11.468.9 1.273.62-.437c12.74 6.962 23.929 11.87 34.692 15.212l8.5 50.379a6 6 0 0 0 5.916 5h81.264a6 6 0 0 0 5.917-5l8.483-50.372a191.407 191.407 0 0 0 34.677-14.794l41.037 28.827a6 6 0 0 0 7.694-.67l57.461-57.532a6 6 0 0 0 .653-7.706l-29.063-41.085c5.963-11.414 9.926-23.292 13.213-34.675l48.321-8.479a6 6 0 0 0 4.966-5.913v-81.207a6 6 0 0 0 -4.966-5.911z" fill="#8826eb" data-original="#0635c9" style="" class=""/><path d="m311.985 74.331-8.43-48.361a6 6 0 0 0 -5.911-4.97h-81.264a6 6 0 0 0 -5.91 4.966l-8.461 48.377a187.221 187.221 0 0 0 -34.662 13.819l-41.047-29.297a6 6 0 0 0 -7.723.634l-57.458 57.283a6 6 0 0 0 -.657 7.721l29.032 40.923a188.217 188.217 0 0 0 -15.147 34.6l-50.34 8.445a6 6 0 0 0 -5.007 5.922v81.207a6 6 0 0 0 5 5.916l50.34 8.484a190.874 190.874 0 0 0 14.785 34.683l-.5.731 1.453 1 11.328-4.327a178.315 178.315 0 0 1 -16.587-39 6 6 0 0 0 -4.781-4.3l-49.038-8.258v-71.059l49.031-8.225a6 6 0 0 0 4.784-4.3c3.353-11.96 8.75-24.342 16.986-38.967a6 6 0 0 0 -.334-6.416l-28.281-39.862 50.274-50.121 39.974 28.534a6 6 0 0 0 6.427.346c11.158-6.274 23.924-11.381 39.03-15.61a6 6 0 0 0 4.293-4.744l8.238-47.105h71.178l8.212 47.1a6 6 0 0 0 4.293 4.747c12.064 3.378 26.131 7.806 39 15.044l5.882-10.459c-12.666-7.121-26.103-11.656-38.002-15.101z" fill="#8826eb" data-original="#0635c9" style="" class=""/><path d="m256.934 386.722a131.98 131.98 0 0 1 -63.691-16.369l-5.805 10.5a144.019 144.019 0 0 0 69.5 17.866c79.3 0 143.812-64.474 143.812-143.724a143.778 143.778 0 0 0 -17.931-69.549l-10.5 5.817a131.749 131.749 0 0 1 16.427 63.737c0 72.631-59.131 131.722-131.812 131.722z" fill="#8826eb" data-original="#0635c9" style="" class=""/><path d="m176.527 255a80.57 80.57 0 0 0 2.228 18.856l11.666-2.808a68.469 68.469 0 0 1 82.3-82.578l2.755-11.678a80.475 80.475 0 0 0 -98.949 78.208z" fill="#8826eb" data-original="#0635c9" style="" class=""/><path d="m256.934 323.356a68.8 68.8 0 0 1 -16.528-2.006l-2.886 11.65a80.428 80.428 0 0 0 97.36-97.8l-11.631 2.95a68.418 68.418 0 0 1 -66.315 85.2z" fill="#8826eb" data-original="#0635c9" style="" class=""/><path d="m225.35 151.939a6 6 0 1 0 -3.491-11.481 120.465 120.465 0 0 0 -60.792 42.581 118.806 118.806 0 0 0 -23.947 71.961 6 6 0 0 0 12 0 106.9 106.9 0 0 1 21.539-64.75 108.371 108.371 0 0 1 54.691-38.311z" fill="#8826eb" data-original="#0635c9" style="" class=""/><path d="m245.992 147.79c.189 0 .38-.009.571-.028 3.425-.324 6.916-.488 10.377-.488a6 6 0 0 0 0-12c-3.836 0-7.707.183-11.5.542a6 6 0 0 0 .557 11.974z" fill="#8826eb" data-original="#0635c9" style="" class=""/><path d="m126.233 237.708a5.96 5.96 0 0 0 -5.921-6.708h-.053a5.968 5.968 0 0 0 -5.927 5.188 144.149 144.149 0 0 0 16.437 87.767l10.519-5.735a132.332 132.332 0 0 1 -15.055-80.512z" fill="#8826eb" data-original="#0635c9" style="" class=""/><path d="m127.419 192.356a5.973 5.973 0 1 0 10.7 5.3 131.829 131.829 0 0 1 181.923-58.416l5.752-10.573a144.119 144.119 0 0 0 -68.863-17.558c-56.922.004-106.222 33.745-129.512 81.247z" fill="#8826eb" data-original="#0635c9" style="" class=""/></g><path xmlns="http://www.w3.org/2000/svg" d="m488.9 51.708a6 6 0 0 0 -5.286 1.667l-41.3 41.315-25.686-25.7 41.344-41.363a6 6 0 0 0 -1.688-9.67 77.541 77.541 0 0 0 -87.611 15.543 76.769 76.769 0 0 0 -21.446 40.751 104.984 104.984 0 0 1 -28.919 55.93l-188.263 188.351c-15.594 15.6-34.511 25.611-54.7 28.947a76.887 76.887 0 0 0 -63.952 65.1 77.673 77.673 0 0 0 6.407 44.032 6 6 0 0 0 9.683 1.709l39.744-39.761 25.686 25.7-39.79 39.808a6 6 0 0 0 1.687 9.67 77.861 77.861 0 0 0 88.005-15.156 76.917 76.917 0 0 0 21.251-40.946c3.952-21.869 13.884-41.277 28.725-56.124l188.257-188.349a102.24 102.24 0 0 1 55.094-28.562 76.536 76.536 0 0 0 44.387-24.238c20.789-22.766 25.92-57.038 12.769-85.283a6 6 0 0 0 -4.398-3.371zm-17.233 80.566a64.646 64.646 0 0 1 -37.483 20.49 114.332 114.332 0 0 0 -61.623 31.915l-188.261 188.347c-16.577 16.584-27.659 38.187-32.048 62.473a64.964 64.964 0 0 1 -17.929 34.6 65.728 65.728 0 0 1 -66.25 15.982l37.562-37.581a6 6 0 0 0 0-8.484l-34.17-34.186a6 6 0 0 0 -8.486 0l-37.466 37.482a66.349 66.349 0 0 1 14.106-63.7 64.764 64.764 0 0 1 37.678-20.3c22.682-3.749 43.857-14.919 61.234-32.3l188.263-188.344a116.913 116.913 0 0 0 32.241-62.279 64.82 64.82 0 0 1 18.125-34.4 65.667 65.667 0 0 1 65.847-16.359l-39.1 39.12a6 6 0 0 0 0 8.483l34.17 34.186a6 6 0 0 0 8.487 0l39.026-39.044c6.824 22.068 1.668 46.825-13.922 63.899z" fill="#1ae5be" data-original="#1ae5be" style="" class=""/><path xmlns="http://www.w3.org/2000/svg" d="m338.188 156.6a18.093 18.093 0 0 0 -12.888 5.34l-162.668 162.744a18.218 18.218 0 1 0 25.768 25.758l162.672-162.742a18.218 18.218 0 0 0 -12.885-31.1zm4.4 22.614-162.674 162.744a6.218 6.218 0 0 1 -8.795-8.791l162.672-162.744a6.218 6.218 0 0 1 8.794 8.792z" fill="#1ae5be" data-original="#1ae5be" style="" class=""/></g></svg>
