<svg width="213" height="141" viewBox="0 0 213 141" fill="none" xmlns="http://www.w3.org/2000/svg">
<path d="M174.029 32.4808C170.549 32.4164 167.077 32.838 163.714 33.7334L174.302 17.0864C175.175 15.7078 175.668 14.1222 175.73 12.4911C175.791 10.8601 175.42 9.24179 174.653 7.80116C173.886 6.36053 172.751 5.149 171.363 4.28996C169.976 3.43092 168.386 2.95506 166.755 2.91086L105.015 1.81722C103.542 1.79 102.084 2.11661 100.763 2.76963C99.4417 3.42266 98.2965 4.38306 97.423 5.5703C96.5496 6.75754 95.9735 8.13699 95.743 9.59296C95.5125 11.0489 95.6343 12.539 96.0983 13.9381C83.382 7.56929 68.9409 5.50792 54.9515 8.06465C40.9621 10.6214 28.1823 17.6576 18.5381 28.113C8.8939 38.5685 2.90789 51.8765 1.48221 66.0315C0.0565242 80.1865 3.26841 94.4216 10.6338 106.591C17.9992 118.761 29.1191 128.206 42.3175 133.503C55.5159 138.8 70.0778 139.662 83.8085 135.958C97.5392 132.255 109.695 124.187 118.443 112.971C127.192 101.755 132.059 87.9982 132.312 73.7737C132.329 72.8223 132.346 71.8709 132.284 70.9337C130.003 70.291 128.06 68.7849 126.869 66.7344L96.8931 15.7308C96.5648 15.1634 96.2983 14.5624 96.0983 13.9381C106.728 19.2639 115.711 27.3808 122.085 37.4202C128.459 47.4597 131.984 59.044 132.284 70.9337C133.449 71.2577 134.664 71.3587 135.866 71.2311C136.087 78.5903 138.462 85.7227 142.697 91.7442C146.931 97.7657 152.839 102.411 159.688 105.105C166.538 107.799 174.026 108.423 181.226 106.899C188.427 105.375 195.021 101.77 200.193 96.5317C205.364 91.2935 208.885 84.6519 210.32 77.4306C211.754 70.2093 211.037 62.7257 208.26 55.9077C205.482 49.0898 200.766 43.2373 194.695 39.076C188.624 34.9146 181.465 32.6273 174.107 32.4978L174.029 32.4808ZM142.538 66.9964C141.805 68.1638 140.816 69.1499 139.647 69.8804C138.478 70.6109 137.159 71.0669 135.789 71.2142C135.799 70.6215 135.81 70.0132 135.82 69.4205C135.965 61.2418 138.771 53.3332 143.813 46.8934C148.855 40.4537 155.858 35.8339 163.761 33.7343L142.538 66.9964Z" fill="#EB920E"/>
</svg>
