<?xml version="1.0" encoding="utf-8"?>
<!-- Generator: Adobe Illustrator 24.0.1, SVG Export Plug-In . SVG Version: 6.00 Build 0)  -->
<svg version="1.1" id="Camada_1" xmlns="http://www.w3.org/2000/svg" xmlns:xlink="http://www.w3.org/1999/xlink" x="0px" y="0px"
	 viewBox="0 0 420.5 249.4" style="enable-background:new 0 0 420.5 249.4;" xml:space="preserve">
<style type="text/css">
	.st0{fill:#FFFFFF;}
</style>
<title>Prancheta 2</title>
<path class="st0" d="M137.4,115.3c-1.9,0-3.9,0.3-5.8,0.8l5.8-9.4c1.5-2.4,0.7-5.6-1.7-7.1c-0.8-0.5-1.7-0.8-2.7-0.8H98.5
	c-2.8,0-5.2,2.3-5.2,5.2c0,0.6,0.1,1.2,0.3,1.7c-18.3-8.7-40.2-1-48.9,17.2s-1,40.2,17.2,48.9c18.3,8.7,40.2,1,48.9-17.2
	c2.4-4.9,3.6-10.4,3.6-15.8c0-0.5,0-1.1,0-1.6c-1.3-0.3-2.4-1.2-3.1-2.3l-17.3-28.2c-0.2-0.3-0.3-0.6-0.5-1
	c12.2,5.9,20.2,18,20.8,31.5c0.7,0.2,1.3,0.2,2,0.1c0.6,11.6,10.4,20.5,22,20c11.6-0.6,20.5-10.4,20-22
	C157.8,124.2,148.6,115.4,137.4,115.3L137.4,115.3z M120.2,135c-0.8,1.3-2.2,2.2-3.7,2.4c0-0.3,0-0.7,0-1c0-9.4,6.2-17.7,15.3-20.2
	L120.2,135z"/>
<path class="st0" d="M189,122.8c1.3,0.6,2.4,1.3,3.4,2.3c0.5,0.5,0.9,1,1.3,1.6c0.4,0.6,0.7,1.2,1,1.8c1.1,2.7,1.1,5.7,0.1,8.4
	c-0.5,1.3-1.2,2.4-2.2,3.3c-1,1-2.2,1.8-3.6,2.2c-1.7,0.6-3.4,0.9-5.1,0.8h-5.5c-0.3,0-0.7,0.1-0.9,0.4c-0.2,0.2-0.4,0.6-0.4,0.9
	v6.5c0,0.3-0.1,0.7-0.4,0.9c-0.2,0.2-0.6,0.4-0.9,0.4h-3.3c-0.7,0-1.3-0.5-1.3-1.2c0,0,0,0,0,0v-27.8c0-0.3,0.1-0.7,0.4-0.9
	c0.2-0.2,0.6-0.4,0.9-0.4h12.2C186.2,122,187.7,122.3,189,122.8z M187,137.6c0.6-0.2,1.2-0.6,1.6-1.2c0.2-0.3,0.4-0.5,0.5-0.8
	c0.2-0.3,0.3-0.6,0.4-0.9c0.2-0.6,0.3-1.3,0.3-2c0-0.7-0.1-1.4-0.4-2.1c-0.2-0.7-0.6-1.3-1.1-1.8c-0.5-0.6-1.1-1-1.7-1.3
	c-0.8-0.4-1.6-0.5-2.4-0.5h-5.8c-0.7,0-1.3,0.6-1.3,1.3v8.4c0,0.7,0.6,1.3,1.3,1.3c0,0,0,0,0,0h6.4C185.5,138.1,186.3,138,187,137.6
	z"/>
<path class="st0" d="M221.2,148.5v2.6c0,0.7-0.5,1.3-1.2,1.3c0,0,0,0,0,0h-19.3c-0.3,0-0.7-0.1-0.9-0.4c-0.2-0.2-0.4-0.6-0.4-0.9
	v-27.8c0-0.3,0.1-0.7,0.4-0.9c0.2-0.2,0.6-0.4,0.9-0.4h3.2c0.3,0,0.7,0.1,0.9,0.4c0.2,0.2,0.4,0.6,0.4,0.9V146
	c0,0.7,0.5,1.3,1.2,1.3c0,0,0,0,0,0H220c0.3,0,0.7,0.1,0.9,0.4C221.1,147.9,221.2,148.2,221.2,148.5z"/>
<path class="st0" d="M222.4,151.2l14.4-28.7c0.1-0.3,0.5-0.5,0.8-0.5c0.4,0,0.7,0.2,0.8,0.5l14.4,28.7c0.2,0.2,0.2,0.5,0.1,0.8
	c-0.2,0.2-0.4,0.4-0.7,0.3h-3.8c-0.4,0-0.8-0.1-1.1-0.3c-0.3-0.2-0.6-0.5-0.8-0.8l-1.3-2.5c-0.2-0.3-0.4-0.6-0.8-0.8
	c-0.3-0.2-0.7-0.3-1.1-0.3h-11.8c-0.4,0-0.8,0.1-1.1,0.3c-0.3,0.2-0.6,0.5-0.8,0.8l-1.2,2.4c-0.2,0.3-0.4,0.6-0.8,0.8
	c-0.3,0.2-0.7,0.3-1.1,0.3h-3.8c-0.3,0-0.6-0.1-0.7-0.3C222.3,151.8,222.3,151.5,222.4,151.2z M234.5,142.5h6.1
	c0.3,0,0.6-0.1,0.7-0.4c0.1-0.3,0.1-0.6,0-0.8l-3.2-6.8c-0.1-0.3-0.3-0.5-0.5-0.5s-0.4,0.2-0.5,0.5l-3.3,6.8c-0.1,0.3-0.1,0.6,0,0.8
	C234,142.4,234.3,142.6,234.5,142.5L234.5,142.5z"/>
<path class="st0" d="M262.3,152.4h-3.3c-0.3,0-0.7-0.1-0.9-0.4c-0.2-0.2-0.4-0.6-0.4-0.9v-27.7c0-0.3,0.1-0.7,0.4-0.9
	c0.2-0.2,0.6-0.4,0.9-0.4h3.3c0.3,0,0.7,0.1,0.9,0.4c0.2,0.2,0.4,0.6,0.4,0.9v27.7c0,0.3-0.1,0.7-0.4,0.9
	C263,152.2,262.7,152.4,262.3,152.4z"/>
<path class="st0" d="M276.9,135.6v15.5c0,0.3-0.1,0.7-0.4,0.9c-0.2,0.2-0.6,0.4-0.9,0.4h-3.3c-0.3,0-0.6-0.1-0.9-0.4
	c-0.2-0.2-0.4-0.6-0.4-0.9v-28.4c0-0.3,0.2-0.6,0.5-0.6c0.3-0.1,0.6,0,0.9,0.2l18.2,17.2c0.3,0.3,0.5,0.3,0.7,0.3s0.3-0.3,0.3-0.7
	v-15.8c0-0.7,0.5-1.3,1.2-1.3c0,0,0,0,0.1,0h3.2c0.7,0,1.3,0.6,1.3,1.3c0,0,0,0,0,0v28.3c0,0.3-0.2,0.6-0.5,0.6
	c-0.3,0.1-0.7,0-0.9-0.2l-18.2-16.9c-0.3-0.2-0.5-0.3-0.7-0.2S276.9,135.3,276.9,135.6z"/>
<path class="st0" d="M323.3,127.2h-6.1c-0.3,0-0.7,0.1-0.9,0.4c-0.2,0.2-0.4,0.6-0.4,0.9v22.6c0,0.3-0.1,0.7-0.4,0.9
	c-0.2,0.2-0.6,0.4-0.9,0.4h-3.2c-0.7,0-1.3-0.5-1.3-1.2c0,0,0,0,0,0v-22.6c0-0.3-0.1-0.7-0.4-0.9c-0.2-0.2-0.6-0.4-0.9-0.4h-6.1
	c-0.7,0-1.3-0.5-1.3-1.2c0,0,0,0,0,0v-2.6c0-0.3,0.1-0.7,0.4-0.9c0.2-0.2,0.6-0.4,0.9-0.4h20.6c0.3,0,0.7,0.1,0.9,0.4
	c0.2,0.2,0.4,0.6,0.4,0.9v2.6C324.6,126.6,324,127.2,323.3,127.2C323.3,127.2,323.3,127.2,323.3,127.2L323.3,127.2z"/>
<path class="st0" d="M334.4,128.4v5c0,0.3,0.1,0.7,0.4,0.9c0.2,0.2,0.6,0.4,0.9,0.4h12.1c0.7,0,1.3,0.5,1.3,1.2c0,0,0,0,0,0.1v2.7
	c0,0.3-0.1,0.7-0.4,0.9c-0.2,0.2-0.6,0.4-0.9,0.4h-12.1c-0.3,0-0.7,0.1-0.9,0.4c-0.2,0.2-0.4,0.6-0.4,0.9v4.6c0,0.7,0.6,1.3,1.3,1.3
	h14c0.3,0,0.7,0.1,0.9,0.4c0.2,0.2,0.4,0.6,0.4,0.9v2.7c0,0.3-0.1,0.7-0.4,0.9c-0.2,0.2-0.6,0.4-0.9,0.4h-19.8
	c-0.7,0-1.3-0.5-1.3-1.2c0,0,0,0,0,0v-27.8c0-0.3,0.1-0.7,0.4-0.9c0.2-0.2,0.6-0.4,0.9-0.4h19.8c0.3,0,0.7,0.1,0.9,0.4
	c0.2,0.2,0.4,0.6,0.4,0.9v2.6c0,0.3-0.1,0.7-0.4,0.9c-0.2,0.2-0.6,0.4-0.9,0.4h-14C334.9,127.2,334.4,127.7,334.4,128.4L334.4,128.4
	z"/>
<path class="st0" d="M361.5,152.4h-3.3c-0.7,0-1.3-0.5-1.3-1.2c0,0,0,0,0,0v-27.8c0-0.3,0.1-0.7,0.4-0.9c0.2-0.2,0.6-0.4,0.9-0.4
	h12.5c1.5,0,2.9,0.2,4.3,0.8c1.2,0.5,2.3,1.2,3.3,2.2c0.5,0.5,0.9,1,1.3,1.5c0.4,0.6,0.7,1.2,0.9,1.8c0.5,1.4,0.8,2.8,0.8,4.2
	c0.1,2.1-0.5,4.2-1.7,6c-0.9,1.3-2.1,2.4-3.5,3.1c-0.3,0.1-0.5,0.4-0.6,0.7c-0.1,0.3,0,0.6,0.2,0.9c1,1.4,2,2.7,2.9,3.9
	s1.9,2.5,2.9,3.9c0.2,0.3,0.3,0.6,0.2,0.9c-0.1,0.3-0.4,0.5-0.7,0.4h-4.2c-0.4,0-0.8-0.1-1.1-0.3c-0.4-0.2-0.7-0.4-0.9-0.7l-1.4-1.9
	l-1.4-1.9l-2.7-3.9c-0.2-0.3-0.5-0.6-0.9-0.8c-0.3-0.2-0.7-0.3-1.1-0.3H364c-0.7,0-1.3,0.6-1.3,1.3c0,0,0,0,0,0v7.1
	c0,0.3-0.1,0.7-0.4,0.9C362.1,152.2,361.8,152.4,361.5,152.4z M364,137.6h6.7c0.6,0,1.1-0.1,1.6-0.3c0.6-0.2,1.1-0.6,1.5-1
	c0.4-0.5,0.8-1,1.1-1.6c0.3-0.7,0.4-1.5,0.4-2.2c0-0.5-0.1-1.1-0.2-1.6c0-0.3-0.1-0.6-0.2-0.8c-0.1-0.3-0.2-0.6-0.4-0.9
	c-0.4-0.6-0.8-1.1-1.4-1.4c-0.7-0.4-1.6-0.6-2.4-0.6H364c-0.3,0-0.7,0.1-0.9,0.4c-0.2,0.2-0.4,0.6-0.4,0.9v7.8
	c0,0.3,0.1,0.7,0.4,0.9C363.3,137.4,363.7,137.6,364,137.6L364,137.6z"/>
</svg>
